<?xml version="1.0" encoding="UTF-8"?>
<svg version="1.1" xmlns="http://www.w3.org/2000/svg" width="372" height="146">
<path d="M0 0 C122.76 0 245.52 0 372 0 C372 48.18 372 96.36 372 146 C249.24 146 126.48 146 0 146 C0 97.82 0 49.64 0 0 Z " fill="#FDFDFD" transform="translate(0,0)"/>
<path d="M0 0 C0.94617188 0.07863281 1.89234375 0.15726563 2.8671875 0.23828125 C3.61226562 0.38652344 4.35734375 0.53476562 5.125 0.6875 C5.455 1.3475 5.785 2.0075 6.125 2.6875 C6.785 1.6975 7.445 0.7075 8.125 -0.3125 C10.70310299 -0.61721206 12.98899418 -0.73107771 15.5625 -0.6875 C16.24376953 -0.69910156 16.92503906 -0.71070313 17.62695312 -0.72265625 C22.5996417 -0.69343379 22.5996417 -0.69343379 24.82568359 0.9206543 C26.50829132 3.20870994 26.47186258 4.53502478 26.41796875 7.35546875 C26.4034668 8.69448242 26.4034668 8.69448242 26.38867188 10.06054688 C26.36353516 10.98931641 26.33839844 11.91808594 26.3125 12.875 C26.29219727 14.28555664 26.29219727 14.28555664 26.27148438 15.72460938 C26.23613096 18.04615038 26.18678674 20.36653653 26.125 22.6875 C24.805 22.3575 23.485 22.0275 22.125 21.6875 C21.465 19.3775 20.805 17.0675 20.125 14.6875 C17.815 14.3575 15.505 14.0275 13.125 13.6875 C12.795 16.3275 12.465 18.9675 12.125 21.6875 C10.145 21.3575 8.165 21.0275 6.125 20.6875 C5.795 21.3475 5.465 22.0075 5.125 22.6875 C-0.485 22.6875 -6.095 22.6875 -11.875 22.6875 C-12.205 15.4275 -12.535 8.1675 -12.875 0.6875 C-7.98338262 -0.01130248 -4.70029066 -0.43617656 0 0 Z " fill="#EFF3F7" transform="translate(160.875,34.3125)"/>
<path d="M0 0 C0.96808594 -0.00257812 1.93617188 -0.00515625 2.93359375 -0.0078125 C5.5625 0.125 5.5625 0.125 8.5625 1.125 C12.06817856 6.4831776 13.40197987 11.82890096 12.5625 18.125 C10.6875 21.125 10.6875 21.125 8.5625 23.125 C7.9025 23.125 7.2425 23.125 6.5625 23.125 C6.5625 24.115 6.5625 25.105 6.5625 26.125 C2.50714947 26.46932221 -1.39404345 26.65802556 -5.4375 26.125 C-10.38029609 20.95230642 -10.71833769 15.6355494 -10.6640625 8.796875 C-10.38846396 5.54671296 -9.57535316 3.59175364 -7.4375 1.125 C-4.84233479 -0.17258261 -2.89566973 -0.00769102 0 0 Z " fill="#9EA9B8" transform="translate(234.4375,96.875)"/>
<path d="M0 0 C4.48993966 0.02675769 8.15158027 0.33820234 12.3125 2.1875 C13.19584335 6.06117779 13.56786643 9.77908571 13.6875 13.75 C13.73648437 14.86503906 13.78546875 15.98007812 13.8359375 17.12890625 C13.3125 20.1875 13.3125 20.1875 11.2421875 22.5703125 C7.60097314 24.58026283 5.19865236 24.62546906 1.0625 24.5 C-0.18015625 24.47550781 -1.4228125 24.45101562 -2.703125 24.42578125 C-5.6875 24.1875 -5.6875 24.1875 -6.6875 23.1875 C-6.7866657 21.56492456 -6.81829777 19.93810169 -6.8203125 18.3125 C-6.82160156 17.32765625 -6.82289063 16.3428125 -6.82421875 15.328125 C-6.82035156 14.29171875 -6.81648438 13.2553125 -6.8125 12.1875 C-6.81830078 10.63289063 -6.81830078 10.63289063 -6.82421875 9.046875 C-6.82292969 8.06203125 -6.82164062 7.0771875 -6.8203125 6.0625 C-6.81918457 5.15242188 -6.81805664 4.24234375 -6.81689453 3.3046875 C-6.55443229 -0.9897891 -3.66980348 0.02256952 0 0 Z " fill="#A5B2C2" transform="translate(292.6875,32.8125)"/>
<path d="M0 0 C2.53515625 0.4609375 2.53515625 0.4609375 5.16015625 2.2109375 C8.15170563 7.10620013 8.22361063 12.8695715 7.53515625 18.4609375 C5.34388809 21.55893731 4.12459289 22.26445862 0.53515625 23.4609375 C-4.08924657 24.06713263 -7.42333652 24.05608449 -11.52734375 21.7109375 C-14.50211601 16.72099694 -14.3731997 12.11717076 -13.46484375 6.4609375 C-11.20150205 0.05011101 -6.08176309 -0.34378742 0 0 Z " fill="#9CA8B7" transform="translate(233.46484375,33.5390625)"/>
<path d="M0 0 C2.9375 2.4375 2.9375 2.4375 5 5 C5.33 5.33 5.66 5.66 6 6 C6.07244053 8.01964199 6.08377188 10.04167124 6.0625 12.0625 C6.05347656 13.16722656 6.04445312 14.27195312 6.03515625 15.41015625 C6.02355469 16.26480469 6.01195312 17.11945313 6 18 C5.34 18 4.68 18 4 18 C3.731875 18.61875 3.46375 19.2375 3.1875 19.875 C2 22 2 22 -1 24 C-3.04296875 24.1953125 -3.04296875 24.1953125 -5.1875 24.125 C-6.445625 24.08375 -7.70375 24.0425 -9 24 C-9 23.34 -9 22.68 -9 22 C-10.32 22 -11.64 22 -13 22 C-15.27742065 15.97153357 -15.68087187 10.28586405 -14 4 C-9.7573378 -0.44962133 -5.82114004 -0.83159143 0 0 Z " fill="#A1ABBD" transform="translate(227,66)"/>
<path d="M0 0 C2.5625 1.875 2.5625 1.875 4 5 C4.61681454 10.40714048 4.81797735 15.20943851 2 20 C1.34 20 0.68 20 0 20 C0 20.66 0 21.32 0 22 C-1.74965358 22.05429959 -3.49979787 22.09292823 -5.25 22.125 C-6.22453125 22.14820312 -7.1990625 22.17140625 -8.203125 22.1953125 C-11.07131887 21.99501963 -12.64420539 21.62228583 -15 20 C-17.08873978 14.88258754 -17.87217556 9.49896057 -17 4 C-12.8446435 -1.93622358 -6.50487052 -1.67097591 0 0 Z " fill="#A2AEBC" transform="translate(124,67)"/>
<path d="M0 0 C1.65 0 3.3 0 5 0 C5 5.94 5 11.88 5 18 C9.24836261 16.43920914 9.24836261 16.43920914 10.23046875 12.77734375 C10.70419922 10.87662109 10.70419922 10.87662109 11.1875 8.9375 C12.9400545 2.0599455 12.9400545 2.0599455 14 1 C15.99958364 0.95919217 18.00045254 0.95745644 20 1 C28 16.42857143 28 16.42857143 28 23 C26.35 23 24.7 23 23 23 C22.34 21.02 21.68 19.04 21 17 C16.93519238 17.18758975 16.93519238 17.18758975 13 18 C12.525625 18.804375 12.05125 19.60875 11.5625 20.4375 C10 23 10 23 7.86328125 23.80859375 C5.56422227 24.33192743 3.35025349 24.80336525 1 25 C0 24 0 24 -0.11352539 21.68334961 C-0.10828857 20.68311768 -0.10305176 19.68288574 -0.09765625 18.65234375 C-0.09443359 17.57275391 -0.09121094 16.49316406 -0.08789062 15.38085938 C-0.07951172 14.24455078 -0.07113281 13.10824219 -0.0625 11.9375 C-0.05798828 10.79732422 -0.05347656 9.65714844 -0.04882812 8.48242188 C-0.03699747 5.65489649 -0.0205141 2.8274736 0 0 Z " fill="#9DABBB" transform="translate(257,66)"/>
<path d="M0 0 C1.09054687 -0.00386719 1.09054687 -0.00386719 2.203125 -0.0078125 C5.40339288 0.15907263 8.57759179 0.67179883 11.75 1.125 C12.08 8.715 12.41 16.305 12.75 24.125 C10.77 24.125 8.79 24.125 6.75 24.125 C6.75 21.155 6.75 18.185 6.75 15.125 C4.11 15.125 1.47 15.125 -1.25 15.125 C-1.58 18.095 -1.91 21.065 -2.25 24.125 C-3.57 24.125 -4.89 24.125 -6.25 24.125 C-7.4763757 21.67224859 -7.36415314 20.0744219 -7.34765625 17.3359375 C-7.34443359 16.39492188 -7.34121094 15.45390625 -7.33789062 14.484375 C-7.32951172 13.49953125 -7.32113281 12.5146875 -7.3125 11.5 C-7.30798828 10.50742187 -7.30347656 9.51484375 -7.29882812 8.4921875 C-7.28702145 6.0363984 -7.270554 3.58072896 -7.25 1.125 C-4.49627511 0.2070917 -2.83933489 -0.00992774 0 0 Z " fill="#A2AFC1" transform="translate(271.25,32.875)"/>
<path d="M0 0 C2.4178712 -0.10826289 4.83087556 -0.18739789 7.25 -0.25 C8.27287109 -0.30027344 8.27287109 -0.30027344 9.31640625 -0.3515625 C12.75909352 -0.4184108 14.6473207 -0.25654485 17.46484375 1.79296875 C19.64906287 4.9331311 19.33984603 7.26169363 19 11 C18.67 11.99 18.34 12.98 18 14 C18.08461492 15.73324119 18.23604355 17.46392812 18.4375 19.1875 C18.53933594 20.08855469 18.64117187 20.98960938 18.74609375 21.91796875 C18.87177734 22.94857422 18.87177734 22.94857422 19 24 C16.69 23.67 14.38 23.34 12 23 C12 20.03 12 17.06 12 14 C9.69 14 7.38 14 5 14 C5 16.97 5 19.94 5 23 C3.35 23 1.7 23 0 23 C-0.1974877 19.91722144 -0.38123332 16.8337715 -0.5625 13.75 C-0.61857422 12.87730469 -0.67464844 12.00460938 -0.73242188 11.10546875 C-0.78076172 10.26113281 -0.82910156 9.41679688 -0.87890625 8.546875 C-0.9260376 7.77182617 -0.97316895 6.99677734 -1.02172852 6.19824219 C-0.99969234 3.96887415 -0.6303897 2.13101433 0 0 Z " fill="#9EADC0" transform="translate(120,98)"/>
<path d="M0 0 C3.125 2.25 3.125 2.25 5 5 C5 6.32 5 7.64 5 9 C3.35 9 1.7 9 0 9 C-0.66 7.68 -1.32 6.36 -2 5 C-5.06550592 5.98958997 -5.06550592 5.98958997 -8 8 C-9.04788921 11.9121197 -9.28347705 14.14956886 -8 18 C-5.62570704 18.25069913 -5.62570704 18.25069913 -3 18 C-2.505 17.484375 -2.01 16.96875 -1.5 16.4375 C-1.005 15.963125 -0.51 15.48875 0 15 C2.6875 15.3125 2.6875 15.3125 5 16 C5.3125 18.75 5.3125 18.75 5 22 C2.88972889 24.50594695 1.31357276 25.79190927 -1.97265625 26.3125 C-5.71078283 26.42429444 -9.05172764 26.402296 -12 24 C-13.04808041 22.02477154 -14.0520411 20.02518491 -15 18 C-15.66 17.67 -16.32 17.34 -17 17 C-17.33605497 11.62312047 -16.89032202 6.69138089 -14 2 C-9.74426505 -0.84331099 -4.92585054 -0.78781778 0 0 Z " fill="#92A1B6" transform="translate(215,97)"/>
<path d="M0 0 C2.59875 -0.061875 5.1975 -0.12375 7.875 -0.1875 C8.69210449 -0.21481201 9.50920898 -0.24212402 10.35107422 -0.27026367 C12.236076 -0.29217134 14.12076763 -0.14898777 16 0 C18.20914 3.31371 18.22481553 4.3446021 18.125 8.1875 C18.10695313 9.08855469 18.08890625 9.98960938 18.0703125 10.91796875 C18.04710937 11.60503906 18.02390625 12.29210937 18 13 C16.02 13.99 16.02 13.99 14 15 C14 15.66 14 16.32 14 17 C11.36 17 8.72 17 6 17 C6 19.64 6 22.28 6 25 C4.02 25 2.04 25 0 25 C0 16.75 0 8.5 0 0 Z " fill="#A0ADBD" transform="translate(250,97)"/>
<path d="M0 0 C2 2 2 2 2 5 C-2.29 5 -6.58 5 -11 5 C-11 6.32 -11 7.64 -11 9 C-7.37 9 -3.74 9 0 9 C0.33 10.65 0.66 12.3 1 14 C-0.66342837 15.66342837 -2.7825709 15.36048097 -5.0625 15.5625 C-5.98160156 15.64628906 -6.90070313 15.73007813 -7.84765625 15.81640625 C-8.55792969 15.87699219 -9.26820313 15.93757813 -10 16 C-10 17.32 -10 18.64 -10 20 C-6.04 20 -2.08 20 2 20 C2 21.65 2 23.3 2 25 C1.67 25.33 1.34 25.66 1 26 C-1.68217769 25.93529835 -4.32572676 25.80879885 -7 25.625 C-8.12535156 25.55925781 -8.12535156 25.55925781 -9.2734375 25.4921875 C-14.87159146 25.12840854 -14.87159146 25.12840854 -16 24 C-16.08713831 22.29227642 -16.10700007 20.58101351 -16.09765625 18.87109375 C-16.09443359 17.83662109 -16.09121094 16.80214844 -16.08789062 15.73632812 C-16.07951172 14.64771484 -16.07113281 13.55910156 -16.0625 12.4375 C-16.05798828 11.34501953 -16.05347656 10.25253906 -16.04882812 9.12695312 C-16.03699826 6.41791505 -16.02051543 3.70898401 -16 1 C-14.58221345 0.83566006 -13.16419896 0.67328589 -11.74609375 0.51171875 C-10.9564624 0.42108154 -10.16683105 0.33044434 -9.35327148 0.23706055 C-6.20222686 -0.08036495 -3.16192485 -0.19358724 0 0 Z " fill="#94A3B8" transform="translate(184,97)"/>
<path d="M0 0 C3.6196875 -0.0928125 3.6196875 -0.0928125 7.3125 -0.1875 C8.44619019 -0.22846802 8.44619019 -0.22846802 9.6027832 -0.27026367 C14.53883741 -0.33174125 14.53883741 -0.33174125 16.70507812 1.2265625 C18.37923423 3.51937357 18.34684886 4.84824274 18.29296875 7.66796875 C18.28330078 8.56064453 18.27363281 9.45332031 18.26367188 10.37304688 C18.23853516 11.30181641 18.21339844 12.23058594 18.1875 13.1875 C18.16719727 14.59805664 18.16719727 14.59805664 18.14648438 16.03710938 C18.11113096 18.35865038 18.06178674 20.67903653 18 23 C16.68 22.67 15.36 22.34 14 22 C13.34 19.69 12.68 17.38 12 15 C9.69 14.67 7.38 14.34 5 14 C4.67 16.64 4.34 19.28 4 22 C2.68 21.67 1.36 21.34 0 21 C0 14.07 0 7.14 0 0 Z " fill="#9CAABB" transform="translate(169,34)"/>
<path d="M0 0 C1.98 0 3.96 0 6 0 C6 6.27 6 12.54 6 19 C7.98 18.67 9.96 18.34 12 18 C13.1161656 14.28570102 13.3124195 10.60838492 13.5625 6.75 C13.64628906 5.48671875 13.73007813 4.2234375 13.81640625 2.921875 C13.87699219 1.95765625 13.93757812 0.9934375 14 0 C15.65 0 17.3 0 19 0 C19.24941254 3.06206477 19.47514145 6.12283083 19.6875 9.1875 C19.76033203 10.05181641 19.83316406 10.91613281 19.90820312 11.80664062 C20.15717666 15.62911671 20.19888464 18.4301051 18.92578125 22.078125 C17 24 17 24 13.96875 24.62890625 C12.25171875 24.59603516 12.25171875 24.59603516 10.5 24.5625 C9.3553125 24.56378906 8.210625 24.56507812 7.03125 24.56640625 C4 24 4 24 2.15625 22.15234375 C0.46623431 19.00640239 -0.1241005 16.50536662 -0.09765625 12.98828125 C-0.09443359 12.23095703 -0.09121094 11.47363281 -0.08789062 10.69335938 C-0.07951172 9.90767578 -0.07113281 9.12199219 -0.0625 8.3125 C-0.05798828 7.51521484 -0.05347656 6.71792969 -0.04882812 5.89648438 C-0.0370585 3.93095743 -0.01912348 1.96546915 0 0 Z " fill="#9EAABD" transform="translate(144,98)"/>
<path d="M0 0 C0.99 0.33 1.98 0.66 3 1 C4.48882438 5.07467725 5.26270217 8.66541415 5 13 C5.99 13 6.98 13 8 13 C8.09087891 12.09507813 8.09087891 12.09507813 8.18359375 11.171875 C8.26738281 10.37265625 8.35117188 9.5734375 8.4375 8.75 C8.51871094 7.96109375 8.59992188 7.1721875 8.68359375 6.359375 C8.97634993 4.17635361 9.42064419 2.1226818 10 0 C11.32 0 12.64 0 14 0 C13.24420087 7.80992437 11.94856596 15.39711317 10 23 C8.35 23 6.7 23 5 23 C4.87882812 22.38511719 4.75765625 21.77023438 4.6328125 21.13671875 C4.46523437 20.32847656 4.29765625 19.52023438 4.125 18.6875 C3.96257812 17.88699219 3.80015625 17.08648437 3.6328125 16.26171875 C3.05521001 13.74698882 3.05521001 13.74698882 1 11 C0.72285156 11.62648438 0.44570312 12.25296875 0.16015625 12.8984375 C-0.38318359 14.12433594 -0.38318359 14.12433594 -0.9375 15.375 C-1.29714844 16.18710937 -1.65679687 16.99921875 -2.02734375 17.8359375 C-2.6569903 19.23683785 -3.31312642 20.62625284 -4 22 C-6.40928735 21.03628506 -7.76007009 20.34789837 -9.25 18.1875 C-10.11081611 15.67678635 -10.14647297 13.63651351 -10 11 C-10.66 11 -11.32 11 -12 11 C-12 7.7 -12 4.4 -12 1 C-10.02 1.99 -10.02 1.99 -8 3 C-7.390625 5.3828125 -7.390625 5.3828125 -7.25 8.125 C-7.19328125 9.03507812 -7.1365625 9.94515625 -7.078125 10.8828125 C-7.05234375 11.58148438 -7.0265625 12.28015625 -7 13 C-6.34 13 -5.68 13 -5 13 C-4.80664062 12.31292969 -4.61328125 11.62585937 -4.4140625 10.91796875 C-4.15367188 10.01691406 -3.89328125 9.11585937 -3.625 8.1875 C-3.24214844 6.84751953 -3.24214844 6.84751953 -2.8515625 5.48046875 C-2 3 -2 3 0 0 Z " fill="#A7B3C6" transform="translate(95,34)"/>
<path d="M0 0 C-0.55751312 3.63650605 -1.49533596 6.05972882 -3.5 9.125 C-6.50821132 14.26583376 -6.87931971 19.13054944 -7 25 C-11.75 26.125 -11.75 26.125 -14 25 C-14.2734375 22.7421875 -14.2734375 22.7421875 -14.375 19.875 C-14.76244921 14.45071108 -15.93919233 11.45208389 -19 7 C-21 4 -21 4 -21 0 C-19.02 0 -17.04 0 -15 0 C-13.68 2.31 -12.36 4.62 -11 7 C-10.566875 5.865625 -10.13375 4.73125 -9.6875 3.5625 C-9.130625 2.386875 -8.57375 1.21125 -8 0 C-4.71023192 -1.09658936 -3.28696233 -0.79953138 0 0 Z " fill="#9AA7BA" transform="translate(292,97)"/>
<path d="M0 0 C1.299375 0.02900391 1.299375 0.02900391 2.625 0.05859375 C3.49125 0.05988281 4.3575 0.06117187 5.25 0.0625 C7.625 0.49609375 7.625 0.49609375 9.4375 1.7734375 C10.625 3.49609375 10.625 3.49609375 10.625 7.49609375 C9.635 7.49609375 8.645 7.49609375 7.625 7.49609375 C7.625 6.83609375 7.625 6.17609375 7.625 5.49609375 C4.985 5.49609375 2.345 5.49609375 -0.375 5.49609375 C-0.375 6.81609375 -0.375 8.13609375 -0.375 9.49609375 C0.8625 9.61984375 2.1 9.74359375 3.375 9.87109375 C6.83172799 10.21676655 8.31390596 10.84054673 11.625 12.49609375 C11.625 15.46609375 11.625 18.43609375 11.625 21.49609375 C10.305 21.82609375 8.985 22.15609375 7.625 22.49609375 C7.625 23.15609375 7.625 23.81609375 7.625 24.49609375 C4.22475479 24.8465007 1.01157418 25.02690475 -2.375 24.49609375 C-6.375 20.11514137 -6.375 20.11514137 -6.375 16.49609375 C-4.395 16.49609375 -2.415 16.49609375 -0.375 16.49609375 C-0.375 17.81609375 -0.375 19.13609375 -0.375 20.49609375 C1.935 19.83609375 4.245 19.17609375 6.625 18.49609375 C6.625 17.83609375 6.625 17.17609375 6.625 16.49609375 C5.3875 16.06296875 4.15 15.62984375 2.875 15.18359375 C-3.31586022 12.81262601 -3.31586022 12.81262601 -5.375 10.49609375 C-5.86971201 7.17445594 -5.81316258 5.27661487 -4.16015625 2.33203125 C-2.375 0.49609375 -2.375 0.49609375 0 0 Z " fill="#9AA6B8" transform="translate(241.375,65.50390625)"/>
<path d="M0 0 C1.98 0 3.96 0 6 0 C8.28468879 4.24299346 9.90401958 8.47077158 11.3515625 13.046875 C11.96403589 15.04691317 11.96403589 15.04691317 13 17 C13.039992 18.99960012 13.04346799 21.00047242 13 23 C11.68 23 10.36 23 9 23 C7 20 7 20 7 17 C3.59919423 17.10407917 3.59919423 17.10407917 0 18 C-1.99083177 20.4251788 -1.99083177 20.4251788 -3 23 C-3.99 22.67 -4.98 22.34 -6 22 C-5.22225866 16.94468132 -4.14051606 11.98283716 -3 7 C-2.34 7 -1.68 7 -1 7 C-0.67 4.69 -0.34 2.38 0 0 Z " fill="#9BAABD" transform="translate(249,34)"/>
<path d="M0 0 C12.39910537 -0.36829026 12.39910537 -0.36829026 14.9375 1.1875 C16.41872349 3.71429302 16.09739191 5.31825666 15.6875 8.1875 C15.50767578 9.53908203 15.50767578 9.53908203 15.32421875 10.91796875 C15.21722656 11.60503906 15.11023438 12.29210938 15 13 C14.34 13 13.68 13 13 13 C13 10.03 13 7.06 13 4 C10.03 4 7.06 4 4 4 C4.33 5.98 4.66 7.96 5 10 C6.65 10.33 8.3 10.66 10 11 C10 11.33 10 11.66 10 12 C8.35 12 6.7 12 5 12 C5 14.31 5 16.62 5 19 C7.64 19 10.28 19 13 19 C13 18.34 13 17.68 13 17 C13.66 17 14.32 17 15 17 C15 16.34 15 15.68 15 15 C15.66 15 16.32 15 17 15 C17.04241723 17.33294775 17.04092937 19.66702567 17 22 C16 23 16 23 12.40234375 23.09765625 C10.91402745 23.09191272 9.42573704 23.07889891 7.9375 23.0625 C5.318125 23.041875 2.69875 23.02125 0 23 C0 15.41 0 7.82 0 0 Z " fill="#99A4B7" transform="translate(200,34)"/>
<path d="M0 0 C1.08667969 0.11085938 2.17335937 0.22171875 3.29296875 0.3359375 C4.12441406 0.43132812 4.95585937 0.52671875 5.8125 0.625 C5.8125 1.285 5.8125 1.945 5.8125 2.625 C6.8025 2.955 7.7925 3.285 8.8125 3.625 C8.4825 4.945 8.1525 6.265 7.8125 7.625 C5.4375 7.3125 5.4375 7.3125 2.8125 6.625 C2.1525 5.635 1.4925 4.645 0.8125 3.625 C-1.35624252 4.13103992 -3.18717627 4.62483813 -5.1875 5.625 C-6.19726752 10.6738376 -6.67645013 13.9399174 -4.1875 18.625 C-1.81444422 19.04280879 -1.81444422 19.04280879 0.8125 18.625 C1.84263277 16.97678756 2.84364628 15.30996298 3.8125 13.625 C5.1325 13.625 6.4525 13.625 7.8125 13.625 C7.51349803 16.91402165 7.08783915 19.18904634 5.3125 22 C2.08490964 24.09793373 -0.26403273 24.24603073 -4.0625 24.08984375 C-6.1875 23.625 -6.1875 23.625 -8.6875 21.25 C-10.81444276 17.52785016 -11.3462129 15.54503519 -11.375 11.25 C-11.38917969 10.29351562 -11.40335938 9.33703125 -11.41796875 8.3515625 C-11.17959647 5.53149717 -10.74201691 3.96968663 -9.1875 1.625 C-5.54331659 -0.80445561 -4.25826636 -0.4578781 0 0 Z " fill="#9DAAC0" transform="translate(201.1875,66.375)"/>
<path d="M0 0 C2.35546875 0.203125 2.35546875 0.203125 5 1 C6.36328125 3.109375 6.36328125 3.109375 7.3125 5.75 C7.63863281 6.61109375 7.96476562 7.4721875 8.30078125 8.359375 C9.00767217 11.02897424 9.13341722 13.25259347 9 16 C9.66 16 10.32 16 11 16 C11 17.98 11 19.96 11 22 C10.01 22 9.02 22 8 22 C7.67 20.35 7.34 18.7 7 17 C4.03 17 1.06 17 -2 17 C-2.33 18.98 -2.66 20.96 -3 23 C-4.32 23 -5.64 23 -7 23 C-7.77441724 14.99768848 -3.28644823 7.05668833 0 0 Z " fill="#A0ADBC" transform="translate(117,34)"/>
<path d="M0 0 C1.875 0.875 1.875 0.875 3.875 3.875 C5.195 3.875 6.515 3.875 7.875 3.875 C7.875 2.555 7.875 1.235 7.875 -0.125 C8.535 -0.125 9.195 -0.125 9.875 -0.125 C9.875 0.535 9.875 1.195 9.875 1.875 C10.535 1.875 11.195 1.875 11.875 1.875 C11.875 5.835 11.875 9.795 11.875 13.875 C10.555 14.205 9.235 14.535 7.875 14.875 C7.875 13.555 7.875 12.235 7.875 10.875 C5.96033633 10.99677688 5.96033633 10.99677688 3.875 11.875 C3.400625 12.720625 2.92625 13.56625 2.4375 14.4375 C1.921875 15.241875 1.40625 16.04625 0.875 16.875 C-1.8125 17.1875 -1.8125 17.1875 -4.125 16.875 C-6.30777817 13.38255493 -7.40990893 10.77333111 -7.0625 6.6875 C-6.125 2.875 -6.125 2.875 -4.3125 0.8125 C-2.125 -0.125 -2.125 -0.125 0 0 Z " fill="#F4F7F9" transform="translate(201.125,69.125)"/>
<path d="M0 0 C0.99 0 1.98 0 3 0 C3.33 0.66 3.66 1.32 4 2 C4.99 2.33 5.98 2.66 7 3 C8.23690014 6.71070041 8.56264919 10.14397754 8 14 C6.125 17 6.125 17 4 19 C3.34 19 2.68 19 2 19 C2 19.99 2 20.98 2 22 C-2.0555789 22.34434161 -5.95365451 22.50579319 -10 22 C-12.90768419 19.35665074 -13.82656711 17.72813485 -14.21875 13.8203125 C-14.24638384 11.87903524 -14.13357747 9.93687327 -14 8 C-13.01 7.67 -12.02 7.34 -11 7 C-11 8.98 -11 10.96 -11 13 C-10.01 13 -9.02 13 -8 13 C-8 13.66 -8 14.32 -8 15 C-7.34 15 -6.68 15 -6 15 C-6 15.66 -6 16.32 -6 17 C-2.83884224 15.63016497 -2.0072908 15.0109362 0 12 C0.66 12 1.32 12 2 12 C2 9.03 2 6.06 2 3 C1.34 2.67 0.68 2.34 0 2 C0 1.34 0 0.68 0 0 Z " fill="#9CAABA" transform="translate(239,101)"/>
<path d="M0 0 C1.32 0 2.64 0 4 0 C4.33 1.32 4.66 2.64 5 4 C5.66 4 6.32 4 7 4 C7.33 5.32 7.66 6.64 8 8 C8.66 8 9.32 8 10 8 C10.33 8.99 10.66 9.98 11 11 C11.66 11.33 12.32 11.66 13 12 C13 8.04 13 4.08 13 0 C14.32 0 15.64 0 17 0 C17 6.93 17 13.86 17 21 C12 20 12 20 10.5234375 18.546875 C9.95496094 17.65742187 9.95496094 17.65742187 9.375 16.75 C8.96378906 16.12351562 8.55257812 15.49703125 8.12890625 14.8515625 C7.17416256 13.28565071 6.24088002 11.70668448 5.3125 10.125 C4.17648881 7.86909053 4.17648881 7.86909053 2 7 C2.33 7.66 2.66 8.32 3 9 C3.07065617 11.04055005 3.08421976 13.08334257 3.0625 15.125 C3.05347656 16.22070312 3.04445312 17.31640625 3.03515625 18.4453125 C3.02355469 19.28835937 3.01195312 20.13140625 3 21 C2.01 21 1.02 21 0 21 C0 14.07 0 7.14 0 0 Z " fill="#A0ADBD" transform="translate(160,67)"/>
<path d="M0 0 C3.5 0.4375 3.5 0.4375 5.20703125 1.609375 C7.02006871 4.17282373 6.7970161 6.02204373 6.6875 9.125 C6.66042969 10.11886719 6.63335937 11.11273438 6.60546875 12.13671875 C6.57066406 12.89597656 6.53585938 13.65523437 6.5 14.4375 C5.84 14.4375 5.18 14.4375 4.5 14.4375 C4.17 15.4275 3.84 16.4175 3.5 17.4375 C0.21303767 18.23703138 -1.21023192 18.53408936 -4.5 17.4375 C-6.8001478 13.9872783 -7.51888282 11.9851019 -7.375 7.8125 C-6.05131837 2.70687087 -5.47563778 0.68445472 0 0 Z " fill="#F4F7F8" transform="translate(117.5,68.5625)"/>
<path d="M0 0 C0.86496094 0.10183594 1.72992188 0.20367187 2.62109375 0.30859375 C3.58208984 0.43427734 3.58208984 0.43427734 4.5625 0.5625 C4.5625 1.5525 4.5625 2.5425 4.5625 3.5625 C0.2725 3.5625 -4.0175 3.5625 -8.4375 3.5625 C-8.4375 5.2125 -8.4375 6.8625 -8.4375 8.5625 C-4.8075 8.5625 -1.1775 8.5625 2.5625 8.5625 C2.8925 9.8825 3.2225 11.2025 3.5625 12.5625 C-0.3975 12.5625 -4.3575 12.5625 -8.4375 12.5625 C-8.4375 14.8725 -8.4375 17.1825 -8.4375 19.5625 C-4.1475 19.5625 0.1425 19.5625 4.5625 19.5625 C4.5625 20.5525 4.5625 21.5425 4.5625 22.5625 C-0.7175 22.5625 -5.9975 22.5625 -11.4375 22.5625 C-11.7675 15.3025 -12.0975 8.0425 -12.4375 0.5625 C-4.5625 -0.5625 -4.5625 -0.5625 0 0 Z " fill="#A2AEBF" transform="translate(160.4375,34.4375)"/>
<path d="M0 0 C2.56459694 0.90515186 4.12830309 1.89298971 6.125 3.75 C6.65625 6.125 6.65625 6.125 6.625 8.75 C6.6353125 9.61625 6.645625 10.4825 6.65625 11.375 C6.125 13.75 6.125 13.75 4.25390625 15.5390625 C1.61339721 17.04100342 0.11846472 17.21053303 -2.875 16.75 C-5.02582397 15.10555934 -5.78389521 14.15266928 -6.38671875 11.48828125 C-6.44472656 10.68777344 -6.50273437 9.88726562 -6.5625 9.0625 C-6.62824219 8.25425781 -6.69398438 7.44601563 -6.76171875 6.61328125 C-6.79910156 5.99839844 -6.83648437 5.38351563 -6.875 4.75 C-6.215 4.75 -5.555 4.75 -4.875 4.75 C-4.75125 4.110625 -4.6275 3.47125 -4.5 2.8125 C-4.29375 2.131875 -4.0875 1.45125 -3.875 0.75 C-1.875 -0.25 -1.875 -0.25 0 0 Z " fill="#F4F7F8" transform="translate(222.875,69.25)"/>
<path d="M0 0 C3.375 0.875 3.375 0.875 5.375 2.875 C5.64491906 5.56339385 5.46237357 8.16641936 5.375 10.875 C4.715 10.875 4.055 10.875 3.375 10.875 C3.16875 11.514375 2.9625 12.15375 2.75 12.8125 C1.375 14.875 1.375 14.875 -1.75 15.625 C-3.173125 15.74875 -3.173125 15.74875 -4.625 15.875 C-7.59168302 11.79581084 -8.26358096 8.89242187 -7.625 3.875 C-5.32929152 0.20186643 -4.36360172 -0.15046902 0 0 Z " fill="#F2F7F7" transform="translate(231.625,38.125)"/>
<path d="M0 0 C3.3 0 6.6 0 10 0 C10.33 0.66 10.66 1.32 11 2 C9.02 2.33 7.04 2.66 5 3 C5.33 8.28 5.66 13.56 6 19 C8.31 19 10.62 19 13 19 C12.67 20.32 12.34 21.64 12 23 C10.18757948 23.02687279 8.37504767 23.04633715 6.5625 23.0625 C5.55316406 23.07410156 4.54382813 23.08570312 3.50390625 23.09765625 C1 23 1 23 0 22 C-0.08700342 20.36527118 -0.10701063 18.72685945 -0.09765625 17.08984375 C-0.09443359 16.10048828 -0.09121094 15.11113281 -0.08789062 14.09179688 C-0.07951172 13.05087891 -0.07113281 12.00996094 -0.0625 10.9375 C-0.05798828 9.89271484 -0.05347656 8.84792969 -0.04882812 7.77148438 C-0.03699927 5.18096546 -0.01906319 2.59047578 0 0 Z " fill="#909FB1" transform="translate(286,34)"/>
<path d="M0 0 C0.33 0 0.66 0 1 0 C0.98839844 0.63808594 0.97679687 1.27617188 0.96484375 1.93359375 C0.95582031 2.75988281 0.94679687 3.58617187 0.9375 4.4375 C0.92589844 5.26121094 0.91429687 6.08492187 0.90234375 6.93359375 C0.76732652 8.99163938 0.76732652 8.99163938 2 10 C2.04080783 11.99958364 2.04254356 14.00045254 2 16 C1.67 14.68 1.34 13.36 1 12 C0.34 12 -0.32 12 -1 12 C-1 12.66 -1 13.32 -1 14 C-1.66 14 -2.32 14 -3 14 C-3 14.66 -3 15.32 -3 16 C-5.64 16 -8.28 16 -11 16 C-10.96744792 13.94921875 -10.93489583 11.8984375 -10.90234375 9.84765625 C-10.79438816 7.98267859 -10.79438816 7.98267859 -12 7 C-12.04080783 5.00041636 -12.04254356 2.99954746 -12 1 C-9.03 1 -6.06 1 -3 1 C-2.15545644 4.37817425 -1.89155081 6.67465243 -3 10 C-2.34 10 -1.68 10 -1 10 C-0.67 6.7 -0.34 3.4 0 0 Z " fill="#A8B4C3" transform="translate(216,37)"/>
<path d="M0 0 C4.62 0 9.24 0 14 0 C14 0.66 14 1.32 14 2 C14.99 2 15.98 2 17 2 C17 5.3 17 8.6 17 12 C14.09399739 13.25664978 12.20395416 14 9 14 C9 13.34 9 12.68 9 12 C9.66 12 10.32 12 11 12 C11 9.69 11 7.38 11 5 C8.03 4.505 8.03 4.505 5 4 C5 6.97 5 9.94 5 13 C4.01 12.67 3.02 12.34 2 12 C1.01 12.495 1.01 12.495 0 13 C0 8.71 0 4.42 0 0 Z " fill="#8E9BB1" transform="translate(251,98)"/>
<path d="M0 0 C5.78591511 -0.10477512 11.29309366 0.00749455 17 1 C16.67 1.66 16.34 2.32 16 3 C14.68 3.33 13.36 3.66 12 4 C11.67 10.27 11.34 16.54 11 23 C9.68 23 8.36 23 7 23 C6.66440045 20.39610703 6.33143142 17.7919239 6 15.1875 C5.90460938 14.44951172 5.80921875 13.71152344 5.7109375 12.95117188 C5.33015323 9.94569605 5 7.03285559 5 4 C3.35 4 1.7 4 0 4 C0 2.68 0 1.36 0 0 Z " fill="#95A0B4" transform="translate(98,98)"/>
<path d="M0 0 C1.93875 -0.020625 3.8775 -0.04125 5.875 -0.0625 C6.96554688 -0.07410156 8.05609375 -0.08570313 9.1796875 -0.09765625 C12 0 12 0 14 1 C14 1.66 14 2.32 14 3 C14.66 3 15.32 3 16 3 C16 3.66 16 4.32 16 5 C12.37 5 8.74 5 5 5 C4.67 10.61 4.34 16.22 4 22 C2.68 21.67 1.36 21.34 0 21 C0 14.07 0 7.14 0 0 Z " fill="#95A3B7" transform="translate(169,34)"/>
<path d="M0 0 C1.65 0 3.3 0 5 0 C5 5.94 5 11.88 5 18 C5.99 18.33 6.98 18.66 8 19 C7.6875 20.875 7.6875 20.875 7 23 C6.01 23.66 5.02 24.32 4 25 C2.68 24.67 1.36 24.34 0 24 C0 16.08 0 8.16 0 0 Z " fill="#CAD3DC" transform="translate(257,66)"/>
<path d="M0 0 C6.93 0.495 6.93 0.495 14 1 C14 1.66 14 2.32 14 3 C11.36 3.33 8.72 3.66 6 4 C5.17648136 10.38226945 4.87913782 16.56744599 5 23 C3.35 23 1.7 23 0 23 C-0.1974877 19.91722144 -0.38123332 16.8337715 -0.5625 13.75 C-0.61857422 12.87730469 -0.67464844 12.00460938 -0.73242188 11.10546875 C-0.78076172 10.26113281 -0.82910156 9.41679688 -0.87890625 8.546875 C-0.9260376 7.77182617 -0.97316895 6.99677734 -1.02172852 6.19824219 C-1 4 -1 4 0 0 Z " fill="#94A1B5" transform="translate(120,98)"/>
<path d="M0 0 C6.25201072 0.58981233 6.25201072 0.58981233 8.9375 2.0625 C10.69959328 5.27572893 10.17782537 8.3842174 10 12 C9.34 12 8.68 12 8 12 C8 12.99 8 13.98 8 15 C5.69 15 3.38 15 1 15 C-0.44207941 12.11584117 -0.09394887 9.58278472 -0.0625 6.375 C-0.05347656 5.18648437 -0.04445313 3.99796875 -0.03515625 2.7734375 C-0.02355469 1.85820313 -0.01195312 0.94296875 0 0 Z " fill="#EFF3F6" transform="translate(291,37)"/>
<path d="M0 0 C1.59139373 3.48117378 2.5746023 6.16931801 2 10 C0.1875 12.8125 0.1875 12.8125 -2 15 C-2.99 15 -3.98 15 -5 15 C-5 14.34 -5 13.68 -5 13 C-5.66 13 -6.32 13 -7 13 C-8.17051429 10.65897141 -8.1992246 9.10647047 -8.25 6.5 C-8.27578125 5.7059375 -8.3015625 4.911875 -8.328125 4.09375 C-8.21984375 3.4028125 -8.1115625 2.711875 -8 2 C-4.77208445 -0.1519437 -3.71599191 -0.20086443 0 0 Z " fill="#F0F4F7" transform="translate(238,103)"/>
<path d="M0 0 C1.43655854 -0.08131463 2.8744483 -0.13933559 4.3125 -0.1875 C5.51326172 -0.23970703 5.51326172 -0.23970703 6.73828125 -0.29296875 C9.47851584 0.06198392 10.29171079 0.89366282 12 3 C5.375 4 5.375 4 2 4 C2 6.64 2 9.28 2 12 C4.31 12 6.62 12 9 12 C8.67 12.66 8.34 13.32 8 14 C4.9375 14.625 4.9375 14.625 2 15 C1.67 17.64 1.34 20.28 1 23 C0.34 22.67 -0.32 22.34 -1 22 C-0.67 21.34 -0.34 20.68 0 20 C-0.66 20 -1.32 20 -2 20 C-2 14.06 -2 8.12 -2 2 C-1.34 2 -0.68 2 0 2 C0 1.34 0 0.68 0 0 Z " fill="#8F9EB2" transform="translate(267,33)"/>
<path d="M0 0 C5.77759884 -0.12036664 11.27959989 0.1679418 17 1 C17 1.99 17 2.98 17 4 C14.69 4 12.38 4 10 4 C10 10.27 10 16.54 10 23 C9.34 23 8.68 23 8 23 C6.73417781 19.13276369 6.8881235 15.26848738 6.9375 11.25 C6.94201172 10.55261719 6.94652344 9.85523438 6.95117188 9.13671875 C6.9628998 7.42444197 6.98083347 5.71220967 7 4 C4.69 4 2.38 4 0 4 C0 2.68 0 1.36 0 0 Z " fill="#9DA9B8" transform="translate(128,34)"/>
<path d="M0 0 C1.65 0 3.3 0 5 0 C5 1.98 5 3.96 5 6 C7.64 6 10.28 6 13 6 C13 5.34 13 4.68 13 4 C13.66 4 14.32 4 15 4 C15 3.34 15 2.68 15 2 C15.66 2 16.32 2 17 2 C17.04241723 4.33294775 17.04092937 6.66702567 17 9 C16 10 16 10 12.40234375 10.09765625 C10.91403133 10.0909822 9.42573568 10.07902183 7.9375 10.0625 C6.79958008 10.05573242 6.79958008 10.05573242 5.63867188 10.04882812 C3.75908129 10.0370068 1.87953101 10.01907078 0 10 C0 6.7 0 3.4 0 0 Z " fill="#AFBAC9" transform="translate(200,47)"/>
<path d="M0 0 C1.32 0 2.64 0 4 0 C4 2.97 4 5.94 4 9 C6.97 9 9.94 9 13 9 C13 9.99 13 10.98 13 12 C9.7 12 6.4 12 3 12 C3 14.97 3 17.94 3 21 C2.01 21 1.02 21 0 21 C-0.19592461 17.68794116 -0.38032746 14.37534146 -0.5625 11.0625 C-0.61857422 10.11697266 -0.67464844 9.17144531 -0.73242188 8.19726562 C-0.78076172 7.29814453 -0.82910156 6.39902344 -0.87890625 5.47265625 C-0.9260376 4.64000244 -0.97316895 3.80734863 -1.02172852 2.94946289 C-1 1 -1 1 0 0 Z " fill="#98A4B5" transform="translate(132,67)"/>
<path d="M0 0 C0 1.65 0 3.3 0 5 C2.88019276 6.46652017 5.79308515 7.82047874 8.75 9.125 C9.94882813 9.65480469 9.94882813 9.65480469 11.171875 10.1953125 C11.77515625 10.46085937 12.3784375 10.72640625 13 11 C12.34 12.32 11.68 13.64 11 15 C9.02 15 7.04 15 5 15 C5 13.68 5 12.36 5 11 C2.36 11.33 -0.28 11.66 -3 12 C-3 8.37 -3 4.74 -3 1 C-1 0 -1 0 0 0 Z " fill="#E8EEF3" transform="translate(236,71)"/>
<path d="M0 0 C1.65 0.33 3.3 0.66 5 1 C5.66 3.64 6.32 6.28 7 9 C6.34 9 5.68 9 5 9 C5 10.65 5 12.3 5 14 C2.03 13.505 2.03 13.505 -1 13 C-1 11.68 -1 10.36 -1 9 C-1.66 9 -2.32 9 -3 9 C-2.44271087 5.65626525 -1.64826111 2.96687001 0 0 Z " fill="#A6B2C1" transform="translate(117,34)"/>
<path d="M0 0 C1.4540625 0.0309375 1.4540625 0.0309375 2.9375 0.0625 C4.3981285 2.70988916 4.9375 3.95698334 4.9375 7.0625 C3.9475 7.0625 2.9575 7.0625 1.9375 7.0625 C1.9375 9.0425 1.9375 11.0225 1.9375 13.0625 C0.6175 13.0625 -0.7025 13.0625 -2.0625 13.0625 C-2.0625 11.4125 -2.0625 9.7625 -2.0625 8.0625 C-3.0525 8.3925 -4.0425 8.7225 -5.0625 9.0625 C-4.06477273 0.08295455 -4.06477273 0.08295455 0 0 Z " fill="#95A2B4" transform="translate(274.0625,66.9375)"/>
<path d="M0 0 C9.85626008 -0.61176787 9.85626008 -0.61176787 13.6875 1.4375 C15.63782589 5.24527911 15.32270729 8.8048052 15 13 C14.34 13 13.68 13 13 13 C12.7525 12.05125 12.505 11.1025 12.25 10.125 C11.28980842 7.02072397 11.28980842 7.02072397 9.3125 5.5625 C6.03559888 4.76541594 3.27730347 5.36974933 0 6 C0 4.02 0 2.04 0 0 Z " fill="#94A1B1" transform="translate(225,34)"/>
<path d="M0 0 C1.32 0 2.64 0 4 0 C4 6.93 4 13.86 4 21 C2.68 21 1.36 21 0 21 C0 14.07 0 7.14 0 0 Z " fill="#9CA9BF" transform="translate(182,67)"/>
<path d="M0 0 C1.98 0 3.96 0 6 0 C6 5.94 6 11.88 6 18 C5.67 18 5.34 18 5 18 C5 15.36 5 12.72 5 10 C4.34 10 3.68 10 3 10 C2.67 13.3 2.34 16.6 2 20 C-0.03120707 16.95318939 -0.24659875 16.39881676 -0.1953125 12.98828125 C-0.18886719 12.23095703 -0.18242187 11.47363281 -0.17578125 10.69335938 C-0.15902344 9.90767578 -0.14226562 9.12199219 -0.125 8.3125 C-0.11597656 7.51521484 -0.10695312 6.71792969 -0.09765625 5.89648438 C-0.07411585 3.930861 -0.03824547 1.96539225 0 0 Z " fill="#A6B3C4" transform="translate(144,98)"/>
<path d="M0 0 C4.86661418 -0.19466457 8.42690944 0.40473585 13 2 C13.66 1.67 14.32 1.34 15 1 C15 8.59 15 16.18 15 24 C14.67 24 14.34 24 14 24 C13.93941406 22.95199219 13.87882812 21.90398437 13.81640625 20.82421875 C13.73198262 19.44529952 13.64733553 18.06639395 13.5625 16.6875 C13.50352539 15.65206055 13.50352539 15.65206055 13.44335938 14.59570312 C13.25072585 11.52838465 12.97677283 8.93031848 12 6 C9.69 6 7.38 6 5 6 C5 11.94 5 17.88 5 24 C4.67 24 4.34 24 4 24 C4 17.73 4 11.46 4 5 C5.65 4.34 7.3 3.68 9 3 C4.545 2.01 4.545 2.01 0 1 C0 0.67 0 0.34 0 0 Z " fill="#D2DCE8" transform="translate(105,97)"/>
<path d="M0 0 C0.99 0.99 1.98 1.98 3 3 C3.66 2.01 4.32 1.02 5 0 C5 6.6 5 13.2 5 20 C5.99 20.33 6.98 20.66 8 21 C6.68 21 5.36 21 4 21 C3.67 19.35 3.34 17.7 3 16 C2.34 16 1.68 16 1 16 C0.67 16.66 0.34 17.32 0 18 C0 12.06 0 6.12 0 0 Z " fill="#E7EEF3" transform="translate(177,68)"/>
<path d="M0 0 C0.98484375 0.02707031 1.9696875 0.05414063 2.984375 0.08203125 C3.73203125 0.11683594 4.4796875 0.15164062 5.25 0.1875 C4.92 1.5075 4.59 2.8275 4.25 4.1875 C0.95 4.8475 -2.35 5.5075 -5.75 6.1875 C-6.08 7.5075 -6.41 8.8275 -6.75 10.1875 C-7.74 9.8575 -8.73 9.5275 -9.75 9.1875 C-10 6.375 -10 6.375 -9.75 3.1875 C-6.67156872 0.05098511 -4.28465811 -0.1530235 0 0 Z " fill="#9DA6B8" transform="translate(234.75,96.8125)"/>
<path d="M0 0 C0.66 0 1.32 0 2 0 C2.70132913 6.70019789 3.11044961 13.26257354 3 20 C0.625 19.6875 0.625 19.6875 -2 19 C-4 16 -4 16 -4 12 C-2.68 12 -1.36 12 0 12 C0 8.04 0 4.08 0 0 Z " fill="#95A4B9" transform="translate(174,68)"/>
<path d="M0 0 C1.65 0 3.3 0 5 0 C5.474375 0.969375 5.94875 1.93875 6.4375 2.9375 C7.70193947 5.80477437 7.70193947 5.80477437 9 7 C9.04080783 8.99958364 9.04254356 11.00045254 9 13 C7.35 13.33 5.7 13.66 4 14 C3.67 11.03 3.34 8.06 3 5 C2.01 5 1.02 5 0 5 C0 3.35 0 1.7 0 0 Z " fill="#929FB2" transform="translate(250,34)"/>
<path d="M0 0 C0.33 0.99 0.66 1.98 1 3 C0.34 3 -0.32 3 -1 3 C-1.33 3.66 -1.66 4.32 -2 5 C-2.33 4.01 -2.66 3.02 -3 2 C-6.36852515 1.9434891 -6.36852515 1.9434891 -10 3 C-11.8544092 5.2231534 -12.78559244 7.32830337 -14 10 C-14.99 9.67 -15.98 9.34 -17 9 C-16.9375 5.6875 -16.9375 5.6875 -16 2 C-10.62179883 -1.58546744 -6.18567471 -1.16419728 0 0 Z " fill="#B3BAC7" transform="translate(124,67)"/>
<path d="M0 0 C0.99 0 1.98 0 3 0 C3.103125 0.763125 3.20625 1.52625 3.3125 2.3125 C4.04364039 5.17059424 4.76951913 6.15742885 7 8 C5.02 8 3.04 8 1 8 C0.67 9.98 0.34 11.96 0 14 C-1.32 14 -2.64 14 -4 14 C-3.36843005 8.94744036 -1.86540627 4.70406799 0 0 Z " fill="#98A6B5" transform="translate(247,42)"/>
<path d="M0 0 C0.99 0 1.98 0 3 0 C3 7.26 3 14.52 3 22 C2.01 21.67 1.02 21.34 0 21 C0 14.07 0 7.14 0 0 Z " fill="#95A2B3" transform="translate(258,67)"/>
<path d="M0 0 C1.32 0.66 2.64 1.32 4 2 C4 3.65 4 5.3 4 7 C4.66 7 5.32 7 6 7 C6 8.98 6 10.96 6 13 C5.01 13 4.02 13 3 13 C2.34 11.35 1.68 9.7 1 8 C-1.31 7.67 -3.62 7.34 -6 7 C-5 5 -5 5 -2 4 C-1.34 4.33 -0.68 4.66 0 5 C0 3.35 0 1.7 0 0 Z " fill="#9CA9BA" transform="translate(122,43)"/>
<path d="M0 0 C1.4540625 0.0309375 1.4540625 0.0309375 2.9375 0.0625 C3.22625 0.84625 3.515 1.63 3.8125 2.4375 C4.78662254 5.15921632 4.78662254 5.15921632 6.9375 7.0625 C5.29242782 7.25656478 3.64640406 7.44257935 2 7.625 C0.62521484 7.78162109 0.62521484 7.78162109 -0.77734375 7.94140625 C-1.53144531 7.98136719 -2.28554687 8.02132812 -3.0625 8.0625 C-4.0625 7.0625 -4.0625 7.0625 -4.1875 4.0625 C-4.02164894 0.08207447 -4.02164894 0.08207447 0 0 Z " fill="#E5ECF2" transform="translate(129.0625,100.9375)"/>
<path d="M0 0 C1.98 0 3.96 0 6 0 C6 0.33 6 0.66 6 1 C4.35 1 2.7 1 1 1 C1 4.3 1 7.6 1 11 C2.98 11.495 2.98 11.495 5 12 C4.67 15.3 4.34 18.6 4 22 C2.68 21.67 1.36 21.34 0 21 C0 14.07 0 7.14 0 0 Z " fill="#A2B0C1" transform="translate(169,34)"/>
<path d="M0 0 C1.98 0 3.96 0 6 0 C7.65 3.3 9.3 6.6 11 10 C10.01 10.495 10.01 10.495 9 11 C9 10.01 9 9.02 9 8 C7.68 8 6.36 8 5 8 C4.34 8.66 3.68 9.32 3 10 C0.96564469 6.27034861 0 4.33094958 0 0 Z " fill="#9AA8BB" transform="translate(271,97)"/>
<path d="M0 0 C2 2 2 2 2 5 C-0.97 5 -3.94 5 -7 5 C-6.67 4.34 -6.34 3.68 -6 3 C-8.31 3 -10.62 3 -13 3 C-13.66 4.98 -14.32 6.96 -15 9 C-15.33 9 -15.66 9 -16 9 C-16 6.36 -16 3.72 -16 1 C-10.66272119 0.32225031 -5.38819418 -0.32988944 0 0 Z " fill="#9BABBC" transform="translate(184,97)"/>
<path d="M0 0 C1.32 0 2.64 0 4 0 C4 3.96 4 7.92 4 12 C3.67 12 3.34 12 3 12 C3 8.37 3 4.74 3 1 C2.34 1 1.68 1 1 1 C1 4.96 1 8.92 1 13 C-0.32 13 -1.64 13 -3 13 C-3.33 13.99 -3.66 14.98 -4 16 C-8 9.375 -8 9.375 -8 6 C-7.01 6 -6.02 6 -5 6 C-5 6.66 -5 7.32 -5 8 C-4.34 8 -3.68 8 -3 8 C-2.67 8.99 -2.34 9.98 -2 11 C-1.34 11.33 -0.68 11.66 0 12 C0 8.04 0 4.08 0 0 Z " fill="#A7B4C4" transform="translate(173,67)"/>
<path d="M0 0 C3.5 0.125 3.5 0.125 4.5 1.125 C4.625 3.625 4.625 3.625 4.5 6.125 C3.5 7.125 3.5 7.125 -0.0625 7.1875 C-1.196875 7.166875 -2.33125 7.14625 -3.5 7.125 C-3.88133299 5.1335944 -4.21325582 3.13220923 -4.5 1.125 C-3.5 0.125 -3.5 0.125 0 0 Z " fill="#EDF1F5" transform="translate(177.5,37.875)"/>
<path d="M0 0 C2.97 0 5.94 0 9 0 C9.33 0.66 9.66 1.32 10 2 C8.02 2.33 6.04 2.66 4 3 C4.020625 4.2375 4.04125 5.475 4.0625 6.75 C4.06766681 9.6640825 3.93015558 12.20953327 3 15 C2.34 15 1.68 15 1 15 C1.020625 13.824375 1.04125 12.64875 1.0625 11.4375 C1.06947261 7.52586533 0.64250343 3.85502056 0 0 Z " fill="#8D9BB0" transform="translate(287,34)"/>
<path d="M0 0 C3 0 3 0 4.625 1.0625 C6.66143778 3.93202596 6.75678877 6.53424 7 10 C6.5625 12.4375 6.5625 12.4375 6 14 C4.35 14 2.7 14 1 14 C1.33 10.37 1.66 6.74 2 3 C1.34 2.67 0.68 2.34 0 2 C0 1.34 0 0.68 0 0 Z " fill="#8797AD" transform="translate(239,101)"/>
<path d="M0 0 C0.99 0 1.98 0 3 0 C2.125 6.875 2.125 6.875 1 8 C-1.33297433 8.04092937 -3.66705225 8.04241723 -6 8 C-6 7.34 -6 6.68 -6 6 C-6.66 6 -7.32 6 -8 6 C-8.33 6.66 -8.66 7.32 -9 8 C-8.67 6.02 -8.34 4.04 -8 2 C-6.68 1.67 -5.36 1.34 -4 1 C-4 2.65 -4 4.3 -4 6 C-2.68 6 -1.36 6 0 6 C0 4.02 0 2.04 0 0 Z " fill="#92A0B0" transform="translate(276,74)"/>
<path d="M0 0 C0.33 0 0.66 0 1 0 C1.20086443 3.71599191 1.1519437 4.77208445 -1 8 C-4.3 7.34 -7.6 6.68 -11 6 C-11 4.68 -11 3.36 -11 2 C-7.71303767 1.20046862 -6.28976808 0.90341064 -3 2 C-3 2.66 -3 3.32 -3 4 C-2.01 4 -1.02 4 0 4 C0 2.68 0 1.36 0 0 Z " fill="#E8EDF0" transform="translate(252,69)"/>
<path d="M0 0 C1.98 0 3.96 0 6 0 C5.731875 0.515625 5.46375 1.03125 5.1875 1.5625 C3.67650593 4.66401415 2.34427274 7.82262806 1 11 C0.01 11 -0.98 11 -2 11 C-1.85892253 9.54119891 -1.71197585 8.08296449 -1.5625 6.625 C-1.48128906 5.81289062 -1.40007812 5.00078125 -1.31640625 4.1640625 C-1 2 -1 2 0 0 Z " fill="#8D9BB2" transform="translate(203,98)"/>
<path d="M0 0 C3.96 0.33 7.92 0.66 12 1 C12 1.66 12 2.32 12 3 C12.99 3.33 13.98 3.66 15 4 C14.67 5.32 14.34 6.64 14 8 C11.625 7.6875 11.625 7.6875 9 7 C8.34 6.01 7.68 5.02 7 4 C6.01 3.67 5.02 3.34 4 3 C4 2.34 4 1.68 4 1 C2.68 0.67 1.36 0.34 0 0 Z " fill="#ABB4C9" transform="translate(195,66)"/>
<path d="M0 0 C2.4375 0.375 2.4375 0.375 5 1 C6.47193312 3.94386623 5.84936173 6.37390036 5.5625 9.625 C5.46066406 10.81351563 5.35882813 12.00203125 5.25390625 13.2265625 C5.17011719 14.14179687 5.08632812 15.05703125 5 16 C4.67 15.01 4.34 14.02 4 13 C3.34 13 2.68 13 2 13 C2 12.34 2 11.68 2 11 C1.34 10.67 0.68 10.34 0 10 C0.33 8.35 0.66 6.7 1 5 C1.99 5 2.98 5 4 5 C4 4.34 4 3.68 4 3 C3.34 3 2.68 3 2 3 C2 2.34 2 1.68 2 1 C1.34 0.67 0.68 0.34 0 0 Z " fill="#A4B2C2" transform="translate(181,34)"/>
<path d="M0 0 C0 6.93 0 13.86 0 21 C-0.66 21.33 -1.32 21.66 -2 22 C-2.78688445 19.22276075 -3.11949924 16.77389923 -3.09765625 13.890625 C-3.09443359 13.13652344 -3.09121094 12.38242187 -3.08789062 11.60546875 C-3.07951172 10.82816406 -3.07113281 10.05085938 -3.0625 9.25 C-3.05798828 8.45722656 -3.05347656 7.66445313 -3.04882812 6.84765625 C-3.03708565 4.89840492 -3.01915146 2.94919262 -3 1 C-1 0 -1 0 0 0 Z " fill="#EEF5F9" transform="translate(286,34)"/>
<path d="M0 0 C2.97 0 5.94 0 9 0 C8.67 1.98 8.34 3.96 8 6 C5.66705225 6.04241723 3.33297433 6.04092937 1 6 C0 5 0 5 -0.0625 2.4375 C-0.041875 1.633125 -0.02125 0.82875 0 0 Z " fill="#E8F0F2" transform="translate(269,38)"/>
<path d="M0 0 C2 0.3125 2 0.3125 4 1 C4.33 1.66 4.66 2.32 5 3 C6.32 2.67 7.64 2.34 9 2 C9 3.65 9 5.3 9 7 C7.35 7.33 5.7 7.66 4 8 C3.67 7.34 3.34 6.68 3 6 C2.01 6 1.02 6 0 6 C-0.38218767 4.34385343 -0.71395102 2.67542976 -1 1 C-0.67 0.67 -0.34 0.34 0 0 Z " fill="#8A9AB1" transform="translate(276,104)"/>
<path d="M0 0 C1.32 0 2.64 0 4 0 C3.5020163 3.73487777 3.12508244 5.81237635 1 9 C-1.64 8.67 -4.28 8.34 -7 8 C-6.38125 7.95875 -5.7625 7.9175 -5.125 7.875 C-4.42375 7.58625 -3.7225 7.2975 -3 7 C-1.76242123 4.03739474 -1.76242123 4.03739474 -1 1 C-0.67 0.67 -0.34 0.34 0 0 Z " fill="#919EB5" transform="translate(205,80)"/>
<path d="M0 0 C4.81449408 0.48144941 7.60171741 0.8008587 12 3 C12 5.97 12 8.94 12 12 C11.67 12 11.34 12 11 12 C11 9.69 11 7.38 11 5 C10.01 5 9.02 5 8 5 C7.67 5.66 7.34 6.32 7 7 C4.69 6.34 2.38 5.68 0 5 C1.32 4.67 2.64 4.34 4 4 C4 3.01 4 2.02 4 1 C2.68 0.67 1.36 0.34 0 0 Z " fill="#A6B1C0" transform="translate(241,75)"/>
<path d="M0 0 C2.78781976 4.18172964 3.20628545 7.40865509 2.5625 12.375 C2.376875 13.24125 2.19125 14.1075 2 15 C2.66 15 3.32 15 4 15 C4.33 13.68 4.66 12.36 5 11 C5.33 13.31 5.66 15.62 6 18 C4.68 17.67 3.36 17.34 2 17 C1.67 18.65 1.34 20.3 1 22 C0.67 22 0.34 22 0 22 C0 14.74 0 7.48 0 0 Z " fill="#A6B5C6" transform="translate(286,34)"/>
<path d="M0 0 C0.66 0 1.32 0 2 0 C2 0.66 2 1.32 2 2 C6.29 2 10.58 2 15 2 C15 2.99 15 3.98 15 5 C10.38 5.33 5.76 5.66 1 6 C0.67 4.02 0.34 2.04 0 0 Z " fill="#95A4B5" transform="translate(149,42)"/>
<path d="M0 0 C0.33 0 0.66 0 1 0 C1 2.31 1 4.62 1 7 C1.99 6.67 2.98 6.34 4 6 C4 9.3 4 12.6 4 16 C3.34 16 2.68 16 2 16 C1.34 17.32 0.68 18.64 0 20 C0 13.4 0 6.8 0 0 Z " fill="#E8EEF4" transform="translate(186,67)"/>
<path d="M0 0 C1.98 0 3.96 0 6 0 C7.00259507 3.00778521 7.30314642 5.53820647 7.5625 8.6875 C7.64628906 9.68136719 7.73007813 10.67523438 7.81640625 11.69921875 C7.87699219 12.45847656 7.93757813 13.21773437 8 14 C8.99 13.67 9.98 13.34 11 13 C11 15.31 11 17.62 11 20 C9.68 20 8.36 20 7 20 C6.66440045 17.39610703 6.33143142 14.7919239 6 12.1875 C5.90460938 11.44951172 5.80921875 10.71152344 5.7109375 9.95117188 C5.33015323 6.94569605 5 4.03285559 5 1 C3.35 1 1.7 1 0 1 C0 0.67 0 0.34 0 0 Z " fill="#A7B4C2" transform="translate(98,101)"/>
<path d="M0 0 C1.60332791 -0.08121924 3.20784026 -0.13929134 4.8125 -0.1875 C6.15248047 -0.23970703 6.15248047 -0.23970703 7.51953125 -0.29296875 C10 0 10 0 11.82421875 1.26171875 C13 3 13 3 13 7 C12.01 7 11.02 7 10 7 C10 6.34 10 5.68 10 5 C7.03 4.505 7.03 4.505 4 4 C4.66 3.34 5.32 2.68 6 2 C2.28400809 1.79913557 1.22791555 1.8480563 -2 4 C-1.34 2.68 -0.68 1.36 0 0 Z " fill="#A8B0C0" transform="translate(239,66)"/>
<path d="M0 0 C2.31 0 4.62 0 7 0 C7.33 1.98 7.66 3.96 8 6 C5.36 6 2.72 6 0 6 C0 4.02 0 2.04 0 0 Z " fill="#F1F7FA" transform="translate(205,47)"/>
<path d="M0 0 C2.31 0 4.62 0 7 0 C7.38218767 1.65614657 7.71395102 3.32457024 8 5 C7 6 7 6 3.4375 6.0625 C2.303125 6.041875 1.16875 6.02125 0 6 C0 4.02 0 2.04 0 0 Z " fill="#E5ECF3" transform="translate(204,38)"/>
<path d="M0 0 C0.33 0 0.66 0 1 0 C1 1.65 1 3.3 1 5 C1.99 5 2.98 5 4 5 C4.33 7.64 4.66 10.28 5 13 C3.68 13 2.36 13 1 13 C1 11.35 1 9.7 1 8 C0.01 8 -0.98 8 -2 8 C-2.33 9.32 -2.66 10.64 -3 12 C-3 10.35 -3 8.7 -3 7 C-2.34 7 -1.68 7 -1 7 C-0.67 4.69 -0.34 2.38 0 0 Z " fill="#B3C1D1" transform="translate(249,34)"/>
<path d="M0 0 C1.32 0 2.64 0 4 0 C4.33 2.97 4.66 5.94 5 9 C2.03 8.505 2.03 8.505 -1 8 C-1.125 2.25 -1.125 2.25 0 0 Z " fill="#92A1B6" transform="translate(134,113)"/>
<path d="M0 0 C0.33 0 0.66 0 1 0 C1 7.92 1 15.84 1 24 C0.67 24 0.34 24 0 24 C-0.33 22.35 -0.66 20.7 -1 19 C-1.99 19.66 -2.98 20.32 -4 21 C-3.505 19.515 -3.505 19.515 -3 18 C-2.93197033 16.27204648 -2.91504355 14.54164635 -2.9375 12.8125 C-2.94652344 11.91144531 -2.95554688 11.01039062 -2.96484375 10.08203125 C-2.97644531 9.39496094 -2.98804688 8.70789063 -3 8 C-2.34 8.33 -1.68 8.66 -1 9 C-0.67 6.03 -0.34 3.06 0 0 Z " fill="#E0E9EF" transform="translate(249,97)"/>
<path d="M0 0 C4 1 4 1 5 2 C5.07226502 3.85287502 5.0838122 5.70833878 5.0625 7.5625 C5.05347656 8.57441406 5.04445312 9.58632812 5.03515625 10.62890625 C5.02355469 11.41136719 5.01195312 12.19382812 5 13 C4.01 13 3.02 13 2 13 C1.34 8.71 0.68 4.42 0 0 Z " fill="#9EACB8" transform="translate(123,70)"/>
<path d="M0 0 C0.66 0 1.32 0 2 0 C2 1.98 2 3.96 2 6 C2.99 6 3.98 6 5 6 C5.33 7.65 5.66 9.3 6 11 C5.34 11 4.68 11 4 11 C3.67 11.33 3.34 11.66 3 12 C2.01 11.67 1.02 11.34 0 11 C-1.62651522 7.74696956 -1.11453156 4.60774398 -1 1 C-0.67 0.67 -0.34 0.34 0 0 Z " fill="#8D9DB0" transform="translate(226,108)"/>
<path d="M0 0 C1.98 0 3.96 0 6 0 C6.33 1.65 6.66 3.3 7 5 C4.35261084 6.4606285 3.10551666 7 0 7 C0 4.69 0 2.38 0 0 Z " fill="#E2E9F0" transform="translate(256,102)"/>
<path d="M0 0 C1.33332095 2.6666419 0.67102033 4.16680303 0 7 C0.66 7 1.32 7 2 7 C2.33 6.01 2.66 5.02 3 4 C4.49821059 7.37097383 5 9.20442119 5 13 C3.68 13 2.36 13 1 13 C1 11.35 1 9.7 1 8 C0.01 8.33 -0.98 8.66 -2 9 C-1.125 1.125 -1.125 1.125 0 0 Z " fill="#B1BDCF" transform="translate(271,67)"/>
<path d="M0 0 C4.62 0 9.24 0 14 0 C14 1.32 14 2.64 14 4 C9.71 3.67 5.42 3.34 1 3 C0.67 2.01 0.34 1.02 0 0 Z " fill="#899AB1" transform="translate(171,118)"/>
<path d="M0 0 C0.66 0 1.32 0 2 0 C2 0.66 2 1.32 2 2 C2.99 2.33 3.98 2.66 5 3 C4.01 4.485 4.01 4.485 3 6 C6.465 5.505 6.465 5.505 10 5 C10 5.66 10 6.32 10 7 C6.04 7 2.08 7 -2 7 C-2.33 5.02 -2.66 3.04 -3 1 C-2.34 1 -1.68 1 -1 1 C-0.67 0.67 -0.34 0.34 0 0 Z " fill="#9BAABC" transform="translate(231,116)"/>
<path d="M0 0 C0.99 0.33 1.98 0.66 3 1 C3.66 4.63 4.32 8.26 5 12 C4.01 12.33 3.02 12.66 2 13 C1.34 12.67 0.68 12.34 0 12 C-1.09771253 7.70894191 -0.92311745 4.30788144 0 0 Z " fill="#8C9DB4" transform="translate(146,107)"/>
<path d="M0 0 C0.33 0 0.66 0 1 0 C1.2295711 3.36704285 1.33943529 5.41370268 -0.375 8.375 C-0.91125 8.91125 -1.4475 9.4475 -2 10 C-2.66 10 -3.32 10 -4 10 C-4 9.01 -4 8.02 -4 7 C-6.97 7 -9.94 7 -13 7 C-13 6.67 -13 6.34 -13 6 C-11.576875 5.87625 -11.576875 5.87625 -10.125 5.75 C-6.89538209 5.34925077 -6.89538209 5.34925077 -5.625 2.9375 C-5.41875 2.298125 -5.2125 1.65875 -5 1 C-5 1.99 -5 2.98 -5 4 C-3.35 4 -1.7 4 0 4 C0 2.68 0 1.36 0 0 Z " fill="#A7B3C5" transform="translate(163,111)"/>
<path d="M0 0 C1.32 0.33 2.64 0.66 4 1 C4.33 4.63 4.66 8.26 5 12 C3.02 12.99 3.02 12.99 1 14 C0.67 9.38 0.34 4.76 0 0 Z " fill="#8B99AF" transform="translate(104,102)"/>
<path d="M0 0 C0.99 0 1.98 0 3 0 C3.66 1.98 4.32 3.96 5 6 C4.01 5.67 3.02 5.34 2 5 C2 4.34 2 3.68 2 3 C1.01 2.67 0.02 2.34 -1 2 C-0.67 1.34 -0.34 0.68 0 0 Z M-5 3 C-3.68 3 -2.36 3 -1 3 C-1 3.66 -1 4.32 -1 5 C-0.01 5.33 0.98 5.66 2 6 C1.67 8.97 1.34 11.94 1 15 C0.67 15 0.34 15 0 15 C-0.66 11.37 -1.32 7.74 -2 4 C-2.99 3.67 -3.98 3.34 -5 3 Z " fill="#9CA9B9" transform="translate(240,98)"/>
<path d="M0 0 C0.33 0 0.66 0 1 0 C1 1.65 1 3.3 1 5 C1.66 5 2.32 5 3 5 C3 3.35 3 1.7 3 0 C3.33 0 3.66 0 4 0 C4.08121924 1.60332791 4.13929134 3.20784026 4.1875 4.8125 C4.22230469 5.70582031 4.25710937 6.59914063 4.29296875 7.51953125 C3.95081002 10.41647515 3.24606427 11.22555028 1 13 C1.33 11.68 1.66 10.36 2 9 C0.02 9.66 -1.96 10.32 -4 11 C-3.34 9.68 -2.68 8.36 -2 7 C-1.34 7 -0.68 7 0 7 C0 4.69 0 2.38 0 0 Z " fill="#A5B2BF" transform="translate(237,42)"/>
<path d="M0 0 C1.32 0 2.64 0 4 0 C4 2.97 4 5.94 4 9 C3.34 8.34 2.68 7.68 2 7 C1.67 9.31 1.34 11.62 1 14 C0.67 14 0.34 14 0 14 C-0.19393875 11.85473901 -0.37998676 9.70876323 -0.5625 7.5625 C-0.71912109 5.77005859 -0.71912109 5.77005859 -0.87890625 3.94140625 C-0.91886719 2.97074219 -0.95882812 2.00007813 -1 1 C-0.67 0.67 -0.34 0.34 0 0 Z " fill="#A3B0C0" transform="translate(132,67)"/>
<path d="M0 0 C0.99 0.33 1.98 0.66 3 1 C3.33 2.98 3.66 4.96 4 7 C2.35 7 0.7 7 -1 7 C-1.268125 6.360625 -1.53625 5.72125 -1.8125 5.0625 C-2.88667752 2.66868314 -2.88667752 2.66868314 -6 2 C-4.35 2 -2.7 2 -1 2 C-0.67 1.34 -0.34 0.68 0 0 Z " fill="#9EA9BA" transform="translate(216,99)"/>
<path d="M0 0 C0.33 0 0.66 0 1 0 C1 2.31 1 4.62 1 7 C1.66 7 2.32 7 3 7 C3.33 6.34 3.66 5.68 4 5 C3.4140625 11.15234375 3.4140625 11.15234375 3 13 C2.01 13.495 2.01 13.495 1 14 C1 12.35 1 10.7 1 9 C0.01 9 -0.98 9 -2 9 C-1.34 6.03 -0.68 3.06 0 0 Z " fill="#A2B0C1" transform="translate(284,97)"/>
<path d="M0 0 C4.29 0 8.58 0 13 0 C13 0.33 13 0.66 13 1 C11.35 1.33 9.7 1.66 8 2 C8.33 2.66 8.66 3.32 9 4 C6.03 4 3.06 4 0 4 C0 2.68 0 1.36 0 0 Z " fill="#E2EAF2" transform="translate(173,102)"/>
<path d="M0 0 C2.02350324 3.03525486 2.32124018 4.19426202 2.625 7.6875 C2.69976562 8.49574219 2.77453125 9.30398437 2.8515625 10.13671875 C2.92503906 11.05904297 2.92503906 11.05904297 3 12 C2.01 11.67 1.02 11.34 0 11 C-0.99 11.495 -0.99 11.495 -2 12 C-2 8.7 -2 5.4 -2 2 C-1.34 2 -0.68 2 0 2 C0 1.34 0 0.68 0 0 Z " fill="#8A98AF" transform="translate(253,99)"/>
<path d="M0 0 C4.29 0 8.58 0 13 0 C13 0.66 13 1.32 13 2 C9.7 2.33 6.4 2.66 3 3 C3 3.99 3 4.98 3 6 C2.34 6 1.68 6 1 6 C0.67 4.02 0.34 2.04 0 0 Z " fill="#8D9BB0" transform="translate(121,99)"/>
<path d="M0 0 C0.33 0 0.66 0 1 0 C1 5.28 1 10.56 1 16 C0.67 16 0.34 16 0 16 C-0.33 14.35 -0.66 12.7 -1 11 C-1.66 11 -2.32 11 -3 11 C-3 8.03 -3 5.06 -3 2 C-2.67 2.66 -2.34 3.32 -2 4 C-1.34 4 -0.68 4 0 4 C0 2.68 0 1.36 0 0 Z " fill="#E7F0F6" transform="translate(131,72)"/>
<path d="M0 0 C0.99 0.33 1.98 0.66 3 1 C3 3.64 3 6.28 3 9 C1.35 8.67 -0.3 8.34 -2 8 C-1.125 1.125 -1.125 1.125 0 0 Z " fill="#9AA8B9" transform="translate(95,34)"/>
<path d="M0 0 C0 1.32 0 2.64 0 4 C-3.4352048 6.29013653 -4.985331 6.17842973 -9 6 C-6.97377245 1.32409027 -5.29661848 0 0 0 Z " fill="#899BB2" transform="translate(243,116)"/>
<path d="M0 0 C2.31 0 4.62 0 7 0 C7 1.32 7 2.64 7 4 C6 5 6 5 2.9375 5.0625 C1.4834375 5.0315625 1.4834375 5.0315625 0 5 C0 3.35 0 1.7 0 0 Z " fill="#F0F3F8" transform="translate(241,81)"/>
<path d="M0 0 C0.66 0 1.32 0 2 0 C1.9278125 0.59167969 1.855625 1.18335937 1.78125 1.79296875 C1.30089977 5.88261722 0.86689849 9.8738531 1 14 C-1.70272533 11.12835434 -2.94791837 9.69008159 -3.25 5.6875 C-3.1675 4.800625 -3.085 3.91375 -3 3 C-2.34 3 -1.68 3 -1 3 C-0.67 2.01 -0.34 1.02 0 0 Z " fill="#94A1B9" transform="translate(215,72)"/>
<path d="M0 0 C0.33 0 0.66 0 1 0 C1 3.63 1 7.26 1 11 C0.01 11 -0.98 11 -2 11 C-2 11.66 -2 12.32 -2 13 C-2.66 13 -3.32 13 -4 13 C-3.67 10.69 -3.34 8.38 -3 6 C-2.01 5.67 -1.02 5.34 0 5 C0 3.35 0 1.7 0 0 Z " fill="#8B9BB1" transform="translate(304,41)"/>
<path d="M0 0 C1.65 0.33 3.3 0.66 5 1 C5 2.98 5 4.96 5 7 C3.68 7 2.36 7 1 7 C1.33 5.35 1.66 3.7 2 2 C0.35 2.66 -1.3 3.32 -3 4 C-2.01 2.68 -1.02 1.36 0 0 Z " fill="#A3B0BF" transform="translate(215,112)"/>
<path d="M0 0 C0.99 0 1.98 0 3 0 C3 3.63 3 7.26 3 11 C2.01 11 1.02 11 0 11 C0 7.37 0 3.74 0 0 Z " fill="#8E9BB4" transform="translate(159,99)"/>
<path d="M0 0 C-0.375 1.9375 -0.375 1.9375 -1 4 C-1.99 4.495 -1.99 4.495 -3 5 C-3.99 6.485 -3.99 6.485 -5 8 C-5 7.01 -5 6.02 -5 5 C-5.99 4.67 -6.98 4.34 -8 4 C-7.67 3.01 -7.34 2.02 -7 1 C-4.53721199 -0.231394 -2.7204945 -0.07159196 0 0 Z " fill="#9DA7BC" transform="translate(199,67)"/>
<path d="M0 0 C0.66 0 1.32 0 2 0 C2 1.98 2 3.96 2 6 C-0.95664519 7.4783226 -3.74229737 7.06032783 -7 7 C-7 6.34 -7 5.68 -7 5 C-6.360625 4.87625 -5.72125 4.7525 -5.0625 4.625 C-4.381875 4.41875 -3.70125 4.2125 -3 4 C-2.67 3.34 -2.34 2.68 -2 2 C-1.34 2 -0.68 2 0 2 C0 1.34 0 0.68 0 0 Z " fill="#91A1B0" transform="translate(215,49)"/>
<path d="M0 0 C2.64 0 5.28 0 8 0 C8.38218767 1.65614657 8.71395102 3.32457024 9 5 C8 6 8 6 6.15234375 6.09765625 C4.1015625 6.06510417 2.05078125 6.03255208 0 6 C2 4 2 4 4.0625 3.5 C4.701875 3.335 5.34125 3.17 6 3 C6.33 2.34 6.66 1.68 7 1 C4.69 1 2.38 1 0 1 C0 0.67 0 0.34 0 0 Z " fill="#AAB7C3" transform="translate(176,106)"/>
<path d="M0 0 C3.6875 -0.3125 3.6875 -0.3125 7 0 C6.67 0.99 6.34 1.98 6 3 C3.93359375 3.73046875 3.93359375 3.73046875 1.4375 4.1875 C0.61121094 4.34605469 -0.21507812 4.50460938 -1.06640625 4.66796875 C-2.02353516 4.83232422 -2.02353516 4.83232422 -3 5 C-1.9375 2.5 -1.9375 2.5 0 0 Z " fill="#8A9AAF" transform="translate(176,107)"/>
<path d="M0 0 C-0.33 0.66 -0.66 1.32 -1 2 C-3.5625 2.625 -3.5625 2.625 -6 3 C-6.33 4.32 -6.66 5.64 -7 7 C-7.99 6.67 -8.98 6.34 -10 6 C-9.67 4.35 -9.34 2.7 -9 1 C-2.25 -1.125 -2.25 -1.125 0 0 Z " fill="#8B96AB" transform="translate(235,100)"/>
<path d="M0 0 C6.93 0.495 6.93 0.495 14 1 C14 1.66 14 2.32 14 3 C9.38 3 4.76 3 0 3 C0 2.01 0 1.02 0 0 Z " fill="#909DB0" transform="translate(150,53)"/>
<path d="M0 0 C0.98120464 3.05263664 0.98120464 4.94736336 0 8 C-1.65 8 -3.3 8 -5 8 C-5.33 6.02 -5.66 4.04 -6 2 C-4.515 2.99 -4.515 2.99 -3 4 C-2.01 2.68 -1.02 1.36 0 0 Z " fill="#ACB9C7" transform="translate(105,49)"/>
<path d="M0 0 C0.33 0.99 0.66 1.98 1 3 C-1.31 3.33 -3.62 3.66 -6 4 C-6.33 4.99 -6.66 5.98 -7 7 C-7.66 7 -8.32 7 -9 7 C-9 5.02 -9 3.04 -9 1 C-2.25 0 -2.25 0 0 0 Z " fill="#909BB0" transform="translate(210,34)"/>
<path d="M0 0 C1.66666667 3.33333333 3.33333333 6.66666667 5 10 C4.34 10.66 3.68 11.32 3 12 C1.68 12 0.36 12 -1 12 C-1.33 10.35 -1.66 8.7 -2 7 C-1.01 7.495 -1.01 7.495 0 8 C0 5.36 0 2.72 0 0 Z " fill="#ABB7C8" transform="translate(215,76)"/>
<path d="M0 0 C0.33 0.99 0.66 1.98 1 3 C1.99 3.33 2.98 3.66 4 4 C4 5.32 4 6.64 4 8 C7.63 8 11.26 8 15 8 C15 8.33 15 8.66 15 9 C11.04 9 7.08 9 3 9 C3 8.34 3 7.68 3 7 C2.34 7 1.68 7 1 7 C0.67 4.69 0.34 2.38 0 0 Z " fill="#B6C0D0" transform="translate(148,35)"/>
<path d="M0 0 C3.375 0.3125 3.375 0.3125 7 1 C7.66 1.99 8.32 2.98 9 4 C6.03 4 3.06 4 0 4 C0 2.68 0 1.36 0 0 Z " fill="#99A5B5" transform="translate(128,34)"/>
<path d="M0 0 C4.54805635 -0.17835515 7.8794254 0.00214565 12 2 C12 2.99 12 3.98 12 5 C9.69 5 7.38 5 5 5 C6.32 4.34 7.64 3.68 9 3 C4.545 2.01 4.545 2.01 0 1 C0 0.67 0 0.34 0 0 Z " fill="#BAC1CF" transform="translate(105,97)"/>
<path d="M0 0 C1.32 0.66 2.64 1.32 4 2 C2.68 3.65 1.36 5.3 0 7 C0 6.34 0 5.68 0 5 C-1.32 5.99 -2.64 6.98 -4 8 C-4.25 5.6875 -4.25 5.6875 -4 3 C-2 1.1875 -2 1.1875 0 0 Z " fill="#A4ACBD" transform="translate(217,67)"/>
<path d="M0 0 C2.97 0 5.94 0 9 0 C9 0.99 9 1.98 9 3 C6.03 3 3.06 3 0 3 C0 2.01 0 1.02 0 0 Z " fill="#A6B2BB" transform="translate(138,67)"/>
<path d="M0 0 C0.33 0 0.66 0 1 0 C1.125 6.75 1.125 6.75 0 9 C-1.32 8.34 -2.64 7.68 -4 7 C-4 5.68 -4 4.36 -4 3 C-3.01 3 -2.02 3 -1 3 C-0.67 2.01 -0.34 1.02 0 0 Z " fill="#92A3BA" transform="translate(91,47)"/>
<path d="M0 0 C0.66 0 1.32 0 2 0 C1.67 1.65 1.34 3.3 1 5 C1.66 5 2.32 5 3 5 C3 5.66 3 6.32 3 7 C0.03 7 -2.94 7 -6 7 C-5 5 -5 5 -2 4 C-1.34 4.33 -0.68 4.66 0 5 C0 3.35 0 1.7 0 0 Z " fill="#8C9BAF" transform="translate(122,43)"/>
<path d="M0 0 C0.66 0 1.32 0 2 0 C2.56638908 4.81430721 0.82561627 7.20307814 -2 11 C-2.99 9.68 -3.98 8.36 -5 7 C-4.67 6.34 -4.34 5.68 -4 5 C-3.01 5.33 -2.02 5.66 -1 6 C-0.67 4.02 -0.34 2.04 0 0 Z " fill="#8F9EB1" transform="translate(104,44)"/>
<path d="M0 0 C0.66 0.33 1.32 0.66 2 1 C1.34 3.64 0.68 6.28 0 9 C-0.66 9 -1.32 9 -2 9 C-2 10.98 -2 12.96 -2 15 C-2.33 15 -2.66 15 -3 15 C-3.36263859 9.1977825 -2.25684543 5.36000789 0 0 Z " fill="#AEBAC6" transform="translate(201,99)"/>
<path d="M0 0 C2.97 0 5.94 0 9 0 C9 0.99 9 1.98 9 3 C6.03 3 3.06 3 0 3 C0 2.01 0 1.02 0 0 Z " fill="#A4AEB8" transform="translate(136,76)"/>
<path d="M0 0 C0.99 0.33 1.98 0.66 3 1 C3 1.66 3 2.32 3 3 C3.99 3.33 4.98 3.66 6 4 C6 4.66 6 5.32 6 6 C4.1875 6.625 4.1875 6.625 2 7 C1.01 6.34 0.02 5.68 -1 5 C-0.67 3.35 -0.34 1.7 0 0 Z " fill="#8896AD" transform="translate(203,114)"/>
<path d="M0 0 C0.99 0 1.98 0 3 0 C3.125 6.75 3.125 6.75 2 9 C1.34 9 0.68 9 0 9 C0 6.03 0 3.06 0 0 Z " fill="#92A0B1" transform="translate(230,73)"/>
<path d="M0 0 C1.65 0.33 3.3 0.66 5 1 C4.67 2.32 4.34 3.64 4 5 C2.35 4.67 0.7 4.34 -1 4 C-0.67 2.68 -0.34 1.36 0 0 Z " fill="#A3ABBC" transform="translate(205,69)"/>
<path d="M0 0 C0.99 0 1.98 0 3 0 C3.103125 0.763125 3.20625 1.52625 3.3125 2.3125 C4.04364039 5.17059424 4.76951913 6.15742885 7 8 C5.35 7.67 3.7 7.34 2 7 C2 6.34 2 5.68 2 5 C1.34 5 0.68 5 0 5 C0 3.35 0 1.7 0 0 Z " fill="#8B9AAC" transform="translate(247,42)"/>
<path d="M0 0 C3.63 0 7.26 0 11 0 C11 0.33 11 0.66 11 1 C8.69 1.66 6.38 2.32 4 3 C3.67 4.98 3.34 6.96 3 9 C2.67 9 2.34 9 2 9 C1.855625 7.88625 1.71125 6.7725 1.5625 5.625 C1.21627965 2.17857953 1.21627965 2.17857953 0 0 Z " fill="#ABB7C6" transform="translate(227,102)"/>
<path d="M0 0 C1.65 0 3.3 0 5 0 C4.67 2.31 4.34 4.62 4 7 C3.34 6.67 2.68 6.34 2 6 C2 5.34 2 4.68 2 4 C1.34 4 0.68 4 0 4 C0 2.68 0 1.36 0 0 Z " fill="#929FB2" transform="translate(144,98)"/>
<path d="M0 0 C0.66 0.66 1.32 1.32 2 2 C1.625 4.625 1.625 4.625 1 7 C-0.32 6.67 -1.64 6.34 -3 6 C-2.625 3.5625 -2.625 3.5625 -2 1 C-1.34 0.67 -0.68 0.34 0 0 Z " fill="#92A1B6" transform="translate(137,100)"/>
<path d="M0 0 C0.33 0 0.66 0 1 0 C1 2.31 1 4.62 1 7 C1.66 7.33 2.32 7.66 3 8 C2.67 8.99 2.34 9.98 2 11 C0.68 11 -0.64 11 -2 11 C-2 9.68 -2 8.36 -2 7 C-1.34 7 -0.68 7 0 7 C0 4.69 0 2.38 0 0 Z " fill="#ABB7C7" transform="translate(124,76)"/>
<path d="M0 0 C1.32 0 2.64 0 4 0 C4.33 1.32 4.66 2.64 5 4 C5.66 4 6.32 4 7 4 C7 4.66 7 5.32 7 6 C6.34 6 5.68 6 5 6 C4.67 6.66 4.34 7.32 4 8 C3.34 7.34 2.68 6.68 2 6 C2.375 3.375 2.375 3.375 3 1 C2.34 1 1.68 1 1 1 C1 2.65 1 4.3 1 6 C0.67 6 0.34 6 0 6 C0 4.02 0 2.04 0 0 Z " fill="#A5B2C7" transform="translate(160,67)"/>
<path d="M0 0 C7.75 0.875 7.75 0.875 10 2 C10.33 1.34 10.66 0.68 11 0 C11.66 0.66 12.32 1.32 13 2 C12 3 12 3 8.1875 3.1875 C4.96459799 3.1585691 2.74455277 2.82970185 0 1 C0 0.67 0 0.34 0 0 Z " fill="#9EAEC3" transform="translate(203,120)"/>
<path d="M0 0 C1.32 0 2.64 0 4 0 C3.67 1.98 3.34 3.96 3 6 C2.34 5.34 1.68 4.68 1 4 C-0.98 4.99 -0.98 4.99 -3 6 C-2.01 4.02 -1.02 2.04 0 0 Z " fill="#ABB4C3" transform="translate(205,80)"/>
<path d="M0 0 C1.77706209 2.66559313 2.87548273 5.0280615 4 8 C2.35 8 0.7 8 -1 8 C-0.67 5.36 -0.34 2.72 0 0 Z " fill="#93A1B6" transform="translate(202,48)"/>
<path d="M0 0 C1.98 0 3.96 0 6 0 C6 1.65 6 3.3 6 5 C4.125 4.75 4.125 4.75 2 4 C0.75 1.9375 0.75 1.9375 0 0 Z " fill="#8E9CB1" transform="translate(298,35)"/>
<path d="M0 0 C0.33 0 0.66 0 1 0 C1 3.63 1 7.26 1 11 C-0.32 11 -1.64 11 -3 11 C-2.67 9.68 -2.34 8.36 -2 7 C-1.67 7 -1.34 7 -1 7 C-0.67 4.69 -0.34 2.38 0 0 Z " fill="#A0B0C0" transform="translate(185,77)"/>
<path d="M0 0 C1.98 0 3.96 0 6 0 C6 0.99 6 1.98 6 3 C5.01 3.495 5.01 3.495 4 4 C3.67 4.66 3.34 5.32 3 6 C0 2.25 0 2.25 0 0 Z " fill="#A4AFBD" transform="translate(235,82)"/>
<path d="M0 0 C2.64 0.33 5.28 0.66 8 1 C8 1.99 8 2.98 8 4 C5.6875 4.25 5.6875 4.25 3 4 C1.1875 2 1.1875 2 0 0 Z " fill="#909CAF" transform="translate(237,75)"/>
<path d="M0 0 C1.43655854 -0.08131463 2.8744483 -0.13933559 4.3125 -0.1875 C5.51326172 -0.23970703 5.51326172 -0.23970703 6.73828125 -0.29296875 C9.47851584 0.06198392 10.29171079 0.89366282 12 3 C9.69 3.33 7.38 3.66 5 4 C5.66 3.67 6.32 3.34 7 3 C7 2.34 7 1.68 7 1 C4.69 1 2.38 1 0 1 C0 0.67 0 0.34 0 0 Z " fill="#9DAABA" transform="translate(267,33)"/>
<path d="M0 0 C0.8353125 0.556875 0.8353125 0.556875 1.6875 1.125 C1.0275 1.125 0.3675 1.125 -0.3125 1.125 C-0.3125 1.785 -0.3125 2.445 -0.3125 3.125 C-2.6225 3.125 -4.9325 3.125 -7.3125 3.125 C-7.3125 2.465 -7.3125 1.805 -7.3125 1.125 C-2.88173077 -1.09038462 -2.88173077 -1.09038462 0 0 Z " fill="#8A98AB" transform="translate(159.3125,117.875)"/>
<path d="M0 0 C0.33 0.66 0.66 1.32 1 2 C1.99 2 2.98 2 4 2 C4 5.3 4 8.6 4 12 C3.67 12 3.34 12 3 12 C3 10.02 3 8.04 3 6 C2.34 6 1.68 6 1 6 C0.67 4.02 0.34 2.04 0 0 Z " fill="#9FA9BA" transform="translate(264,98)"/>
<path d="M0 0 C0.33 0 0.66 0 1 0 C1.33 3.3 1.66 6.6 2 10 C1.01 10 0.02 10 -1 10 C-1.33 7.36 -1.66 4.72 -2 2 C-1.34 2 -0.68 2 0 2 C0 1.34 0 0.68 0 0 Z " fill="#E2ECF3" transform="translate(263,47)"/>
<path d="M0 0 C0.45375 0.66 0.9075 1.32 1.375 2 C1.91125 2.66 2.4475 3.32 3 4 C3.66 4 4.32 4 5 4 C4.34 5.65 3.68 7.3 3 9 C2.34 9 1.68 9 1 9 C-0.4783226 6.04335481 -0.06032783 3.25770263 0 0 Z " fill="#E7EFF5" transform="translate(87,38)"/>
<path d="M0 0 C0.66 0 1.32 0 2 0 C1.67 1.32 1.34 2.64 1 4 C4.63 4 8.26 4 12 4 C12 4.33 12 4.66 12 5 C8.04 5 4.08 5 0 5 C-0.33 3.68 -0.66 2.36 -1 1 C-0.67 0.67 -0.34 0.34 0 0 Z " fill="#D3DAE4" transform="translate(174,112)"/>
<path d="M0 0 C0.66 0 1.32 0 2 0 C2.33 1.98 2.66 3.96 3 6 C1.68 6 0.36 6 -1 6 C-0.67 4.02 -0.34 2.04 0 0 Z " fill="#DFECF3" transform="translate(118,41)"/>
<path d="M0 0 C0.99 0 1.98 0 3 0 C3.33 1.98 3.66 3.96 4 6 C2.68 5.67 1.36 5.34 0 5 C0 3.35 0 1.7 0 0 Z " fill="#8897AD" transform="translate(279,116)"/>
<path d="M0 0 C1.60725635 3.21451269 1.05748185 6.43612536 1 10 C-0.32 10.33 -1.64 10.66 -3 11 C-2.11223998 7.30099992 -1.05418136 3.65449539 0 0 Z " fill="#DDE5ED" transform="translate(212,73)"/>
<path d="M0 0 C0.66 0 1.32 0 2 0 C2 0.66 2 1.32 2 2 C2.66 2 3.32 2 4 2 C3 5 3 5 1 6 C-0.99960012 6.039992 -3.00047242 6.04346799 -5 6 C-4.67 5.34 -4.34 4.68 -4 4 C-2.68 4 -1.36 4 0 4 C0 2.68 0 1.36 0 0 Z " fill="#EBF1F6" transform="translate(209,69)"/>
<path d="M0 0 C0.99 0 1.98 0 3 0 C3 2.31 3 4.62 3 7 C2.01 7.495 2.01 7.495 1 8 C0 2.25 0 2.25 0 0 Z " fill="#91A1B1" transform="translate(249,80)"/>
<path d="M0 0 C0.99 0 1.98 0 3 0 C3.33 1.98 3.66 3.96 4 6 C2.68 5.67 1.36 5.34 0 5 C0 3.35 0 1.7 0 0 Z " fill="#8498B1" transform="translate(172,81)"/>
<path d="M0 0 C0.99 0.33 1.98 0.66 3 1 C3 2.32 3 3.64 3 5 C1.68 5 0.36 5 -1 5 C-0.67 3.35 -0.34 1.7 0 0 Z " fill="#CEDEE8" transform="translate(273,75)"/>
<path d="M0 0 C1.134375 0.020625 2.26875 0.04125 3.4375 0.0625 C3.1075 1.0525 2.7775 2.0425 2.4375 3.0625 C2.4375 2.4025 2.4375 1.7425 2.4375 1.0625 C-0.5344385 2.18701727 -2.89690687 3.28543791 -5.5625 5.0625 C-4.43693182 0.07784091 -4.43693182 0.07784091 0 0 Z " fill="#E3EEF3" transform="translate(252.5625,50.9375)"/>
<path d="M0 0 C-0.33 1.32 -0.66 2.64 -1 4 C-2.98 4 -4.96 4 -7 4 C-3.375 0 -3.375 0 0 0 Z " fill="#8A9CAB" transform="translate(239,51)"/>
<path d="M0 0 C0.99 0.33 1.98 0.66 3 1 C2.74438677 3.3431213 2.40729228 5.67843403 2 8 C1.01 8.495 1.01 8.495 0 9 C0 6.03 0 3.06 0 0 Z " fill="#8D9CB3" transform="translate(170,36)"/>
<path d="M0 0 C1.98 0.495 1.98 0.495 4 1 C4 2.32 4 3.64 4 5 C2.35 5 0.7 5 -1 5 C-0.67 3.35 -0.34 1.7 0 0 Z " fill="#909FB9" transform="translate(263,103)"/>
<path d="M0 0 C0.66 0 1.32 0 2 0 C2 0.66 2 1.32 2 2 C3.65 2 5.3 2 7 2 C7 2.33 7 2.66 7 3 C5.35 3 3.7 3 2 3 C2 4.98 2 6.96 2 9 C1.67 9 1.34 9 1 9 C0.67 6.03 0.34 3.06 0 0 Z " fill="#9AA6BD" transform="translate(254,99)"/>
<path d="M0 0 C2.64 0.33 5.28 0.66 8 1 C8 1.66 8 2.32 8 3 C5.69 3 3.38 3 1 3 C0.67 2.01 0.34 1.02 0 0 Z " fill="#8B99B0" transform="translate(217,86)"/>
<path d="M0 0 C0.99 0.33 1.98 0.66 3 1 C2.67 5.29 2.34 9.58 2 14 C1.67 14 1.34 14 1 14 C0.67 9.38 0.34 4.76 0 0 Z " fill="#D8E4EF" transform="translate(162,74)"/>
<path d="M0 0 C0.66 0 1.32 0 2 0 C2.33 1.65 2.66 3.3 3 5 C2.34 5 1.68 5 1 5 C0.67 5.99 0.34 6.98 0 8 C-1.09658936 4.71023192 -0.79953138 3.28696233 0 0 Z " fill="#91A1B7" transform="translate(161,68)"/>
<path d="M0 0 C1.67542976 0.28604898 3.34385343 0.61781233 5 1 C5 1.66 5 2.32 5 3 C4.34 3 3.68 3 3 3 C2.67 3.66 2.34 4.32 2 5 C1.67 4.01 1.34 3.02 1 2 C0.34 1.67 -0.32 1.34 -1 1 C-0.67 0.67 -0.34 0.34 0 0 Z " fill="#ACB1BF" transform="translate(120,67)"/>
<path d="M0 0 C0.66 0.66 1.32 1.32 2 2 C1.525625 2.391875 1.05125 2.78375 0.5625 3.1875 C-1.35179633 5.40808374 -1.61266988 7.13375709 -2 10 C-2.33 10 -2.66 10 -3 10 C-3.36923077 3.47692308 -3.36923077 3.47692308 -1.5 1.0625 C-1.005 0.711875 -0.51 0.36125 0 0 Z " fill="#DFE7ED" transform="translate(227,39)"/>
</svg>
