<?xml version="1.0" encoding="UTF-8"?>
<svg version="1.1" xmlns="http://www.w3.org/2000/svg" width="222" height="180">
<path d="M0 0 C73.26 0 146.52 0 222 0 C222 59.4 222 118.8 222 180 C148.74 180 75.48 180 0 180 C0 120.6 0 61.2 0 0 Z " fill="#FCFDFD" transform="translate(0,0)"/>
<path d="M0 0 C0.99 0.33 1.98 0.66 3 1 C3.125 4.375 3.125 4.375 3 8 C2.34 8.66 1.68 9.32 1 10 C-0.93814113 15.90458545 -1.4256499 22.14882873 -1.8515625 28.3125 C-1.91532074 29.16626221 -1.97907898 30.02002441 -2.04476929 30.8996582 C-2.17718865 32.69101438 -2.30643365 34.48260784 -2.43261719 36.27441406 C-2.62453788 38.99345295 -2.82707024 41.71154447 -3.03125 44.4296875 C-3.15947964 46.18224601 -3.28710404 47.93484894 -3.4140625 49.6875 C-3.47340973 50.48776611 -3.53275696 51.28803223 -3.59390259 52.11254883 C-3.96293618 57.42086444 -4.04973759 62.67874066 -4 68 C0.76054026 60.00619178 5.27595422 51.89723662 9.71972656 43.72436523 C12.02094138 39.51456555 14.36405852 35.34822267 16.859375 31.25 C17.31401123 30.50065186 17.76864746 29.75130371 18.23706055 28.97924805 C19.08942529 27.58585384 19.95208779 26.19867928 20.82739258 24.81958008 C23.37697066 20.6478799 24.70100512 16.91121616 25.52319336 12.0847168 C26.03968833 9.82647277 26.89288955 8.02670568 28 6 C28.99 6 29.98 6 31 6 C30.85892253 7.45880109 30.71197585 8.91703551 30.5625 10.375 C30.44068359 11.59316406 30.44068359 11.59316406 30.31640625 12.8359375 C30 15 30 15 29 17 C27.5566454 28.30627774 35.84726729 38.25182173 42 47 C43.4942923 44.75856155 44.75851403 42.63583323 45.99609375 40.26171875 C53.76677187 25.62250355 63.09907531 11.67813023 76 1 C76.99 1 77.98 1 79 1 C78.43873128 6.97350276 76.62736878 11.90390262 74.375 17.4375 C70.1332539 28.18983314 66.91683294 39.13027285 63.78613281 50.24707031 C62.6443251 54.24552491 61.42966276 58.21923277 60.1875 62.1875 C59.80980469 63.39792969 59.43210937 64.60835938 59.04296875 65.85546875 C58.39315042 67.81465883 57.69276388 69.75866248 56.91796875 71.671875 C56.06769425 73.82831586 55.55377366 75.79174971 55.125 78.0625 C53.7287341 84.67002605 51.40726593 90.9792402 49.1796875 97.34375 C46.40960458 105.39156984 44.32068221 113.58999536 43 122 C46.49369888 119.35546404 49.27591573 116.67638724 52 113.25 C52.77472656 112.28320312 53.54945312 111.31640625 54.34765625 110.3203125 C54.76934082 109.79083008 55.19102539 109.26134766 55.62548828 108.71582031 C57.652682 106.18524883 59.71094143 103.68038265 61.765625 101.17211914 C63.99534368 98.44195105 66.20655347 95.69705357 68.41748047 92.95166016 C69.88982459 91.13587507 71.38180643 89.33834133 72.87890625 87.54296875 C77.79163447 81.55146527 81.20011829 75.87563445 83.71875 68.47265625 C85.49223088 63.66587424 87.8013794 59.19160974 90.14697266 54.64331055 C91.72711918 51.5710643 93.20069178 48.52970722 94.55859375 45.34765625 C95.85120906 42.34556596 97.25948265 39.61216289 98.9375 36.8125 C99.42089844 35.99394531 99.90429688 35.17539062 100.40234375 34.33203125 C102.08013253 31.88303394 103.73858806 29.9250767 106 28 C106.99 28 107.98 28 109 28 C108.32584613 33.2584002 106.75734451 38.02638346 105 43 C104.34 43 103.68 43 103 43 C102.649375 44.216875 102.29875 45.43375 101.9375 46.6875 C98.82361168 55.95674896 93.59789707 64.1962669 88.25 72.3125 C85.09599114 77.10242718 82.7594301 81.53650654 81 87 C80.36817009 88.42296736 79.72131793 89.83932496 79.0625 91.25 C75.92289688 98.20542846 73.35835116 105.48104608 72 113 C75.89490793 110.89538309 78.49466927 108.59825449 81.375 105.25 C83.97419536 102.27398554 86.563725 99.39822394 89.4375 96.6875 C98.85794803 87.24524537 104.3225183 77.71139609 109.203125 65.3828125 C110.90203555 61.1247608 112.95689318 57.29855177 115.44921875 53.44921875 C117.01999456 50.96842168 118.41402187 48.41782251 119.80981445 45.83569336 C123.63308407 38.83614034 127.87096186 32.24655336 134 27 C134.99 27 135.98 27 137 27 C136.68610591 33.57746462 135.28764388 38.41039077 132.0625 44.125 C131.66716064 44.84856689 131.27182129 45.57213379 130.86450195 46.31762695 C126.67886598 53.83768031 121.89207419 60.92803784 117 68 C116.63342285 68.57959473 116.2668457 69.15918945 115.88916016 69.75634766 C114.97365526 71.20212652 113.99224916 72.60577357 113 74 C112.34 74 111.68 74 111 74 C110.6596875 74.99 110.6596875 74.99 110.3125 76 C109 79 109 79 106.8125 82.3125 C103.03737002 88.19234846 100.54176877 94.69814177 97.81689453 101.10791016 C96.74235829 103.59674934 95.59154983 106.04718026 94.4375 108.5 C88.13683661 122.31616057 82.68287826 137.26848695 79 152 C104.08 152 129.16 152 155 152 C155 152.33 155 152.66 155 153 C130.47665076 153.02344761 105.95330322 153.0410371 81.42994499 153.05181217 C70.04118345 153.05695007 58.65242892 153.06394453 47.26367188 153.07543945 C37.32752831 153.08546337 27.39138981 153.09187162 17.45524132 153.09408849 C12.20298199 153.09538262 6.95073716 153.09838499 1.69848251 153.10573006 C-40.35755193 153.16236301 -40.35755193 153.16236301 -58 152 C-58 151.67 -58 151.34 -58 151 C-13.45 151 31.1 151 77 151 C77.33 147.7 77.66 144.4 78 141 C78.98388672 137.51318359 78.98388672 137.51318359 80.1796875 134.3984375 C80.61410156 133.24859375 81.04851562 132.09875 81.49609375 130.9140625 C81.95113281 129.74617187 82.40617188 128.57828125 82.875 127.375 C83.32230469 126.199375 83.76960937 125.02375 84.23046875 123.8125 C85.09505643 121.54263854 85.96455086 119.27463827 86.83959961 117.00878906 C87.80198036 114.51344288 88.74958893 112.01386659 89.68359375 109.5078125 C90.81637911 106.48929246 91.9830154 103.49044451 93.1875 100.5 C93.53167969 99.6440625 93.87585938 98.788125 94.23046875 97.90625 C94.48441406 97.2771875 94.73835937 96.648125 95 96 C93.89591797 97.21236328 93.89591797 97.21236328 92.76953125 98.44921875 C91.78391591 99.52870221 90.79823535 100.60812612 89.8125 101.6875 C89.32974609 102.21794922 88.84699219 102.74839844 88.34960938 103.29492188 C76.89708039 115.82352741 76.89708039 115.82352741 72.3125 116.25 C70 116 70 116 69 115 C68.5903533 109.31615206 69.7071458 104.85868821 71.5 99.5625 C71.73847656 98.83095703 71.97695312 98.09941406 72.22265625 97.34570312 C72.80596172 95.5607884 73.40169935 93.77994443 74 92 C72.49260652 93.82891062 70.98540766 95.65798086 69.47851562 97.48730469 C68.19534369 99.04450774 66.91148311 100.60114357 65.62695312 102.15722656 C62.82336376 105.55633112 60.02255587 108.95582312 57.27734375 112.40234375 C49.4853352 122.14569578 49.4853352 122.14569578 45 125 C42.125 124.8125 42.125 124.8125 40 124 C39.45236936 114.69027915 41.80769431 106.05515354 45.13208008 97.41113281 C47.05750081 92.06220029 48.57733949 86.57512196 50.1875 81.125 C50.98669766 78.43832935 51.78827182 75.75236936 52.58984375 73.06640625 C52.79131012 72.39050949 52.99277649 71.71461273 53.2003479 71.01823425 C59.31951197 50.50605271 65.71147942 30.12872279 73 10 C61.29243823 18.65341522 50.67524718 35.25062777 46 49 C45.74936268 52.66714849 45.74936268 52.66714849 46 56 C46.33 56.33 46.66 56.66 47 57 C48.26508153 67.94782095 45.3889216 79.62326149 41.03515625 89.60546875 C39.9035393 92.22313363 38.94845944 94.87333854 38 97.5625 C31.7744669 114.71891099 20.65604675 132.84125098 5 143 C2.3125 142.8125 2.3125 142.8125 0 142 C-1.77943562 138.44112877 -1.52845594 134.83887457 -1 131 C0.49244989 126.60208249 2.46602888 122.48306409 4.5 118.3125 C5.05099365 117.15419678 5.6019873 115.99589355 6.16967773 114.80249023 C10.09706731 106.63253248 14.30281709 98.75436269 19 91 C26.00403664 79.26321661 32.42161235 67.48344056 38 55 C38.66 55 39.32 55 40 55 C40.25069913 52.62570704 40.25069913 52.62570704 40 50 C38.70921589 48.5412312 38.70921589 48.5412312 37 47 C36.03980836 45.37760722 35.08538828 43.75108675 34.1796875 42.09765625 C32.32732886 38.80389271 30.28583833 35.62515138 28.26953125 32.4296875 C26.96028209 29.92398604 26.41114052 27.78386711 26 25 C23.66913331 27.16029482 22.08916134 29.30923651 20.51171875 32.0625 C20.05571289 32.85398438 19.59970703 33.64546875 19.12988281 34.4609375 C18.41590332 35.71777344 18.41590332 35.71777344 17.6875 37 C17.19475586 37.85851562 16.70201172 38.71703125 16.19433594 39.6015625 C13.65602737 44.03815727 11.16600467 48.49536257 8.75 53 C6.77822645 56.67570503 4.64010024 60.1847184 2.375 63.6875 C1.24816987 65.45716934 0.122979 67.22788436 -1 69 C-1.40476563 69.61746094 -1.80953125 70.23492187 -2.2265625 70.87109375 C-4.75335165 75.20135455 -5.54215364 79.59929806 -6.3125 84.5 C-9.20400813 102.87553413 -14.44390464 125.00214843 -26 140 C-26.99 140 -27.98 140 -29 140 C-29.495 138.02 -29.495 138.02 -30 136 C-30.66 136 -31.32 136 -32 136 C-33.03304493 120.76258727 -25.21684308 104.35438574 -17.328125 91.55078125 C-10.38619236 80.26312645 -8.37101585 71.17890093 -8 58 C-7.86776678 54.936811 -7.71445566 51.87476523 -7.5625 48.8125 C-7.52882324 48.05396729 -7.49514648 47.29543457 -7.46044922 46.51391602 C-7.12190785 39.64039298 -6.38190185 32.831378 -5.5625 26 C-5.44011963 24.97366455 -5.31773926 23.9473291 -5.19165039 22.88989258 C-2.88046257 4.32069385 -2.88046257 4.32069385 0 0 Z " fill="#6797C4" transform="translate(67,27)"/>
<path d="M0 0 C-0.31389409 6.57746462 -1.71235612 11.41039077 -4.9375 17.125 C-5.33283936 17.84856689 -5.72817871 18.57213379 -6.13549805 19.31762695 C-10.32113402 26.83768031 -15.10792581 33.92803784 -20 41 C-20.36657715 41.57959473 -20.7331543 42.15918945 -21.11083984 42.75634766 C-22.02634474 44.20212652 -23.00775084 45.60577357 -24 47 C-24.66 47 -25.32 47 -26 47 C-26.226875 47.66 -26.45375 48.32 -26.6875 49 C-28 52 -28 52 -30.1875 55.3125 C-33.96262998 61.19234846 -36.45823123 67.69814177 -39.18310547 74.10791016 C-40.25764171 76.59674934 -41.40845017 79.04718026 -42.5625 81.5 C-48.86316339 95.31616057 -54.31712174 110.26848695 -58 125 C-32.92 125 -7.84 125 18 125 C18 125.33 18 125.66 18 126 C-6.52334924 126.02344761 -31.04669678 126.0410371 -55.57005501 126.05181217 C-66.95881655 126.05695007 -78.34757108 126.06394453 -89.73632812 126.07543945 C-99.67247169 126.08546337 -109.60861019 126.09187162 -119.54475868 126.09408849 C-124.79701801 126.09538262 -130.04926284 126.09838499 -135.30151749 126.10573006 C-177.35755193 126.16236301 -177.35755193 126.16236301 -195 125 C-195 124.67 -195 124.34 -195 124 C-150.45 124 -105.9 124 -60 124 C-59.67 120.7 -59.34 117.4 -59 114 C-58.01611328 110.51318359 -58.01611328 110.51318359 -56.8203125 107.3984375 C-56.38589844 106.24859375 -55.95148438 105.09875 -55.50390625 103.9140625 C-55.04886719 102.74617188 -54.59382812 101.57828125 -54.125 100.375 C-53.67769531 99.199375 -53.23039063 98.02375 -52.76953125 96.8125 C-51.90494357 94.54263854 -51.03544914 92.27463827 -50.16040039 90.00878906 C-49.19801964 87.51344288 -48.25041107 85.01386659 -47.31640625 82.5078125 C-45.61534386 77.97501124 -43.80878635 73.49077989 -42 69 C-47.445 74.94 -47.445 74.94 -53 81 C-53.33 80.34 -53.66 79.68 -54 79 C-54.66 78.67 -55.32 78.34 -56 78 C-55.24976563 77.28457031 -54.49953125 76.56914062 -53.7265625 75.83203125 C-41.87851782 64.37931088 -33.87538504 53.74913747 -27.796875 38.3828125 C-26.09796445 34.1247608 -24.04310682 30.29855177 -21.55078125 26.44921875 C-19.98000544 23.96842168 -18.58597813 21.41782251 -17.19018555 18.83569336 C-6.90182371 0 -6.90182371 0 0 0 Z " fill="#677179" transform="translate(204,54)"/>
<path d="M0 0 C0.99 0.33 1.98 0.66 3 1 C3.125 4.375 3.125 4.375 3 8 C2.34 8.66 1.68 9.32 1 10 C-0.93814113 15.90458545 -1.4256499 22.14882873 -1.8515625 28.3125 C-1.91532074 29.16626221 -1.97907898 30.02002441 -2.04476929 30.8996582 C-2.17718865 32.69101438 -2.30643365 34.48260784 -2.43261719 36.27441406 C-2.62453788 38.99345295 -2.82707024 41.71154447 -3.03125 44.4296875 C-3.15947964 46.18224601 -3.28710404 47.93484894 -3.4140625 49.6875 C-3.47340973 50.48776611 -3.53275696 51.28803223 -3.59390259 52.11254883 C-3.96293618 57.42086444 -4.04973759 62.67874066 -4 68 C0.2817452 60.8101753 4.36884523 53.53327909 8.375 46.1875 C13.03343677 37.65428871 17.91566802 29.28557805 23 21 C23.495 22.485 23.495 22.485 24 24 C24.66 24.33 25.32 24.66 26 25 C25.5563208 25.41121094 25.1126416 25.82242188 24.65551758 26.24609375 C22.91905376 28.08575694 21.76782668 29.87009306 20.51171875 32.0625 C20.05571289 32.85398438 19.59970703 33.64546875 19.12988281 34.4609375 C18.65389648 35.29882812 18.17791016 36.13671875 17.6875 37 C17.19475586 37.85851562 16.70201172 38.71703125 16.19433594 39.6015625 C13.65602737 44.03815727 11.16600467 48.49536257 8.75 53 C6.77822645 56.67570503 4.64010024 60.1847184 2.375 63.6875 C1.24816987 65.45716934 0.122979 67.22788436 -1 69 C-1.60714844 69.92619141 -1.60714844 69.92619141 -2.2265625 70.87109375 C-4.75335165 75.20135455 -5.54215364 79.59929806 -6.3125 84.5 C-9.20400813 102.87553413 -14.44390464 125.00214843 -26 140 C-26.99 140 -27.98 140 -29 140 C-29.33 138.68 -29.66 137.36 -30 136 C-30.66 136 -31.32 136 -32 136 C-33.03304493 120.76258727 -25.21684308 104.35438574 -17.328125 91.55078125 C-10.38619236 80.26312645 -8.37101585 71.17890093 -8 58 C-7.86776678 54.936811 -7.71445566 51.87476523 -7.5625 48.8125 C-7.52882324 48.05396729 -7.49514648 47.29543457 -7.46044922 46.51391602 C-7.12190785 39.64039298 -6.38190185 32.831378 -5.5625 26 C-5.44011963 24.97366455 -5.31773926 23.9473291 -5.19165039 22.88989258 C-2.88046257 4.32069385 -2.88046257 4.32069385 0 0 Z " fill="#6291C3" transform="translate(67,27)"/>
<path d="M0 0 C0.66 0.33 1.32 0.66 2 1 C1.62488281 1.969375 1.24976563 2.93875 0.86328125 3.9375 C-2.52267391 12.77173444 -5.57138733 21.64548153 -8.30517578 30.70361328 C-9.06974304 33.23050001 -9.84492352 35.75399757 -10.62109375 38.27734375 C-14.03094327 49.38818657 -17.33634268 60.52635404 -20.57666016 71.68774414 C-23.13878782 80.50482106 -25.73259615 89.30494801 -28.6875 98 C-30.64085218 103.84944049 -31.10424016 108.84983046 -31 115 C-27.26512223 114.5020163 -25.18762365 114.12508244 -22 112 C-23.875 116.875 -23.875 116.875 -25 118 C-28.5 118.125 -28.5 118.125 -32 118 C-34.41426178 115.58573822 -33.9295332 110.25153955 -34 107 C-33.0625 103.875 -33.0625 103.875 -32 102 C-32.99 102 -33.98 102 -35 102 C-34.835 101.401875 -34.67 100.80375 -34.5 100.1875 C-33.8885876 97.88655664 -33.8885876 97.88655664 -34 95 C-34.433125 96.1446875 -34.433125 96.1446875 -34.875 97.3125 C-36 100 -36 100 -38 103 C-38.66 103 -39.32 103 -40 103 C-37.45766855 95.19966486 -34.81222833 87.42685895 -31.703125 79.83203125 C-27.52861118 69.55536047 -24.99246089 59.17665474 -26 48 C-26.33 47.67 -26.66 47.34 -27 47 C-27.51243316 41.29827894 -26.1893691 37.32554407 -23.5625 32.375 C-23.20269043 31.68059814 -22.84288086 30.98619629 -22.47216797 30.27075195 C-16.46041513 18.94071066 -8.85578055 9.22554174 0 0 Z " fill="#F3F9FA" transform="translate(139,36)"/>
<path d="M0 0 C0.66 0 1.32 0 2 0 C2.86436217 27.08334787 -8.61739914 50.46076048 -25.625 70.875 C-26.30816284 71.69713989 -26.30816284 71.69713989 -27.00512695 72.53588867 C-29.74912233 75.75852839 -32.50592459 78.59709764 -36 81 C-36.99 81 -37.98 81 -39 81 C-38.73600314 74.26808011 -36.47486759 69.28289051 -33.5546875 63.25390625 C-32.18490938 60.38700882 -30.96413406 57.5219317 -29.8125 54.5625 C-28.39246789 50.9203256 -26.82029435 47.45855926 -25 44 C-24.34 44 -23.68 44 -23 44 C-22.92652344 43.34257812 -22.85304688 42.68515625 -22.77734375 42.0078125 C-21.7100028 37.87790029 -19.68906223 34.55018487 -17.5625 30.875 C-13.27857435 23.34055181 -9.18687948 15.72766022 -5.22485352 8.01904297 C-4.83096436 7.25994629 -4.4370752 6.50084961 -4.03125 5.71875 C-3.68642578 5.04779297 -3.34160156 4.37683594 -2.98632812 3.68554688 C-2 2 -2 2 0 0 Z " fill="#F4F9F9" transform="translate(108,85)"/>
<path d="M0 0 C0.495 0.99 0.495 0.99 1 2 C1.9590625 1.7215625 1.9590625 1.7215625 2.9375 1.4375 C3.9584375 1.2209375 3.9584375 1.2209375 5 1 C6 2 6 2 6.09765625 4.28515625 C6.08605469 5.20167969 6.07445312 6.11820312 6.0625 7.0625 C6.05347656 7.98160156 6.04445312 8.90070313 6.03515625 9.84765625 C6.02355469 10.55792969 6.01195312 11.26820312 6 12 C5.67 12 5.34 12 5 12 C5 9.03 5 6.06 5 3 C1.83632589 5.89275762 -0.07246142 8.64842602 -1.98828125 12.47265625 C-2.53033203 13.53806641 -3.07238281 14.60347656 -3.63085938 15.70117188 C-4.18580078 16.81041016 -4.74074219 17.91964844 -5.3125 19.0625 C-9.06445485 26.53525468 -12.93064184 33.71601501 -17.60620117 40.65795898 C-18.90009448 42.83212582 -19.55652917 44.52862233 -20 47 C-20.66 47 -21.32 47 -22 47 C-22.25007813 47.81339844 -22.50015625 48.62679687 -22.7578125 49.46484375 C-24.22038032 53.62718298 -26.0298321 57.55923601 -27.875 61.5625 C-31.21442984 68.91619022 -33.90201317 76.18775957 -36 84 C-18.93243055 74.24710317 -6.73816016 53.50206764 -1 35 C0.90396893 40.28880257 -0.57082686 45.32067919 -2.6875 50.3125 C-9.34712001 64.3690551 -19.75898576 79.39876739 -33 88 C-35.6875 87.8125 -35.6875 87.8125 -38 87 C-39.77943562 83.44112877 -39.52845594 79.83887457 -39 76 C-37.50755011 71.60208249 -35.53397112 67.48306409 -33.5 63.3125 C-32.94900635 62.15419678 -32.3980127 60.99589355 -31.83032227 59.80249023 C-27.90293269 51.63253248 -23.69718291 43.75436269 -19 36 C-11.99596336 24.26321661 -5.57838765 12.48344056 0 0 Z " fill="#6C9CC7" transform="translate(105,82)"/>
<path d="M0 0 C-0.67415387 5.2584002 -2.24265549 10.02638346 -4 15 C-4.66 15 -5.32 15 -6 15 C-6.5259375 16.8253125 -6.5259375 16.8253125 -7.0625 18.6875 C-10.40648947 28.64170123 -16.17838703 37.4036558 -21.93286133 46.10009766 C-23.93356968 49.17123488 -25.61929632 52.09373302 -26.8125 55.5625 C-28.03077694 59.08909114 -29.51175968 61.2543555 -32 64 C-32 63.01 -32 62.02 -32 61 C-33.98 61.495 -33.98 61.495 -36 62 C-35.40535514 58.76484879 -34.38550482 57.0337414 -32.25 54.5625 C-28.88963735 50.23862105 -27.26018691 45.76944925 -25.421875 40.6484375 C-23.53791825 35.8143287 -21.22942143 31.25222779 -18.85400391 26.64453125 C-17.27316122 23.5720176 -15.79952447 20.53021399 -14.44140625 17.34765625 C-13.14879094 14.34556596 -11.74051735 11.61216289 -10.0625 8.8125 C-9.57910156 7.99394531 -9.09570312 7.17539062 -8.59765625 6.33203125 C-4.25963149 0 -4.25963149 0 0 0 Z " fill="#5C8DC4" transform="translate(176,55)"/>
<path d="M0 0 C-0.31389409 6.57746462 -1.71235612 11.41039077 -4.9375 17.125 C-5.53050903 18.21035034 -5.53050903 18.21035034 -6.13549805 19.31762695 C-10.32113402 26.83768031 -15.10792581 33.92803784 -20 41 C-20.36657715 41.57959473 -20.7331543 42.15918945 -21.11083984 42.75634766 C-22.02634474 44.20212652 -23.00775084 45.60577357 -24 47 C-24.66 47 -25.32 47 -26 47 C-26.33 47.66 -26.66 48.32 -27 49 C-27 48.01 -27 47.02 -27 46 C-26.34 46 -25.68 46 -25 46 C-25.33 44.35 -25.66 42.7 -26 41 C-26.66 41 -27.32 41 -28 41 C-26.82394256 35.59013579 -24.69978247 31.54496266 -21.76171875 26.87109375 C-20.13984066 24.22789996 -18.65226812 21.53613028 -17.17700195 18.80932617 C-6.89037411 0 -6.89037411 0 0 0 Z " fill="#6C9FC9" transform="translate(204,54)"/>
<path d="M0 0 C0.99 0 1.98 0 3 0 C2.85892253 1.45880109 2.71197585 2.91703551 2.5625 4.375 C2.48128906 5.18710937 2.40007812 5.99921875 2.31640625 6.8359375 C2 9 2 9 1 11 C-0.4433546 22.30627774 7.84726729 32.25182173 14 41 C15.98 40.505 15.98 40.505 18 40 C17.98839844 40.71027344 17.97679688 41.42054687 17.96484375 42.15234375 C17.95582031 43.07144531 17.94679688 43.99054688 17.9375 44.9375 C17.92589844 45.85402344 17.91429688 46.77054688 17.90234375 47.71484375 C17.74050951 49.96593327 17.74050951 49.96593327 19 51 C20.27837961 62.06290046 17.34577547 73.89843411 12.8671875 83.94921875 C12.02055276 85.9513955 11.46879221 87.88086785 11 90 C10.34 90 9.68 90 9 90 C9.18175781 89.16339844 9.36351563 88.32679687 9.55078125 87.46484375 C10.22884447 84.32488945 10.89797688 81.18316473 11.56347656 78.04052734 C11.9888278 76.05222439 12.4273737 74.06717722 12.8671875 72.08203125 C14.394205 64.94867808 15.46384779 58.30130782 15 51 C13.68 51 12.36 51 11 51 C11.226875 49.906875 11.45375 48.81375 11.6875 47.6875 C12.4097665 44.16586868 12.4097665 44.16586868 10.8125 42.5 C10.214375 42.005 9.61625 41.51 9 41 C8.03923346 39.37663585 7.0844526 37.74897918 6.1796875 36.09375 C5.30933761 34.54902304 4.39014059 33.03158003 3.4453125 31.53125 C-1.71965169 23.32661789 -1.71965169 23.32661789 -2 18 C-2.66 18 -3.32 18 -4 18 C-3.40546697 5.33029613 -3.40546697 5.33029613 0 0 Z " fill="#5280BA" transform="translate(95,33)"/>
<path d="M0 0 C0.33 0 0.66 0 1 0 C1.13031664 4.09427106 0.78877273 7.48520622 -0.35546875 11.4140625 C-0.64583008 12.41711426 -0.93619141 13.42016602 -1.23535156 14.45361328 C-1.54956055 15.5001709 -1.86376953 16.54672852 -2.1875 17.625 C-2.50557617 18.69862793 -2.82365234 19.77225586 -3.15136719 20.87841797 C-5.34128266 28.13954253 -7.71924692 35.15007599 -11 42 C-11.32097656 42.67289063 -11.64195313 43.34578125 -11.97265625 44.0390625 C-12.62622163 45.37051197 -13.30769997 46.68827363 -14 48 C-14.66 48 -15.32 48 -16 48 C-16.98849063 30.86616248 -7.64471289 14.78537878 0 0 Z " fill="#E4F2F8" transform="translate(55,114)"/>
<path d="M0 0 C0.33 0 0.66 0 1 0 C1 3.3 1 6.6 1 10 C0.01 10.33 -0.98 10.66 -2 11 C-2 12.32 -2 13.64 -2 15 C0.03241727 14.36020151 0.03241727 14.36020151 2 13 C2.81171228 10.44480079 2.81171228 10.44480079 3 8 C3.66 8 4.32 8 5 8 C3.12802561 15.07663046 1.07892409 22.07657285 -1.1328125 29.0546875 C-2.35356474 33.20084601 -3.1358384 36.98553422 -3.0625 41.3125 C-3.041875 42.529375 -3.02125 43.74625 -3 45 C0.73487777 44.5020163 2.81237635 44.12508244 6 42 C4.125 46.875 4.125 46.875 3 48 C-0.5 48.125 -0.5 48.125 -4 48 C-6.41426178 45.58573822 -5.9295332 40.25153955 -6 37 C-5.0625 33.875 -5.0625 33.875 -4 32 C-4.99 32 -5.98 32 -7 32 C-6.835 31.401875 -6.67 30.80375 -6.5 30.1875 C-5.8885876 27.88655664 -5.8885876 27.88655664 -6 25 C-6.28875 25.763125 -6.5775 26.52625 -6.875 27.3125 C-8 30 -8 30 -10 33 C-10.66 33 -11.32 33 -12 33 C-8.36900622 21.8594509 -4.2370433 10.92254196 0 0 Z " fill="#ECF7FA" transform="translate(111,106)"/>
<path d="M0 0 C0.99 0.33 1.98 0.66 3 1 C1.02813774 12.26037133 -1.95108132 23.01818417 -6.5 33.5 C-6.92671997 34.48734131 -6.92671997 34.48734131 -7.36206055 35.49462891 C-9.21590769 39.63131262 -11.21025373 43.41318337 -14 47 C-14.99 47 -15.98 47 -17 47 C-17.33 45.68 -17.66 44.36 -18 43 C-18.66 43 -19.32 43 -20 43 C-20 40.03 -20 37.06 -20 34 C-19.34 34 -18.68 34 -18 34 C-18 32.68 -18 31.36 -18 30 C-17.34 30 -16.68 30 -16 30 C-16 33.96 -16 37.92 -16 42 C-15.34 42 -14.68 42 -14 42 C-13.71898437 41.1234375 -13.43796875 40.246875 -13.1484375 39.34375 C-12.1065333 36.3101786 -10.91835889 33.43271188 -9.625 30.5 C-6.80579061 23.81681538 -4.90144875 16.98823044 -3 10 C-2.42369743 8.03958612 -1.84121112 6.08096949 -1.25 4.125 C-1.00765625 3.32320313 -0.7653125 2.52140625 -0.515625 1.6953125 C-0.34546875 1.13585937 -0.1753125 0.57640625 0 0 Z " fill="#5F8EBF" transform="translate(55,120)"/>
<path d="M0 0 C1.32 0.66 2.64 1.32 4 2 C3.67 3.32 3.34 4.64 3 6 C2.34 6 1.68 6 1 6 C0.4740625 7.8253125 0.4740625 7.8253125 -0.0625 9.6875 C-3.35774445 19.55768973 -9.03016626 28.53726866 -15 37 C-15.33 35.68 -15.66 34.36 -16 33 C-15.34 33 -14.68 33 -14 33 C-14 32.01 -14 31.02 -14 30 C-13.34 30 -12.68 30 -12 30 C-12.2784375 29.13375 -12.2784375 29.13375 -12.5625 28.25 C-13.04023546 25.79307475 -12.75729364 24.35602466 -12 22 C-11.34 22 -10.68 22 -10 22 C-9.79697266 21.12601563 -9.79697266 21.12601563 -9.58984375 20.234375 C-7.61510144 12.71379949 -4.11380564 6.55954762 0 0 Z " fill="#6494C0" transform="translate(169,64)"/>
<path d="M0 0 C0.33 0.99 0.66 1.98 1 3 C1.66 3.33 2.32 3.66 3 4 C2.5563208 4.41121094 2.1126416 4.82242188 1.65551758 5.24609375 C-0.08094624 7.08575694 -1.23217332 8.87009306 -2.48828125 11.0625 C-2.94436768 11.85406494 -3.4004541 12.64562988 -3.87036133 13.46118164 C-4.34626709 14.2989917 -4.82217285 15.13680176 -5.3125 16 C-6.05052856 17.28668579 -6.05052856 17.28668579 -6.8034668 18.59936523 C-9.8234897 23.88053862 -12.77153614 29.19621738 -15.65234375 34.5546875 C-17.9787707 38.77597235 -20.48520601 42.88893607 -23 47 C-23.99 46.34 -24.98 45.68 -26 45 C-25.54173828 44.26523438 -25.54173828 44.26523438 -25.07421875 43.515625 C-21.42084449 37.54673184 -18.03638015 31.45617076 -14.6875 25.3125 C-10.00920999 16.73643799 -5.10896572 8.32572191 0 0 Z " fill="#75A1C7" transform="translate(90,48)"/>
<path d="M0 0 C0.33 0.66 0.66 1.32 1 2 C-0.95512669 5.89704307 -3.60218387 8.89788658 -6.5 12.125 C-12.80645189 19.38665209 -17.30888904 27.70911741 -21.921875 36.10571289 C-22.87517841 37.78068597 -23.93094978 39.39642467 -25 41 C-25.66 40.67 -26.32 40.34 -27 40 C-24.84889698 34.36471603 -21.98284262 29.2320859 -19 24 C-18.49597656 23.10796875 -17.99195312 22.2159375 -17.47265625 21.296875 C-12.65638194 13.24227444 -6.49342712 6.70667596 0 0 Z " fill="#709EC5" transform="translate(138,33)"/>
<path d="M0 0 C0.66 0.66 1.32 1.32 2 2 C1.87177785 7.76999663 -0.33583505 12.65093049 -2.45703125 17.95703125 C-5.666097 26.16790126 -8.25948295 34.62402007 -11 43 C-11.66 43 -12.32 43 -13 43 C-12.77255086 34.4184055 -10.16143018 27.18639062 -7.0625 19.25 C-6.15694406 16.88044061 -5.25197557 14.51065661 -4.34765625 12.140625 C-3.94554932 11.10454102 -3.54344238 10.06845703 -3.12915039 9.00097656 C-2.00858479 6.02281604 -0.98656443 3.0248997 0 0 Z " fill="#75A6CE" transform="translate(157,135)"/>
<path d="M0 0 C1.65 0.33 3.3 0.66 5 1 C4.67 2.32 4.34 3.64 4 5 C3.34 5 2.68 5 2 5 C1.938125 5.825 1.87625 6.65 1.8125 7.5 C0.9165297 11.35956436 -0.56041593 13.82115562 -2.74609375 17.0703125 C-3.99315141 18.98946042 -5.01412805 20.93654708 -6 23 C-6.99 23 -7.98 23 -9 23 C-9.33 23.99 -9.66 24.98 -10 26 C-10.99 26 -11.98 26 -13 26 C-12.4693329 21.98508444 -11.41890403 19.94871998 -8.75 16.9375 C-4.53468908 11.79221326 -2.27677199 6.20079375 0 0 Z " fill="#6B98C9" transform="translate(175,95)"/>
<path d="M0 0 C1.57421875 1.73046875 1.57421875 1.73046875 3 4 C2.70703125 6.11328125 2.70703125 6.11328125 1.8125 8.3125 C1.50828125 9.1065625 1.2040625 9.900625 0.890625 10.71875 C0.59671875 11.4715625 0.3028125 12.224375 0 13 C-0.309375 14.093125 -0.61875 15.18625 -0.9375 16.3125 C-1.86845635 19.54346616 -2.91060471 22.69525211 -4 25.875 C-5.68991998 30.88170323 -6.96417037 35.82085187 -8 41 C-10.31227389 37.73561333 -10.08017908 35.04704241 -9.47167969 31.18994141 C-8.65863273 27.41508051 -7.41675253 23.82148423 -6.125 20.1875 C-3.82231286 13.5161763 -1.71996801 6.84969717 0 0 Z " fill="#699AC4" transform="translate(129,69)"/>
<path d="M0 0 C0.33 0.66 0.66 1.32 1 2 C1.639375 1.814375 2.27875 1.62875 2.9375 1.4375 C3.9584375 1.2209375 3.9584375 1.2209375 5 1 C6 2 6 2 6.09765625 4.28515625 C6.08605469 5.20167969 6.07445313 6.11820312 6.0625 7.0625 C6.05347656 7.98160156 6.04445313 8.90070313 6.03515625 9.84765625 C6.02355469 10.55792969 6.01195313 11.26820312 6 12 C5.67 12 5.34 12 5 12 C5 9.03 5 6.06 5 3 C1.71584948 5.98445617 -0.2224979 8.91609589 -2.234375 12.859375 C-2.80800781 13.97441406 -3.38164063 15.08945313 -3.97265625 16.23828125 C-4.85244141 17.97658203 -4.85244141 17.97658203 -5.75 19.75 C-6.35199219 20.92433594 -6.95398438 22.09867188 -7.57421875 23.30859375 C-9.05636178 26.20230156 -10.53131604 29.09944438 -12 32 C-12.99 32 -13.98 32 -15 32 C-15 28.30085757 -13.94876543 26.99824459 -12 23.875 C-7.38959299 16.20041656 -3.71213587 8.13777317 0 0 Z " fill="#7EAACE" transform="translate(105,82)"/>
<path d="M0 0 C0.99 0 1.98 0 3 0 C2.20099966 4.33142291 1.08800666 8.56416268 -0.0625 12.8125 C-0.24876953 13.50537109 -0.43503906 14.19824219 -0.62695312 14.91210938 C-1.08321198 16.60845641 -1.54140954 18.3042818 -2 20 C1.73554543 17.90486747 1.73554543 17.90486747 4.625 14.8125 C5.07875 14.214375 5.5325 13.61625 6 13 C6.99 13 7.98 13 9 13 C7.60870061 17.86954788 5.13332746 20.16340273 1 23 C-1.8125 23.375 -1.8125 23.375 -4 23 C-5 22 -5 22 -5.21875 18.93359375 C-4.97587488 14.56617867 -3.97949079 11.13709762 -2.5 7.0625 C-2.26152344 6.37865234 -2.02304688 5.69480469 -1.77734375 4.99023438 C-1.19454118 3.32341903 -0.59862949 1.66119684 0 0 Z " fill="#6998C4" transform="translate(141,120)"/>
<path d="M0 0 C0.33 0.66 0.66 1.32 1 2 C2.32 1.67 3.64 1.34 5 1 C5.33 2.65 5.66 4.3 6 6 C4.68 5.34 3.36 4.68 2 4 C1.60208252 4.48879639 1.20416504 4.97759277 0.79418945 5.48120117 C-1.03020346 7.71896416 -2.85881053 9.95324703 -4.6875 12.1875 C-5.31333984 12.95642578 -5.93917969 13.72535156 -6.58398438 14.51757812 C-9.89097059 18.55175502 -13.22496134 22.39819447 -17 26 C-17.33 25.01 -17.66 24.02 -18 23 C-16.40968825 20.65669974 -14.80477891 18.5428075 -13 16.375 C-11.98288994 15.11993993 -10.96596308 13.86473138 -9.94921875 12.609375 C-9.19584229 11.68995117 -9.19584229 11.68995117 -8.42724609 10.75195312 C-6.51640051 8.40637874 -4.66165645 6.01937166 -2.8125 3.625 C-2.26207031 2.91601562 -1.71164063 2.20703125 -1.14453125 1.4765625 C-0.76683594 0.98929687 -0.38914063 0.50203125 0 0 Z " fill="#6B9DCA" transform="translate(139,115)"/>
<path d="M0 0 C0.99 0 1.98 0 3 0 C2.60298735 7.03478549 1.03430378 11.78983532 -2.4375 17.875 C-2.84548828 18.62007812 -3.25347656 19.36515625 -3.67382812 20.1328125 C-5.35218642 23.17740374 -7.06987054 26.10480582 -9 29 C-9.66 29 -10.32 29 -11 29 C-10.38178053 24.53696352 -8.61950078 20.88811453 -6.5625 16.9375 C-6.09360352 16.02000977 -6.09360352 16.02000977 -5.61523438 15.08398438 C-4.74759124 13.38721927 -3.87399931 11.69349982 -3 10 C-2.33076883 8.66795201 -1.66266769 7.33532534 -1 6 C-1.66 6 -2.32 6 -3 6 C-2.42655063 3.13275314 -2.1385485 2.1385485 0 0 Z " fill="#6495C1" transform="translate(201,54)"/>
<path d="M0 0 C0.66 0.33 1.32 0.66 2 1 C0.02 6.28 -1.96 11.56 -4 17 C-4.33 17 -4.66 17 -5 17 C-5 14.69 -5 12.38 -5 10 C-6.52448561 12.019036 -8.03197384 14.04487995 -9.5 16.10546875 C-9.995 16.79253906 -10.49 17.47960937 -11 18.1875 C-11.7425 19.22970703 -11.7425 19.22970703 -12.5 20.29296875 C-14 22 -14 22 -17 23 C-15.51322484 18.54798052 -13.05968085 15.14627377 -10.1875 11.5 C-9.76146484 10.94441406 -9.33542969 10.38882813 -8.89648438 9.81640625 C-6.1469146 6.28065087 -3.22728401 3.10560903 0 0 Z " fill="#E1F3F8" transform="translate(139,36)"/>
<path d="M0 0 C0.66 0 1.32 0 2 0 C2 3.96 2 7.92 2 12 C2.66 12 3.32 12 4 12 C4.4021875 10.6078125 4.4021875 10.6078125 4.8125 9.1875 C5.91148371 6.23759634 6.62418561 4.94384814 9 3 C9.671875 4.671875 9.671875 4.671875 10 7 C8.890625 9.578125 8.890625 9.578125 7.25 12.25 C6.71890625 13.14203125 6.1878125 14.0340625 5.640625 14.953125 C5.09921875 15.62859375 4.5578125 16.3040625 4 17 C3.01 17 2.02 17 1 17 C0.67 15.68 0.34 14.36 0 13 C-0.66 13 -1.32 13 -2 13 C-2 10.03 -2 7.06 -2 4 C-1.34 4 -0.68 4 0 4 C0 2.68 0 1.36 0 0 Z " fill="#5A88BD" transform="translate(37,150)"/>
<path d="M0 0 C0.99 0.33 1.98 0.66 3 1 C3.125 4.375 3.125 4.375 3 8 C2.34 8.66 1.68 9.32 1 10 C-0.87643533 15.80100595 -1.42480706 21.96047415 -2 28 C-2.33 28 -2.66 28 -3 28 C-5.12136074 19.77972712 -4.15711773 11.12248034 -2 3 C-1.34 2.01 -0.68 1.02 0 0 Z " fill="#5884BB" transform="translate(67,27)"/>
<path d="M0 0 C0.33 0 0.66 0 1 0 C2.0017127 10.27911343 2.84364153 20.92676138 0 31 C0.66 31 1.32 31 2 31 C2 30.01 2 29.02 2 28 C2.99 28.33 3.98 28.66 5 29 C4.02526874 30.66926454 3.04510211 32.33535642 2.0625 34 C1.51722656 34.928125 0.97195312 35.85625 0.41015625 36.8125 C-0.05519531 37.534375 -0.52054688 38.25625 -1 39 C-1.33 39 -1.66 39 -2 39 C-1.85896246 34.74982701 -1.71126901 30.49990883 -1.5625 26.25 C-1.52318359 25.06277344 -1.48386719 23.87554687 -1.44335938 22.65234375 C-1.17428135 15.07676256 -0.70703036 7.54744068 0 0 Z " fill="#D7EBF6" transform="translate(64,57)"/>
<path d="M0 0 C1 3 1 3 -0.2578125 5.6015625 C-0.87398437 6.59929687 -1.49015625 7.59703125 -2.125 8.625 C-4.33373458 12.25675329 -6.5031871 15.87259992 -8.5 19.625 C-11.27605992 24.68504232 -14.61791169 29.33135359 -18 34 C-18.33 33.34 -18.66 32.68 -19 32 C-18.01538086 29.69677734 -18.01538086 29.69677734 -16.46484375 26.8359375 C-15.90216797 25.79566406 -15.33949219 24.75539063 -14.75976562 23.68359375 C-14.15841797 22.59175781 -13.55707031 21.49992187 -12.9375 20.375 C-12.07608398 18.77205078 -12.07608398 18.77205078 -11.19726562 17.13671875 C-7.87765277 11.05138559 -4.37484377 5.38334671 0 0 Z " fill="#C6E8F5" transform="translate(199,60)"/>
<path d="M0 0 C-0.21298447 3.39197496 -1.20734407 4.18565536 -3.80078125 6.5078125 C-4.96343248 7.39073807 -6.13437385 8.26283168 -7.3125 9.125 C-7.89451172 9.56714844 -8.47652344 10.00929688 -9.07617188 10.46484375 C-11.93310607 12.60673552 -14.72425727 14.56029085 -18 16 C-18 16.66 -18 17.32 -18 18 C-18.66 18 -19.32 18 -20 18 C-20.33 18.99 -20.66 19.98 -21 21 C-21.99 21 -22.98 21 -24 21 C-21.39171079 14.51653825 -7.41463703 0 0 0 Z " fill="#6D9DC5" transform="translate(222,113)"/>
<path d="M0 0 C0.33 0 0.66 0 1 0 C2.90530379 6.18442871 0.65663457 11.05401578 -1.4375 16.875 C-1.77587891 17.84953125 -2.11425781 18.8240625 -2.46289062 19.828125 C-3.29650293 22.22329276 -4.14243768 24.61332488 -5 27 C-5.66 26.67 -6.32 26.34 -7 26 C-6.16377474 17.01057849 -2.85451861 8.5123537 0 0 Z " fill="#6793C0" transform="translate(137,45)"/>
<path d="M0 0 C0.66 0 1.32 0 2 0 C2.33 2.64 2.66 5.28 3 8 C5.71224618 6.38731308 8.37352812 4.75098126 11 3 C11.99 3 12.98 3 14 3 C12.43542435 7.22435427 9.656574 9.49058647 6 12 C3.1875 11.9375 3.1875 11.9375 1 11 C-0.20272819 8.59454362 -0.10071472 7.05003047 -0.0625 4.375 C-0.05347656 3.55773437 -0.04445313 2.74046875 -0.03515625 1.8984375 C-0.02355469 1.27195313 -0.01195313 0.64546875 0 0 Z " fill="#6396C6" transform="translate(66,158)"/>
<path d="M0 0 C4.29 0 8.58 0 13 0 C12 4 12 4 9 6 C2.66666667 6.33333333 2.66666667 6.33333333 0 5 C0 3.35 0 1.7 0 0 Z " fill="#797979" transform="translate(98,0)"/>
<path d="M0 0 C0.66 0 1.32 0 2 0 C1.51572601 5.32701387 0.48564258 9.90846873 -1.30078125 14.9453125 C-2.09123318 17.26809304 -2.60947095 19.5787199 -3 22 C-3.33 20.68 -3.66 19.36 -4 18 C-4.66 18 -5.32 18 -6 18 C-6.33 19.32 -6.66 20.64 -7 22 C-6.44147333 16.5632024 -5.06042383 12.0816633 -2.9375 7.0625 C-2.65583984 6.37865234 -2.37417969 5.69480469 -2.08398438 4.99023438 C-1.3964595 3.32386054 -0.69923825 1.66149273 0 0 Z " fill="#6A8ABD" transform="translate(43,132)"/>
<path d="M0 0 C1 2 1 2 0.00390625 5.4765625 C-0.46900047 6.86197936 -0.94981644 8.24471547 -1.4375 9.625 C-1.68048828 10.33140625 -1.92347656 11.0378125 -2.17382812 11.765625 C-2.77587205 13.51273287 -3.38708017 15.25667786 -4 17 C-4.66 16.34 -5.32 15.68 -6 15 C-8.10820797 15.3185177 -8.10820797 15.3185177 -10 16 C-10 11.05305306 -8.10455606 9.25730927 -5 5.75 C-4.52304688 5.19570312 -4.04609375 4.64140625 -3.5546875 4.0703125 C-2.37852497 2.70596396 -1.19039499 1.35194859 0 0 Z " fill="#D3EDF5" transform="translate(141,118)"/>
<path d="M0 0 C0.33 1.32 0.66 2.64 1 4 C0.34 4 -0.32 4 -1 4 C-1.33 5.65 -1.66 7.3 -2 9 C-2.99 9.33 -3.98 9.66 -5 10 C-5.226875 10.825 -5.45375 11.65 -5.6875 12.5 C-7.61731975 17.64618599 -11.24270646 21.06794862 -15 25 C-15.66 24.67 -16.32 24.34 -17 24 C-16.05016642 22.49460339 -15.08988109 20.99579653 -14.125 19.5 C-13.59132812 18.6646875 -13.05765625 17.829375 -12.5078125 16.96875 C-12.01023438 16.3190625 -11.51265625 15.669375 -11 15 C-10.34 15 -9.68 15 -9 15 C-8.74476563 14.28457031 -8.48953125 13.56914063 -8.2265625 12.83203125 C-6.9123112 9.79753382 -5.30503984 7.36811089 -3.375 4.6875 C-2.74335938 3.80449219 -2.11171875 2.92148438 -1.4609375 2.01171875 C-0.97882813 1.34785156 -0.49671875 0.68398437 0 0 Z " fill="#DFF2F9" transform="translate(189,86)"/>
<path d="M0 0 C3.55208993 7.10417986 3.93636321 15.2662827 2 23 C0.02 23.99 0.02 23.99 -2 25 C-1.34 16.75 -0.68 8.5 0 0 Z " fill="#6593C2" transform="translate(62,46)"/>
<path d="M0 0 C4.29 0 8.58 0 13 0 C12 4 12 4 11 5 C9.31391034 5.07205511 7.62499341 5.08386068 5.9375 5.0625 C5.01839844 5.05347656 4.09929688 5.04445313 3.15234375 5.03515625 C2.44207031 5.02355469 1.73179688 5.01195312 1 5 C0.67 3.35 0.34 1.7 0 0 Z " fill="#6A6A6A" transform="translate(51,0)"/>
<path d="M0 0 C0.33 0 0.66 0 1 0 C1.24511382 4.91759604 0.34512067 9.18525495 -1 13.875 C-1.19078125 14.56335938 -1.3815625 15.25171875 -1.578125 15.9609375 C-2.04523728 17.64254171 -2.5216642 19.32155385 -3 21 C-3.33 21 -3.66 21 -4 21 C-4.33 19.35 -4.66 17.7 -5 16 C-5.33 16.66 -5.66 17.32 -6 18 C-6.66 18 -7.32 18 -8 18 C-6.65150163 13.64029169 -4.95092154 9.68658562 -2.875 5.625 C-2.33617187 4.56539063 -1.79734375 3.50578125 -1.2421875 2.4140625 C-0.83226562 1.61742188 -0.42234375 0.82078125 0 0 Z " fill="#D2EBF6" transform="translate(55,114)"/>
<path d="M0 0 C0.33 0.99 0.66 1.98 1 3 C1.66 3.33 2.32 3.66 3 4 C2.58878906 4.35835937 2.17757812 4.71671875 1.75390625 5.0859375 C-1.07450542 8.17262285 -3.01575625 11.84265468 -5.12695312 15.4375 C-7.79626967 19.89813484 -7.79626967 19.89813484 -10 21 C-9.52195518 15.41991316 -7.35840734 11.74119659 -4.4375 7.125 C-4.01275391 6.43664063 -3.58800781 5.74828125 -3.15039062 5.0390625 C-2.1089225 3.35399048 -1.05564084 1.67622969 0 0 Z " fill="#6B9BC4" transform="translate(90,48)"/>
<path d="M0 0 C0.66 0 1.32 0 2 0 C1.10770277 5.15678268 -2.17402479 8.60172527 -6 12 C-9.4375 13 -9.4375 13 -12 13 C-12 11.02 -12 9.04 -12 7 C-10.02 7.99 -10.02 7.99 -8 9 C-7.44570312 8.3503125 -6.89140625 7.700625 -6.3203125 7.03125 C-5.59585938 6.1959375 -4.87140625 5.360625 -4.125 4.5 C-3.40570313 3.6646875 -2.68640625 2.829375 -1.9453125 1.96875 C-1.30335937 1.3190625 -0.66140625 0.669375 0 0 Z " fill="#5687BC" transform="translate(120,139)"/>
<path d="M0 0 C0.33 0 0.66 0 1 0 C1.76733686 7.55400505 0.13097133 13.16607919 -2.80859375 20.1171875 C-3.76554726 22.43270124 -4.48688688 24.55828929 -5 27 C-5.66 27 -6.32 27 -7 27 C-6.52168603 24.74981858 -6.04231736 22.49986133 -5.5625 20.25 C-5.29566406 18.99703125 -5.02882813 17.7440625 -4.75390625 16.453125 C-4.2083765 13.95442915 -3.64361188 11.47446899 -3 9 C-2.34 9 -1.68 9 -1 9 C-0.67 6.03 -0.34 3.06 0 0 Z " fill="#517FB4" transform="translate(111,96)"/>
<path d="M0 0 C0.33 0.66 0.66 1.32 1 2 C1.66 2 2.32 2 3 2 C2.29445932 5.66881155 0.72264494 8.70450534 -1 12 C-3.0625 10.3125 -3.0625 10.3125 -5 8 C-4.75 5.25 -4.75 5.25 -4 3 C-3.34 3 -2.68 3 -2 3 C-1.67 2.34 -1.34 1.68 -1 1 C-0.67 0.67 -0.34 0.34 0 0 Z " fill="#E7F3F5" transform="translate(111,63)"/>
<path d="M0 0 C-0.94285714 6.91428571 -0.94285714 6.91428571 -3 10 C-3.99 10.33 -4.98 10.66 -6 11 C-6 10.34 -6 9.68 -6 9 C-6.66 9 -7.32 9 -8 9 C-7.64598897 5.81390075 -7.16972964 4.20933322 -5.125 1.6875 C-3 0 -3 0 0 0 Z " fill="#578DC4" transform="translate(176,55)"/>
<path d="M0 0 C0.66 0 1.32 0 2 0 C3.65 3.63 5.3 7.26 7 11 C6.01 11.495 6.01 11.495 5 12 C5 11.34 5 10.68 5 10 C4.01 10 3.02 10 2 10 C2 8.68 2 7.36 2 6 C0.04105639 6.11306697 0.04105639 6.11306697 -2 7 C-3.29660434 9.49034386 -3.29660434 9.49034386 -4 12 C-4.66 12 -5.32 12 -6 12 C-4.68448876 7.39571066 -2.90803514 3.81679612 0 0 Z " fill="#D6EDF5" transform="translate(91,52)"/>
<path d="M0 0 C0.33 0 0.66 0 1 0 C1 4.66666667 1 9.33333333 1 14 C-0.32267727 15.01405257 -1.65724831 16.01268258 -3 17 C-4.96450034 20.04497553 -5 21.1849907 -5 25 C-5.99 25 -6.98 25 -8 25 C-7.608125 23.845 -7.21625 22.69 -6.8125 21.5 C-4.43156272 14.36863498 -2.22887522 7.17997354 0 0 Z " fill="#DDEFF7" transform="translate(146,28)"/>
<path d="M0 0 C1.37432457 3.81756824 0.67975039 7.07255329 0 11 C0.66 11 1.32 11 2 11 C1.67 10.01 1.34 9.02 1 8 C2.75 5.9375 2.75 5.9375 5 4 C7.140625 4.37890625 7.140625 4.37890625 9 5 C7.5484451 6.67257355 6.08855591 8.33791758 4.625 10 C3.81289062 10.928125 3.00078125 11.85625 2.1640625 12.8125 C1.44992188 13.534375 0.73578125 14.25625 0 15 C-0.66 15 -1.32 15 -2 15 C-1.85879286 13.06215735 -1.71187127 11.12473045 -1.5625 9.1875 C-1.48128906 8.10855469 -1.40007812 7.02960938 -1.31640625 5.91796875 C-1 3 -1 3 0 0 Z " fill="#CEE5F3" transform="translate(112,134)"/>
<path d="M0 0 C1.65 0.33 3.3 0.66 5 1 C4.67 2.32 4.34 3.64 4 5 C3.34 5 2.68 5 2 5 C1.896875 5.94875 1.79375 6.8975 1.6875 7.875 C1 11 1 11 -2 13 C-3.46845421 7.52667068 -2.44038726 4.88077452 0 0 Z " fill="#5088C1" transform="translate(175,95)"/>
<path d="M0 0 C0.33 0 0.66 0 1 0 C0.59060025 6.76215448 -0.56953809 12.67162748 -3 19 C-3.66 19 -4.32 19 -5 19 C-4.70245971 11.87391001 -3.28874656 6.3327492 0 0 Z " fill="#729CBD" transform="translate(149,159)"/>
<path d="M0 0 C0.33 0.99 0.66 1.98 1 3 C-0.87109375 5.69921875 -0.87109375 5.69921875 -3.4375 8.6875 C-4.28183594 9.68136719 -5.12617187 10.67523438 -5.99609375 11.69921875 C-6.98802734 12.83810547 -6.98802734 12.83810547 -8 14 C-8.66 13.01 -9.32 12.02 -10 11 C-8.71284028 9.35063952 -7.42012981 7.70560953 -6.125 6.0625 C-5.04605469 4.68771484 -5.04605469 4.68771484 -3.9453125 3.28515625 C-2 1 -2 1 0 0 Z " fill="#6A99C6" transform="translate(131,127)"/>
<path d="M0 0 C0.66 0.99 1.32 1.98 2 3 C0.625 5.5 0.625 5.5 -1 8 C-1.66 8 -2.32 8 -3 8 C-2.938125 9.423125 -2.938125 9.423125 -2.875 10.875 C-2.875 15.64613127 -3.58515956 20.44106971 -5 25 C-5.66 25.33 -6.32 25.66 -7 26 C-5.57446809 7.46808511 -5.57446809 7.46808511 0 0 Z " fill="#E4F5FB" transform="translate(66,95)"/>
<path d="M0 0 C0.66 0 1.32 0 2 0 C2.02715383 1.74991334 2.04646551 3.49994945 2.0625 5.25 C2.07410156 6.22453125 2.08570313 7.1990625 2.09765625 8.203125 C2.01195577 10.65758678 1.70706066 12.66168914 1 15 C0.01 15 -0.98 15 -2 15 C-1.67 12.36 -1.34 9.72 -1 7 C-1.66 7 -2.32 7 -3 7 C-1.125 1.125 -1.125 1.125 0 0 Z " fill="#5586C3" transform="translate(58,106)"/>
<path d="M0 0 C0.5534764 2.07553648 1 3.84365964 1 6 C1.99 6 2.98 6 4 6 C4.33 6.99 4.66 7.98 5 9 C0.375 13 0.375 13 -3 13 C-2.52060632 8.28596212 -2.03165952 4.33420699 0 0 Z " fill="#DBECF2" transform="translate(72,153)"/>
<path d="M0 0 C1 3 1 3 -0.546875 6.6875 C-1.27090577 8.13023779 -2.00575578 9.56758476 -2.75 11 C-3.29140625 12.08667969 -3.29140625 12.08667969 -3.84375 13.1953125 C-5.59685665 16.63800744 -7.14073527 19.35064565 -10 22 C-8.68026152 16.8404194 -6.87965645 12.34818092 -4.4375 7.625 C-3.96280273 6.68333984 -3.96280273 6.68333984 -3.47851562 5.72265625 C-1.15546016 1.15546016 -1.15546016 1.15546016 0 0 Z " fill="#A2D5EC" transform="translate(168,66)"/>
<path d="M0 0 C1.65 0 3.3 0 5 0 C4.21494099 2.12744999 3.4217394 4.25189674 2.625 6.375 C2.18414062 7.55835938 1.74328125 8.74171875 1.2890625 9.9609375 C0 13 0 13 -2 15 C-2.21755666 9.5610835 -2.10428384 5.12919186 0 0 Z " fill="#EAF5F6" transform="translate(69,141)"/>
<path d="M0 0 C0.33 0.99 0.66 1.98 1 3 C0.67 3.66 0.34 4.32 0 5 C-0.99 5 -1.98 5 -3 5 C-3.33 6.32 -3.66 7.64 -4 9 C-7.01031744 9.93423645 -7.86650268 10.04449911 -11 9 C-11 7.02 -11 5.04 -11 3 C-9.68 3.33 -8.36 3.66 -7 4 C-7.99 5.32 -8.98 6.64 -10 8 C-9.01 7.67 -8.02 7.34 -7 7 C-6.67 6.34 -6.34 5.68 -6 5 C-5.34 5 -4.68 5 -4 5 C-4 4.34 -4 3.68 -4 3 C-2 1.375 -2 1.375 0 0 Z " fill="#DEF0F7" transform="translate(208,126)"/>
<path d="M0 0 C0.33 0 0.66 0 1 0 C1 3.3 1 6.6 1 10 C0.01 10.33 -0.98 10.66 -2 11 C-2.80212628 12.87387216 -2.80212628 12.87387216 -3.1875 15.0625 C-3.34605469 15.79597656 -3.50460938 16.52945313 -3.66796875 17.28515625 C-3.77753906 17.85105469 -3.88710937 18.41695312 -4 19 C-4.66 19 -5.32 19 -6 19 C-4.47214176 12.40095271 -2.92382423 6.12610791 0 0 Z " fill="#CDE4F4" transform="translate(111,106)"/>
<path d="M0 0 C0.99 0 1.98 0 3 0 C2.91291331 1.45945288 2.80473093 2.91765868 2.6875 4.375 C2.62949219 5.18710937 2.57148438 5.99921875 2.51171875 6.8359375 C2 9 2 9 -1 11 C-1 9.35 -1 7.7 -1 6 C-1.66 6 -2.32 6 -3 6 C-2.42655063 3.13275314 -2.1385485 2.1385485 0 0 Z " fill="#538BC2" transform="translate(201,54)"/>
<path d="M0 0 C0.99 0.33 1.98 0.66 3 1 C3.45543788 6.69297345 2.58764877 9.54261819 -1 14 C-1.33 14 -1.66 14 -2 14 C-2 11.69 -2 9.38 -2 7 C-1.34 7 -0.68 7 0 7 C-0.185625 6.030625 -0.37125 5.06125 -0.5625 4.0625 C-0.706875 3.051875 -0.85125 2.04125 -1 1 C-0.67 0.67 -0.34 0.34 0 0 Z " fill="#4D71B5" transform="translate(67,27)"/>
<path d="M0 0 C1.51460611 5.25522425 0.69386582 9.47349519 -1.5625 14.4375 C-2.036875 15.283125 -2.51125 16.12875 -3 17 C-3.66 16.67 -4.32 16.34 -5 16 C-4.34309381 12.21760329 -3.279869 8.78158474 -1.9375 5.1875 C-1.57527344 4.21167969 -1.21304688 3.23585938 -0.83984375 2.23046875 C-0.42412109 1.12638672 -0.42412109 1.12638672 0 0 Z " fill="#6792C5" transform="translate(104,117)"/>
<path d="M0 0 C0.99 0 1.98 0 3 0 C2.88590407 1.45922693 2.75834456 2.91740598 2.625 4.375 C2.55539063 5.18710937 2.48578125 5.99921875 2.4140625 6.8359375 C2 9 2 9 0 11 C0 9.68 0 8.36 0 7 C-0.66 7 -1.32 7 -2 7 C-2.33 7.99 -2.66 8.98 -3 10 C-2.49287967 6.28111761 -1.88391785 3.26545761 0 0 Z " fill="#5988C1" transform="translate(95,33)"/>
<path d="M0 0 C0.99 0.33 1.98 0.66 3 1 C2.67386719 1.4846875 2.34773437 1.969375 2.01171875 2.46875 C-1.05924317 7.17937005 -3.19345596 11.67544916 -5 17 C-5.33 17 -5.66 17 -6 17 C-5.46148032 11.72250715 -4.22656164 7.74354436 -2 3 C-1.34 3 -0.68 3 0 3 C0 2.01 0 1.02 0 0 Z " fill="#DAEEF7" transform="translate(164,63)"/>
<path d="M0 0 C0.66 0.66 1.32 1.32 2 2 C1.625 4.625 1.625 4.625 1 7 C0.34 7 -0.32 7 -1 7 C-1.33 9.64 -1.66 12.28 -2 15 C-1.34 15.33 -0.68 15.66 0 16 C-1.32 16.33 -2.64 16.66 -4 17 C-3.58411954 10.80481527 -2.39748106 5.73310689 0 0 Z " fill="#CFE8F4" transform="translate(143,123)"/>
<path d="M0 0 C0.66 0 1.32 0 2 0 C2 3.96 2 7.92 2 12 C0.68 11.67 -0.64 11.34 -2 11 C-1.125 3.375 -1.125 3.375 0 0 Z " fill="#3E71BB" transform="translate(93,40)"/>
<path d="M0 0 C0.66 0 1.32 0 2 0 C0.57250019 3.79049707 -1.16236542 7.27122456 -3.125 10.8125 C-3.93324219 12.27623047 -3.93324219 12.27623047 -4.7578125 13.76953125 C-5.37269531 14.87361328 -5.37269531 14.87361328 -6 16 C-6.625 14.1875 -6.625 14.1875 -7 12 C-6.34 11.01 -5.68 10.02 -5 9 C-4.690625 7.96875 -4.38125 6.9375 -4.0625 5.875 C-3.711875 4.92625 -3.36125 3.9775 -3 3 C-2.01 2.67 -1.02 2.34 0 2 C0 1.34 0 0.68 0 0 Z " fill="#E0F1F7" transform="translate(89,46)"/>
<path d="M0 0 C0.99 0 1.98 0 3 0 C1.69659855 3.91020436 0.33188599 6.50108551 -3 9 C-6.25 9.25 -6.25 9.25 -9 9 C-8.2575 8.443125 -7.515 7.88625 -6.75 7.3125 C-3.92284425 5.10106693 -3.92284425 5.10106693 -1.875 2.25 C-1.25625 1.5075 -0.6375 0.765 0 0 Z " fill="#5785B7" transform="translate(147,133)"/>
<path d="M0 0 C-0.46671627 5.41390868 -1.24297811 9.20517932 -4 14 C-4.33 14 -4.66 14 -5 14 C-5.29787234 5.21276596 -5.29787234 5.21276596 -3 1 C-1 0 -1 0 0 0 Z " fill="#5C86B9" transform="translate(143,36)"/>
<path d="M0 0 C1.32 0.33 2.64 0.66 4 1 C3.06862408 2.29608947 2.1296434 3.58671632 1.1875 4.875 C0.66542969 5.59429687 0.14335938 6.31359375 -0.39453125 7.0546875 C-2 9 -2 9 -5 11 C-4.25 5.25 -4.25 5.25 -2 3 C-1.01 3 -0.02 3 1 3 C0.67 2.01 0.34 1.02 0 0 Z " fill="#E6F3F6" transform="translate(82,150)"/>
<path d="M0 0 C0.33 0 0.66 0 1 0 C1.33 1.65 1.66 3.3 2 5 C5.73487777 4.5020163 7.81237635 4.12508244 11 2 C9.125 6.875 9.125 6.875 8 8 C4.5 8.125 4.5 8.125 1 8 C0 7 0 7 -0.0625 3.4375 C-0.041875 2.303125 -0.02125 1.16875 0 0 Z " fill="#D2E8F2" transform="translate(106,146)"/>
<path d="M0 0 C0.99 0 1.98 0 3 0 C3.6875 1.75 3.6875 1.75 4 4 C2.5625 6.25 2.5625 6.25 1 8 C1 7.01 1 6.02 1 5 C-0.32 5.33 -1.64 5.66 -3 6 C-2.42655063 3.13275314 -2.1385485 2.1385485 0 0 Z " fill="#578EC7" transform="translate(143,111)"/>
<path d="M0 0 C2.16750011 3.25125017 2.68533358 5.14533632 3 9 C2.0625 11.375 2.0625 11.375 1 13 C0.34 13 -0.32 13 -1 13 C-1.07654536 8.48382401 -1.10228696 4.40914783 0 0 Z " fill="#D7ECF5" transform="translate(40,149)"/>
<path d="M0 0 C-0.33 1.65 -0.66 3.3 -1 5 C-1.66 5 -2.32 5 -3 5 C-3.33 5.99 -3.66 6.98 -4 8 C-4.99 8 -5.98 8 -7 8 C-6.62952882 5.25851328 -6.31412056 3.41406801 -4.625 1.1875 C-3 0 -3 0 0 0 Z " fill="#548ECA" transform="translate(169,113)"/>
<path d="M0 0 C2.64 0 5.28 0 8 0 C8 1.32 8 2.64 8 4 C5.69 4 3.38 4 1 4 C0.67 2.68 0.34 1.36 0 0 Z " fill="#EBEAEA" transform="translate(100,0)"/>
<path d="M0 0 C0.33 1.32 0.66 2.64 1 4 C-1.31 5.98 -3.62 7.96 -6 10 C-6.66 9.67 -7.32 9.34 -8 9 C-5.36 6.03 -2.72 3.06 0 0 Z " fill="#DAEFF8" transform="translate(125,138)"/>
<path d="M0 0 C1 2 1 2 0.3125 4.25 C-1.19637093 7.41144386 -2.90874166 10.18987161 -5 13 C-5.66 13 -6.32 13 -7 13 C-5.35821735 8.22390502 -2.73453298 4.20617096 0 0 Z " fill="#D8EEF6" transform="translate(74,82)"/>
<path d="M0 0 C2.64 0 5.28 0 8 0 C7.67 1.32 7.34 2.64 7 4 C5.02 4 3.04 4 1 4 C0.67 2.68 0.34 1.36 0 0 Z " fill="#E8E8E8" transform="translate(53,0)"/>
<path d="M0 0 C0.66 0 1.32 0 2 0 C0.50829734 4.9723422 -1.60457417 9.41845739 -4 14 C-4.66 14 -5.32 14 -6 14 C-4.50829734 9.0276578 -2.39542583 4.58154261 0 0 Z " fill="#D3E9F4" transform="translate(83,129)"/>
<path d="M0 0 C0.33 0.66 0.66 1.32 1 2 C0.22265625 4.1640625 0.22265625 4.1640625 -0.9375 6.625 C-1.31777344 7.44226563 -1.69804687 8.25953125 -2.08984375 9.1015625 C-2.39019531 9.72804687 -2.69054687 10.35453125 -3 11 C-3.33 10.01 -3.66 9.02 -4 8 C-4.66 8 -5.32 8 -6 8 C-4.55746343 4.63408134 -2.66735273 2.48952921 0 0 Z " fill="#C6E4F1" transform="translate(162,122)"/>
<path d="M0 0 C1 2 1 2 0.3125 4.5625 C-1 7 -1 7 -3.125 7.8125 C-3.74375 7.874375 -4.3625 7.93625 -5 8 C-5 6.68 -5 5.36 -5 4 C-2.5 1.75 -2.5 1.75 0 0 Z " fill="#ECF4F3" transform="translate(136,126)"/>
<path d="M0 0 C0.33 0 0.66 0 1 0 C1.33 4.29 1.66 8.58 2 13 C1.34 13 0.68 13 0 13 C-0.33 14.65 -0.66 16.3 -1 18 C-1.33 18 -1.66 18 -2 18 C-2.23268915 11.71739294 -1.40454548 6.11980533 0 0 Z " fill="#5E8AC2" transform="translate(111,87)"/>
<path d="M0 0 C0.99 0.66 1.98 1.32 3 2 C1.8758824 3.29243468 0.75067408 4.58392075 -0.375 5.875 C-1.00148437 6.59429687 -1.62796875 7.31359375 -2.2734375 8.0546875 C-3.47426834 9.4076598 -4.7208345 10.7208345 -6 12 C-6 10.35 -6 8.7 -6 7 C-5.01 6.67 -4.02 6.34 -3 6 C-3 5.34 -3 4.68 -3 4 C-2.34 4 -1.68 4 -1 4 C-0.67 2.68 -0.34 1.36 0 0 Z " fill="#DFF1F8" transform="translate(197,54)"/>
<path d="M0 0 C0.33 0 0.66 0 1 0 C1.0272415 1.41655793 1.04650467 2.83327045 1.0625 4.25 C1.07410156 5.03890625 1.08570313 5.8278125 1.09765625 6.640625 C1.00385306 8.90691002 0.63241063 10.8288895 0 13 C-0.99 13 -1.98 13 -3 13 C-2.68817931 11.58318366 -2.37551263 10.16655349 -2.0625 8.75 C-1.88847656 7.96109375 -1.71445313 7.1721875 -1.53515625 6.359375 C-1.052444 4.23121297 -0.53836822 2.11467158 0 0 Z " fill="#D6EBF5" transform="translate(149,165)"/>
<path d="M0 0 C0.66 0 1.32 0 2 0 C2.66 3.63 3.32 7.26 4 11 C3.01 11 2.02 11 1 11 C-0.20272819 8.59454362 -0.10071472 7.05003047 -0.0625 4.375 C-0.05347656 3.55773437 -0.04445313 2.74046875 -0.03515625 1.8984375 C-0.02355469 1.27195313 -0.01195313 0.64546875 0 0 Z " fill="#4C73B7" transform="translate(66,158)"/>
<path d="M0 0 C0 1.98 0 3.96 0 6 C0.66 6.33 1.32 6.66 2 7 C2.33 7.66 2.66 8.32 3 9 C1.33388095 9.042721 -0.33382885 9.04063832 -2 9 C-3 8 -3 8 -3.0625 4.4375 C-3.041875 3.303125 -3.02125 2.16875 -3 1 C-1 0 -1 0 0 0 Z " fill="#5C90C1" transform="translate(139,134)"/>
<path d="M0 0 C0.66 0.99 1.32 1.98 2 3 C1.01 3.33 0.02 3.66 -1 4 C-1 4.66 -1 5.32 -1 6 C-1.66 6 -2.32 6 -3 6 C-3.33 6.99 -3.66 7.98 -4 9 C-4.99 9 -5.98 9 -7 9 C-5.44499019 5.18315774 -2.96404505 2.80804268 0 0 Z " fill="#78A1BD" transform="translate(205,125)"/>
<path d="M0 0 C0.33 0 0.66 0 1 0 C1 3.62269357 0.90267032 6.50215253 0 10 C-0.33 9.67 -0.66 9.34 -1 9 C-1.33 9.66 -1.66 10.32 -2 11 C-2.66 11 -3.32 11 -4 11 C-3.49172849 6.62886504 -2.54826592 3.61004338 0 0 Z " fill="#6497C9" transform="translate(56,107)"/>
<path d="M0 0 C0.99 0 1.98 0 3 0 C1.68 5.61 0.36 11.22 -1 17 C-1.33 17 -1.66 17 -2 17 C-2.25706972 11.08739655 -1.2982126 5.76081841 0 0 Z " fill="#DDF1F8" transform="translate(118,96)"/>
<path d="M0 0 C0.33 0 0.66 0 1 0 C1.10655578 6.44070471 0.96205088 12.62641289 0 19 C-1.625 17.375 -1.625 17.375 -3 15 C-2.25 12.3125 -2.25 12.3125 -1 9 C-0.54006466 6.01042028 -0.2544694 3.01345343 0 0 Z " fill="#D6ECF5" transform="translate(61,47)"/>
<path d="M0 0 C1.32 0.33 2.64 0.66 4 1 C1.69 3.64 -0.62 6.28 -3 9 C-3.33 7.68 -3.66 6.36 -4 5 C-2.625 3.375 -2.625 3.375 -1 2 C-0.67 1.34 -0.34 0.68 0 0 Z " fill="#EAF5F6" transform="translate(158,117)"/>
<path d="M0 0 C0.66 0.99 1.32 1.98 2 3 C1.67 3.66 1.34 4.32 1 5 C1.66 5.33 2.32 5.66 3 6 C1.02 8.97 -0.96 11.94 -3 15 C-3.33 13.68 -3.66 12.36 -4 11 C-3.34 11 -2.68 11 -2 11 C-2 10.01 -2 9.02 -2 8 C-1.34 8 -0.68 8 0 8 C-0.185625 7.4225 -0.37125 6.845 -0.5625 6.25 C-1.04023546 3.79307475 -0.75729364 2.35602466 0 0 Z " fill="#689ED1" transform="translate(157,86)"/>
<path d="M0 0 C0.33 0.66 0.66 1.32 1 2 C1.66 2.33 2.32 2.66 3 3 C2.01 5.97 1.02 8.94 0 12 C-2.61577816 6.76844369 -1.6207859 5.40261966 0 0 Z " fill="#7DA9CC" transform="translate(151,151)"/>
<path d="M0 0 C0.33 0 0.66 0 1 0 C2.0257259 4.41062136 2.03684712 6.92630576 0 11 C-0.66 11 -1.32 11 -2 11 C-2.95465783 8.83032311 -3.14401212 7.43671207 -2.3984375 5.17578125 C-1.64129615 3.4315257 -0.82390802 1.71372869 0 0 Z " fill="#6B9BC4" transform="translate(48,144)"/>
<path d="M0 0 C0.33 0 0.66 0 1 0 C1.33 1.98 1.66 3.96 2 6 C3.65 6.33 5.3 6.66 7 7 C7 7.66 7 8.32 7 9 C0.125 8.125 0.125 8.125 -1 7 C-1.125 4 -1.125 4 -1 1 C-0.67 0.67 -0.34 0.34 0 0 Z " fill="#D2EAF5" transform="translate(135,136)"/>
<path d="M0 0 C0.33 0.66 0.66 1.32 1 2 C1.66 2.33 2.32 2.66 3 3 C0.03 5.475 0.03 5.475 -3 8 C-3 7.34 -3 6.68 -3 6 C-3.66 5.67 -4.32 5.34 -5 5 C-3.35 3.35 -1.7 1.7 0 0 Z " fill="#74A3C8" transform="translate(153,127)"/>
<path d="M0 0 C0.66 0.99 1.32 1.98 2 3 C-0.31537955 6.72114571 -2.28579473 9.61229661 -6 12 C-4.43358249 7.69235185 -2.31663844 3.93828536 0 0 Z " fill="#D8EDF6" transform="translate(93,112)"/>
<path d="M0 0 C-0.33 3.3 -0.66 6.6 -1 10 C-1.99 10 -2.98 10 -4 10 C-5 8 -5 8 -4.1875 4.4375 C-2.65454545 0 -2.65454545 0 0 0 Z " fill="#77A1C8" transform="translate(117,117)"/>
<path d="M0 0 C1.32 0.66 2.64 1.32 4 2 C3.67 3.32 3.34 4.64 3 6 C2.34 6 1.68 6 1 6 C0.67 7.65 0.34 9.3 0 11 C-1.125 9.4375 -1.125 9.4375 -2 7 C-1.125 3.25 -1.125 3.25 0 0 Z " fill="#70A5CC" transform="translate(169,64)"/>
<path d="M0 0 C0.86625 0.4640625 0.86625 0.4640625 1.75 0.9375 C3.84294184 1.92583364 5.74535275 2.5168613 8 3 C4.93882432 5.62386487 4.26826873 6 0 6 C0 4.02 0 2.04 0 0 Z " fill="#4A7EB8" transform="translate(108,146)"/>
<path d="M0 0 C1.625 1.5625 1.625 1.5625 3 4 C2.1875 7.75 2.1875 7.75 1 11 C0.01 10.34 -0.98 9.68 -2 9 C-1.34 6.03 -0.68 3.06 0 0 Z " fill="#74A3C8" transform="translate(129,69)"/>
<path d="M0 0 C0.33 0 0.66 0 1 0 C1.19622241 4.21878192 0.80230168 7.17010894 -1 11 C-1.66 10.34 -2.32 9.68 -3 9 C-2.6442194 5.62008426 -1.64284201 2.95711562 0 0 Z " fill="#6997BD" transform="translate(161,128)"/>
<path d="M0 0 C2.97 0.495 2.97 0.495 6 1 C4.6875 3.5 4.6875 3.5 3 6 C2.01 6 1.02 6 0 6 C0 4.02 0 2.04 0 0 Z " fill="#E9F5FB" transform="translate(141,132)"/>
<path d="M0 0 C0.66 0 1.32 0 2 0 C0.68938409 4.23429756 -0.94356259 8.07407404 -3 12 C-4.04449911 8.86650268 -3.93423645 8.01031744 -3 5 C-2.34 5 -1.68 5 -1 5 C-0.67 3.35 -0.34 1.7 0 0 Z " fill="#DDF0F8" transform="translate(173,96)"/>
<path d="M0 0 C1.73543126 2.60314689 2.61121812 3.98694043 3 7 C2.34 7.66 1.68 8.32 1 9 C-2 4.375 -2 4.375 -2 1 C-1.34 0.67 -0.68 0.34 0 0 Z " fill="#5985BD" transform="translate(95,51)"/>
<path d="M0 0 C0.33 0 0.66 0 1 0 C0.67 3.3 0.34 6.6 0 10 C-0.99 9.34 -1.98 8.68 -3 8 C-1.125 1.125 -1.125 1.125 0 0 Z " fill="#709FC9" transform="translate(149,159)"/>
<path d="M0 0 C0.99 0.99 1.98 1.98 3 3 C2.34 4.65 1.68 6.3 1 8 C-0.32 8 -1.64 8 -3 8 C-2.690625 7.236875 -2.38125 6.47375 -2.0625 5.6875 C-1.32106407 3.81210323 -0.63771783 1.91315348 0 0 Z " fill="#77A2CC" transform="translate(98,131)"/>
<path d="M0 0 C0.33 0.66 0.66 1.32 1 2 C1.66 2.33 2.32 2.66 3 3 C2.01 4.98 1.02 6.96 0 9 C-0.33 8.34 -0.66 7.68 -1 7 C-1.66 6.67 -2.32 6.34 -3 6 C-2.01 4.02 -1.02 2.04 0 0 Z " fill="#749EC9" transform="translate(46,125)"/>
<path d="M0 0 C1 3 1 3 0.22265625 4.82421875 C-0.8515625 6.54947917 -1.92578125 8.27473958 -3 10 C-3.33 10 -3.66 10 -4 10 C-3.38461538 3.47692308 -3.38461538 3.47692308 -1.4375 1.0625 C-0.7259375 0.5365625 -0.7259375 0.5365625 0 0 Z " fill="#6796C0" transform="translate(91,112)"/>
<path d="M0 0 C1.39746302 4.19238905 -0.15968125 6.10701803 -2 10 C-2.33 10.66 -2.66 11.32 -3 12 C-3.66 12 -4.32 12 -5 12 C-3.68938409 7.76570244 -2.05643741 3.92592596 0 0 Z " fill="#71A0CA" transform="translate(155,86)"/>
<path d="M0 0 C0.6875 1.6875 0.6875 1.6875 1 4 C-0.3125 6.75 -0.3125 6.75 -2 9 C-2.66 9 -3.32 9 -4 9 C-3.46930939 5.17902761 -2.50298434 2.93828597 0 0 Z " fill="#6A99C7" transform="translate(105,85)"/>
<path d="M0 0 C0.66 1.32 1.32 2.64 2 4 C1.34 4 0.68 4 0 4 C0.58803797 7.02419525 1.22678118 10.01758453 2 13 C0.68 13 -0.64 13 -2 13 C-1.34 8.71 -0.68 4.42 0 0 Z " fill="#7798CF" transform="translate(65,30)"/>
<path d="M0 0 C1.1875 1.625 1.1875 1.625 2 4 C0.625 7.25 0.625 7.25 -1 10 C-2.1875 8.375 -2.1875 8.375 -3 6 C-1.625 2.75 -1.625 2.75 0 0 Z " fill="#6F9FCC" transform="translate(199,63)"/>
<path d="M0 0 C0.66 0.33 1.32 0.66 2 1 C0.55609075 4.80666984 -1.34952803 6.26602582 -5 8 C-5.66 7.67 -6.32 7.34 -7 7 C-4.69 4.69 -2.38 2.38 0 0 Z " fill="#C5E1F0" transform="translate(139,36)"/>
<path d="M0 0 C0.33 0 0.66 0 1 0 C0.67 3.96 0.34 7.92 0 12 C-0.66 11.67 -1.32 11.34 -2 11 C-2 8.69 -2 6.38 -2 4 C-1.34 4 -0.68 4 0 4 C0 2.68 0 1.36 0 0 Z " fill="#4B6CA6" transform="translate(37,150)"/>
<path d="M0 0 C0.66 0 1.32 0 2 0 C2 0.99 2 1.98 2 3 C1.34 3 0.68 3 0 3 C-0.33 5.64 -0.66 8.28 -1 11 C-2.34110539 8.79112053 -3.06609767 7.54530581 -2.75 4.9375 C-2 3 -2 3 0 0 Z " fill="#FAFBFA" transform="translate(44,145)"/>
<path d="M0 0 C0.99 0.33 1.98 0.66 3 1 C2.02471263 2.33617352 1.04466681 3.6688751 0.0625 5 C-0.48277344 5.7425 -1.02804688 6.485 -1.58984375 7.25 C-2.28787109 8.11625 -2.28787109 8.11625 -3 9 C-3.33 9 -3.66 9 -4 9 C-4 7.35 -4 5.7 -4 4 C-2.68 3.67 -1.36 3.34 0 3 C0 2.01 0 1.02 0 0 Z " fill="#DEF0F9" transform="translate(142,108)"/>
<path d="M0 0 C0.66 0.33 1.32 0.66 2 1 C1.34 3.97 0.68 6.94 0 10 C-0.66 9.67 -1.32 9.34 -2 9 C-1.34 6.03 -0.68 3.06 0 0 Z " fill="#F0F9F2" transform="translate(76,78)"/>
<path d="M0 0 C1.08892712 2.83121051 0.96109941 4.16532751 0.25 7.1875 C-0.36875 8.5796875 -0.36875 8.5796875 -1 10 C-1.99 10.33 -2.98 10.66 -4 11 C-3.52269162 9.5410574 -3.04308958 8.08286504 -2.5625 6.625 C-2.29566406 5.81289062 -2.02882813 5.00078125 -1.75390625 4.1640625 C-1 2 -1 2 0 0 Z " fill="#D6EBF5" transform="translate(103,128)"/>
<path d="M0 0 C2.125 0.375 2.125 0.375 4 1 C2.35 2.65 0.7 4.3 -1 6 C-1.625 4.125 -1.625 4.125 -2 2 C-1.34 1.34 -0.68 0.68 0 0 Z " fill="#E6F3F4" transform="translate(211,116)"/>
<path d="M0 0 C0.66 0.99 1.32 1.98 2 3 C-0.625 7.875 -0.625 7.875 -4 9 C-2.80100302 5.9168649 -1.52299523 2.93720508 0 0 Z " fill="#D4EBF6" transform="translate(66,95)"/>
<path d="M0 0 C0.33 0 0.66 0 1 0 C1.33292585 4.24480464 1.43885872 6.35542625 -1 9.9375 C-1.66 10.618125 -2.32 11.29875 -3 12 C-2.40075776 7.80530429 -1.42500059 3.99000166 0 0 Z " fill="#C9E2F0" transform="translate(125,93)"/>
<path d="M0 0 C0.66 0 1.32 0 2 0 C1.54803755 1.60597325 1.08817673 3.20972508 0.625 4.8125 C0.36976563 5.70582031 0.11453125 6.59914063 -0.1484375 7.51953125 C-1 10 -1 10 -3 13 C-2.343621 8.51474352 -1.29925791 4.33085971 0 0 Z " fill="#E1F3FB" transform="translate(150,92)"/>
<path d="M0 0 C1.0326802 2.78823655 1.04509293 3.8677274 0.0625 6.75 C-0.288125 7.4925 -0.63875 8.235 -1 9 C-1.99 8.67 -2.98 8.34 -4 8 C-2.87548273 5.0280615 -1.77706209 2.66559313 0 0 Z " fill="#E1EFF3" transform="translate(194,78)"/>
<path d="M0 0 C0.66 0 1.32 0 2 0 C1.38722388 2.96175123 0.74627478 4.38058783 -1 7 C-1.66 7 -2.32 7 -3 7 C-2.25 2.25 -2.25 2.25 0 0 Z " fill="#6C9AC0" transform="translate(128,44)"/>
<path d="M0 0 C0.33 0 0.66 0 1 0 C1.1953125 6.0546875 1.1953125 6.0546875 1 8 C0.34 8.66 -0.32 9.32 -1 10 C-2.25 3.375 -2.25 3.375 0 0 Z " fill="#6086BF" transform="translate(69,153)"/>
<path d="M0 0 C0.99 1.32 1.98 2.64 3 4 C1.35 5.32 -0.3 6.64 -2 8 C-2 4.79604584 -1.25664978 2.90600261 0 0 Z " fill="#DBEFF6" transform="translate(165,125)"/>
<path d="M0 0 C0.99 0 1.98 0 3 0 C1.86280581 3.41158256 0.95657056 4.11854601 -2 6 C-2.66 6 -3.32 6 -4 6 C-2.84826645 3.53199953 -1.95216435 1.95216435 0 0 Z " fill="#6191BB" transform="translate(210,121)"/>
<path d="M0 0 C0.99 0.33 1.98 0.66 3 1 C2.75 3.375 2.75 3.375 2 6 C-0.0625 7.3125 -0.0625 7.3125 -2 8 C-1.34 5.36 -0.68 2.72 0 0 Z " fill="#6997C6" transform="translate(55,120)"/>
<path d="M0 0 C0.66 0 1.32 0 2 0 C2 1.65 2 3.3 2 5 C0.35 5.33 -1.3 5.66 -3 6 C-1.125 1.125 -1.125 1.125 0 0 Z " fill="#E5F5F9" transform="translate(108,85)"/>
<path d="M0 0 C0.66 0.99 1.32 1.98 2 3 C1.125 5.6875 1.125 5.6875 0 8 C-0.99 7.67 -1.98 7.34 -3 7 C-1.125 2.25 -1.125 2.25 0 0 Z " fill="#6A9ACB" transform="translate(159,78)"/>
<path d="M0 0 C1.125 1.6875 1.125 1.6875 2 4 C1.125 6.75 1.125 6.75 0 9 C-0.99 8.67 -1.98 8.34 -3 8 C-2.690625 7.236875 -2.38125 6.47375 -2.0625 5.6875 C-1.32106407 3.81210323 -0.63771783 1.91315348 0 0 Z " fill="#76A2CE" transform="translate(114,65)"/>
<path d="M0 0 C0.33 0 0.66 0 1 0 C1.9765625 6.0546875 1.9765625 6.0546875 2 8 C1.34 8.66 0.68 9.32 0 10 C-0.99 10 -1.98 10 -3 10 C-2.690625 9.46375 -2.38125 8.9275 -2.0625 8.375 C-0.82172561 5.6015043 -0.4090325 2.99957163 0 0 Z " fill="#CCDEF0" transform="translate(70,29)"/>
<path d="M0 0 C0.99 0.33 1.98 0.66 3 1 C2.34 2.98 1.68 4.96 1 7 C0.34 7 -0.32 7 -1 7 C-0.67 4.69 -0.34 2.38 0 0 Z " fill="#6D9AC3" transform="translate(153,146)"/>
<path d="M0 0 C1.125 3.75 1.125 3.75 0 6 C0.66 6 1.32 6 2 6 C1.67 7.98 1.34 9.96 1 12 C-1.83022097 8.00439392 -0.76210446 4.57262677 0 0 Z " fill="#80ABCD" transform="translate(120,98)"/>
<path d="M0 0 C0.66 1.32 1.32 2.64 2 4 C0.75 6.75 0.75 6.75 -1 9 C-1.66 9 -2.32 9 -3 9 C-2.01 6.03 -1.02 3.06 0 0 Z " fill="#679DCD" transform="translate(175,95)"/>
<path d="M0 0 C0.66 0 1.32 0 2 0 C2.98120464 3.05263664 2.98120464 4.94736336 2 8 C1.34 8 0.68 8 0 8 C0 5.36 0 2.72 0 0 Z " fill="#3C75C3" transform="translate(59,96)"/>
<path d="M0 0 C0.99 0 1.98 0 3 0 C2.67 1.65 2.34 3.3 2 5 C1.01 5.33 0.02 5.66 -1 6 C-0.67 4.02 -0.34 2.04 0 0 Z " fill="#5383B6" transform="translate(143,28)"/>
<path d="M0 0 C0.33 0.66 0.66 1.32 1 2 C2.32 1.67 3.64 1.34 5 1 C5.33 2.65 5.66 4.3 6 6 C3.69 5.01 1.38 4.02 -1 3 C-0.67 2.01 -0.34 1.02 0 0 Z " fill="#70A7D7" transform="translate(139,115)"/>
<path d="M0 0 C0.33 1.32 0.66 2.64 1 4 C-0.9375 6.25 -0.9375 6.25 -3 8 C-3.66 7.67 -4.32 7.34 -5 7 C-3.35 4.69 -1.7 2.38 0 0 Z " fill="#D7EBF6" transform="translate(177,103)"/>
<path d="M0 0 C0.99 0.66 1.98 1.32 3 2 C2.34 3.65 1.68 5.3 1 7 C0.01 6.34 -0.98 5.68 -2 5 C-1.34 3.35 -0.68 1.7 0 0 Z " fill="#7DABD1" transform="translate(180,85)"/>
<path d="M0 0 C0.66 0.99 1.32 1.98 2 3 C1.125 5.6875 1.125 5.6875 0 8 C-0.66 8 -1.32 8 -2 8 C-1.47731534 5.23723823 -0.89130413 2.6739124 0 0 Z " fill="#6D9BBE" transform="translate(192,75)"/>
<path d="M0 0 C0.33 0 0.66 0 1 0 C1 1.65 1 3.3 1 5 C-0.98 5.99 -0.98 5.99 -3 7 C-3 5.35 -3 3.7 -3 2 C-2.01 2 -1.02 2 0 2 C0 1.34 0 0.68 0 0 Z " fill="#749ECC" transform="translate(63,64)"/>
<path d="M0 0 C1.32 0.33 2.64 0.66 4 1 C4.66 3.31 5.32 5.62 6 8 C1.125 3.375 1.125 3.375 0 0 Z " fill="#DEEDF8" transform="translate(100,61)"/>
<path d="M0 0 C0.66 0.33 1.32 0.66 2 1 C1.67 2.98 1.34 4.96 1 7 C0.01 7.33 -0.98 7.66 -2 8 C-1.34 5.36 -0.68 2.72 0 0 Z " fill="#DEF0F9" transform="translate(176,55)"/>
</svg>
