<?xml version="1.0" encoding="UTF-8"?>
<svg version="1.1" xmlns="http://www.w3.org/2000/svg" width="246" height="172">
<path d="M0 0 C81.18 0 162.36 0 246 0 C246 56.76 246 113.52 246 172 C164.82 172 83.64 172 0 172 C0 115.24 0 58.48 0 0 Z " fill="#FEFEFE" transform="translate(0,0)"/>
<path d="M0 0 C0.66 0 1.32 0 2 0 C1.35083537 6.00477279 -0.85795003 11.400781 -3 17 C-3.66 17 -4.32 17 -5 17 C-5.07347656 17.87011719 -5.07347656 17.87011719 -5.1484375 18.7578125 C-5.60070624 23.48324107 -6.46802579 27.49419351 -8 32 C-8.56201322 34.89558985 -9.05980903 37.79602059 -9.53515625 40.70703125 C-10 43 -10 43 -11 44 C-11.93787934 50.55203822 -12.1255436 56.95262128 -12.0625 63.5625 C-12.05798828 64.47580078 -12.05347656 65.38910156 -12.04882812 66.33007812 C-12.0371874 68.55345738 -12.02083851 70.77669121 -12 73 C-9.99480605 69.73125918 -8.33693388 66.59943736 -7 63 C-6.34 63 -5.68 63 -5 63 C-5 62.01 -5 61.02 -5 60 C-4.01 59.34 -3.02 58.68 -2 58 C-0.59939554 55.91078601 -0.59939554 55.91078601 0.6875 53.375 C1.20441406 52.39660156 1.72132812 51.41820312 2.25390625 50.41015625 C5.21985232 44.61760385 8.13621027 38.80137812 11.0234375 32.96923828 C12.67354821 29.64179004 14.33738557 26.32121289 16 23 C16.5775 21.845 17.155 20.69 17.75 19.5 C18.1625 18.675 18.575 17.85 19 17 C19.33 17 19.66 17 20 17 C20.33707111 21.83135256 19.53407461 23.96425154 17 28 C16.51146838 29.38555296 16.05619227 30.78304517 15.625 32.1875 C13.97866336 37.41703991 11.55501034 42.16264842 9 47 C8.34 47 7.68 47 7 47 C6.67 48.65 6.34 50.3 6 52 C5.34 52 4.68 52 4 52 C3.690625 52.94875 3.38125 53.8975 3.0625 54.875 C2 58 2 58 1 60 C0.34 60 -0.32 60 -1 60 C-1 60.99 -1 61.98 -1 63 C-1.66 63 -2.32 63 -3 63 C-3.0825 63.556875 -3.165 64.11375 -3.25 64.6875 C-4.23111429 67.71260238 -5.97694362 69.56043201 -8 72 C-10.92892021 76.01601353 -11.28063829 78.4056287 -10.6875 83.3125 C-10.56761719 84.38113281 -10.44773438 85.44976562 -10.32421875 86.55078125 C-10.21722656 87.35902344 -10.11023438 88.16726562 -10 89 C-9.01 89.33 -8.02 89.66 -7 90 C-5.66666667 91.33333333 -4.33333333 92.66666667 -3 94 C-1.515 94.495 -1.515 94.495 0 95 C0 95.66 0 96.32 0 97 C8.75460524 96.83193603 15.27669919 95.07759796 23 91 C24.33243183 90.33153336 25.66543325 89.6641941 27 89 C26.97679687 88.24976562 26.95359375 87.49953125 26.9296875 86.7265625 C26.80880364 79.87072063 27.35063873 73.65635083 29 67 C29.66 67 30.32 67 31 67 C30.95875 66.21625 30.9175 65.4325 30.875 64.625 C31 62 31 62 33 60 C38.56818182 60.56818182 38.56818182 60.56818182 40 62 C40.5336011 68.5981828 40.74489938 74.31330094 37 80 C36.484375 80.94875 35.96875 81.8975 35.4375 82.875 C34.963125 83.57625 34.48875 84.2775 34 85 C33.34 85 32.68 85 32 85 C32.99 87.64 33.98 90.28 35 93 C38.3 93 41.6 93 45 93 C45.495 91.515 45.495 91.515 46 90 C47.33333333 89.66666667 48.66666667 89.33333333 50 89 C50.495 87.515 50.495 87.515 51 86 C51.66 86 52.32 86 53 86 C53.33 84.35 53.66 82.7 54 81 C54.66 81 55.32 81 56 81 C56.66 79.35 57.32 77.7 58 76 C58.66 76 59.32 76 60 76 C60.185625 74.948125 60.185625 74.948125 60.375 73.875 C61.03838345 70.82343613 61.97211955 67.94659062 63 65 C63.66 65 64.32 65 65 65 C64.9175 64.360625 64.835 63.72125 64.75 63.0625 C65.05317333 59.34862665 66.33230715 56.76677846 67.91015625 53.42578125 C69.57647491 49.71687842 70.79002737 45.87741229 72 42 C72.66 42 73.32 42 74 42 C74.10957031 43.24394531 74.21914062 44.48789063 74.33203125 45.76953125 C75.08911384 53.87088545 75.91519397 61.52464766 78.34375 69.3203125 C79.42923937 73.75272744 79.51317338 78.24104549 79.75 82.78515625 C79.9554817 85.4275225 80.30864965 87.60693043 81.0625 90.125 C82.34824179 95.43939942 82.16320313 100.55989579 82 106 C80.68 106 79.36 106 78 106 C77.94392578 104.22109375 77.94392578 104.22109375 77.88671875 102.40625 C77.41535136 84.16615854 77.41535136 84.16615854 72 67 C71.9222654 64.66796188 71.91032272 62.33160941 72 60 C71.01 60 70.02 60 69 60 C68.814375 61.3303125 68.814375 61.3303125 68.625 62.6875 C68.05587264 65.70387502 67.23385564 68.20326054 66 71 C65.34 71 64.68 71 64 71 C64 72.32 64 73.64 64 75 C63.01 75.495 63.01 75.495 62 76 C61.71125 76.763125 61.4225 77.52625 61.125 78.3125 C59.8290917 81.40828095 58.43584385 82.69582339 56 85 C54.89254283 86.33060153 53.78871179 87.66422517 52.6875 89 C49.03950176 93.16027033 45.61107285 96.47936473 39.88671875 97.3046875 C36.08247759 97.42987277 34.20511755 97.13674503 31 95 C30.67 94.01 30.34 93.02 30 92 C27.98491642 91.26676204 27.98491642 91.26676204 26 91 C26 91.66 26 92.32 26 93 C25.34 93 24.68 93 24 93 C24 93.66 24 94.32 24 95 C15.8868954 98.64261839 8.0309752 101.33738964 -1 100 C-2.67578125 98.5234375 -2.67578125 98.5234375 -4 97 C-4.804375 96.773125 -5.60875 96.54625 -6.4375 96.3125 C-10.29043064 94.33904772 -11.64285569 91.01836024 -13 87 C-13 85.68 -13 84.36 -13 83 C-14.32 83 -15.64 83 -17 83 C-17.2784375 84.2375 -17.2784375 84.2375 -17.5625 85.5 C-19.20204896 89.4919453 -21.33659322 91.94087132 -24.24609375 95.0703125 C-26.05642557 96.98561259 -26.05642557 96.98561259 -27.59765625 99.2421875 C-28.06042969 99.82226562 -28.52320313 100.40234375 -29 101 C-29.66 101 -30.32 101 -31 101 C-31.495 102.98 -31.495 102.98 -32 105 C-32.66 105 -33.32 105 -34 105 C-34.2475 105.78375 -34.495 106.5675 -34.75 107.375 C-36.19494285 110.40937999 -37.05565819 110.67029725 -40 112 C-40.33 112.99 -40.66 113.98 -41 115 C-46.67124325 121.24873277 -53.97844007 126.56624399 -62.52734375 127.3046875 C-65.70219932 127.31158187 -68.8336753 127.22333011 -72 127 C-72 126.01 -72 125.02 -72 124 C-67.38 124 -62.76 124 -58 124 C-58 123.34 -58 122.68 -58 122 C-55.09399739 120.74335022 -53.20395416 120 -50 120 C-50 119.34 -50 118.68 -50 118 C-48.35648543 116.63823078 -46.68477344 115.31037934 -45 114 C-39.82712586 109.24654809 -34.16626078 103.33252157 -31 97 C-30.34 97 -29.68 97 -29 97 C-29 96.01 -29 95.02 -29 94 C-28.21625 93.38125 -27.4325 92.7625 -26.625 92.125 C-23.74292909 89.79189498 -23.19613774 88.41753639 -22 85 C-20.5 82.6875 -20.5 82.6875 -19 81 C-18.34 81 -17.68 81 -17 81 C-16.34 69.78 -15.68 58.56 -15 47 C-14.34 47 -13.68 47 -13 47 C-13.06058594 45.92492187 -13.12117188 44.84984375 -13.18359375 43.7421875 C-13.18232221 37.97192835 -11.58727456 32.65187164 -10.0625 27.125 C-9.78470703 26.08085938 -9.50691406 25.03671875 -9.22070312 23.9609375 C-7.1750372 16.3500744 -7.1750372 16.3500744 -6 14 C-5.34 14 -4.68 14 -4 14 C-3.896875 13.360625 -3.79375 12.72125 -3.6875 12.0625 C-2.76096927 7.93522674 -1.38339371 3.99357051 0 0 Z " fill="#BDBDC8" transform="translate(102,33)"/>
<path d="M0 0 C5.56818182 0.56818182 5.56818182 0.56818182 7 2 C7.5336011 8.5981828 7.74489938 14.31330094 4 20 C3.443125 20.94875 2.88625 21.8975 2.3125 22.875 C1.879375 23.57625 1.44625 24.2775 1 25 C-0.32 24.67 -1.64 24.34 -3 24 C-3.33 22.35 -3.66 20.7 -4 19 C-4.33 22.3 -4.66 25.6 -5 29 C-5.33 29 -5.66 29 -6 29 C-6.23576736 21.37685526 -5.83717315 14.41430591 -4 7 C-3.34 7 -2.68 7 -2 7 C-2.061875 5.824375 -2.061875 5.824375 -2.125 4.625 C-2 2 -2 2 0 0 Z " fill="#CFCCD2" transform="translate(135,93)"/>
<path d="M0 0 C0.33 0 0.66 0 1 0 C1.33707111 4.83135256 0.53407461 6.96425154 -2 11 C-2.48853162 12.38555296 -2.94380773 13.78304517 -3.375 15.1875 C-5.02133664 20.41703991 -7.44498966 25.16264842 -10 30 C-10.66 30 -11.32 30 -12 30 C-12.33 31.65 -12.66 33.3 -13 35 C-13.66 35 -14.32 35 -15 35 C-15.309375 35.94875 -15.61875 36.8975 -15.9375 37.875 C-17 41 -17 41 -18 43 C-18.66 43 -19.32 43 -20 43 C-20 43.99 -20 44.98 -20 46 C-20.66 46 -21.32 46 -22 46 C-22.061875 46.556875 -22.12375 47.11375 -22.1875 47.6875 C-23.33373872 50.94987173 -25.49390197 52.68667874 -28 55 C-28.66 54.34 -29.32 53.68 -30 53 C-29.525625 52.5875 -29.05125 52.175 -28.5625 51.75 C-26.83733482 49.817815 -26.43415125 48.51807725 -26 46 C-25.34 46 -24.68 46 -24 46 C-24 45.01 -24 44.02 -24 43 C-23.01 42.34 -22.02 41.68 -21 41 C-19.59939554 38.91078601 -19.59939554 38.91078601 -18.3125 36.375 C-17.79558594 35.39660156 -17.27867188 34.41820312 -16.74609375 33.41015625 C-13.78014768 27.61760385 -10.86378973 21.80137812 -7.9765625 15.96923828 C-6.32645179 12.64179004 -4.66261443 9.32121289 -3 6 C-2.4225 4.845 -1.845 3.69 -1.25 2.5 C-0.8375 1.675 -0.425 0.85 0 0 Z " fill="#C5C4C9" transform="translate(121,50)"/>
<path d="M0 0 C0.103125 0.639375 0.20625 1.27875 0.3125 1.9375 C0.539375 2.618125 0.76625 3.29875 1 4 C1.99 4.33 2.98 4.66 4 5 C4.33 9.29 4.66 13.58 5 18 C3 16 3 16 2.875 12.375 C2.91625 11.26125 2.9575 10.1475 3 9 C2.01 9 1.02 9 0 9 C-0.185625 10.3303125 -0.185625 10.3303125 -0.375 11.6875 C-0.94412736 14.70387502 -1.76614436 17.20326054 -3 20 C-4.32 19.67 -5.64 19.34 -7 19 C-6.67 17.35 -6.34 15.7 -6 14 C-5.34 14 -4.68 14 -4 14 C-4.0825 13.360625 -4.165 12.72125 -4.25 12.0625 C-3.8854753 7.59707243 -1.94762276 3.99088772 0 0 Z " fill="#CBCBD4" transform="translate(171,84)"/>
<path d="M0 0 C0 1.65 0 3.3 0 5 C0.66 5 1.32 5 2 5 C3.12862175 10.36095333 3.09688221 15.55306686 3 21 C2.34 21 1.68 21 1 21 C0.67 16.38 0.34 11.76 0 7 C-0.66 7 -1.32 7 -2 7 C-2.33 5.35 -2.66 3.7 -3 2 C-4.65 2.33 -6.3 2.66 -8 3 C-8 3.99 -8 4.98 -8 6 C-9.65 6.33 -11.3 6.66 -13 7 C-13 3 -13 3 -11.75 1.3125 C-7.8420217 -1.61848372 -4.63343891 -0.94774887 0 0 Z " fill="#E4E2E6" transform="translate(121,18)"/>
<path d="M0 0 C1.32 0.33 2.64 0.66 4 1 C3.67 3.97 3.34 6.94 3 10 C2.34 10 1.68 10 1 10 C1.061875 11.1446875 1.061875 11.1446875 1.125 12.3125 C1 15 1 15 -1 18 C-1.66 18 -2.32 18 -3 18 C-3 17.01 -3 16.02 -3 15 C-3.66 14.67 -4.32 14.34 -5 14 C-4.54857225 12.22739369 -4.08859477 10.4569632 -3.625 8.6875 C-3.36976563 7.70136719 -3.11453125 6.71523437 -2.8515625 5.69921875 C-2 3 -2 3 0 0 Z " fill="#F7F6F8" transform="translate(137,96)"/>
<path d="M0 0 C0.33 0 0.66 0 1 0 C1.33707111 4.83135256 0.53407461 6.96425154 -2 11 C-2.51033161 12.42673354 -2.98666492 13.86586436 -3.4375 15.3125 C-4.85966607 19.82106904 -6.79653638 23.82101727 -9 28 C-10.67057602 24.65884797 -9.90339876 21.48219157 -9 18 C-7.20653148 13.88525542 -5.11946346 9.95422288 -3 6 C-1.99444318 4.00278807 -0.99285932 2.00355443 0 0 Z " fill="#C7C6CD" transform="translate(121,50)"/>
<path d="M0 0 C0.33 0 0.66 0 1 0 C1.33 2.64 1.66 5.28 2 8 C3.32 7.34 4.64 6.68 6 6 C5.78537109 6.82757813 5.78537109 6.82757813 5.56640625 7.671875 C4.9544691 10.18714769 4.43873189 12.71042508 3.9375 15.25 C3.76089844 16.14203125 3.58429688 17.0340625 3.40234375 17.953125 C3.26957031 18.62859375 3.13679688 19.3040625 3 20 C2.67 19.34 2.34 18.68 2 18 C0.68 18 -0.64 18 -2 18 C-2.66 19.32 -3.32 20.64 -4 22 C-4.66 22 -5.32 22 -6 22 C-5.8125 19.625 -5.8125 19.625 -5 17 C-3.35 16.34 -1.7 15.68 0 15 C0 10.05 0 5.1 0 0 Z " fill="#B2B2BD" transform="translate(87,98)"/>
<path d="M0 0 C0.33 0 0.66 0 1 0 C1.33 2.64 1.66 5.28 2 8 C2.99 8.33 3.98 8.66 5 9 C7 11 7 11 9 13 C9.99 13.33 10.98 13.66 12 14 C12 14.66 12 15.32 12 16 C13.65 16 15.3 16 17 16 C17 16.33 17 16.66 17 17 C18.65 17.33 20.3 17.66 22 18 C22 18.33 22 18.66 22 19 C20.22992286 19.08114106 18.45877902 19.13925505 16.6875 19.1875 C15.70136719 19.22230469 14.71523437 19.25710937 13.69921875 19.29296875 C10.5804177 18.95445923 9.96621588 18.3215561 8 16 C7.195625 15.773125 6.39125 15.54625 5.5625 15.3125 C2.14976423 13.56451338 1.20948904 11.53119998 -0.3515625 8.109375 C-1.25775046 5.16153465 -0.875116 2.91705332 0 0 Z " fill="#C4C3CB" transform="translate(90,114)"/>
<path d="M0 0 C0.99 0 1.98 0 3 0 C2.67 3.96 2.34 7.92 2 12 C2.99 12.66 3.98 13.32 5 14 C4.67 14.99 4.34 15.98 4 17 C2.125 16.375 2.125 16.375 0 15 C-2.0226284 10.65134894 -2.3660622 6.7588086 -2 2 C-1.34 1.34 -0.68 0.68 0 0 Z " fill="#E1E1E7" transform="translate(26,141)"/>
<path d="M0 0 C0.99 0 1.98 0 3 0 C3 1.32 3 2.64 3 4 C2.01 4.495 2.01 4.495 1 5 C0.71125 5.763125 0.4225 6.52625 0.125 7.3125 C-1.14008278 10.33464219 -2.59370865 11.81246241 -5 14 C-5.5775 14.5775 -6.155 15.155 -6.75 15.75 C-7.1625 16.1625 -7.575 16.575 -8 17 C-8.66 16.34 -9.32 15.68 -10 15 C-9.34 15 -8.68 15 -8 15 C-7.67 13.35 -7.34 11.7 -7 10 C-6.34 10 -5.68 10 -5 10 C-4.34 8.35 -3.68 6.7 -3 5 C-2.34 5 -1.68 5 -1 5 C-0.67 3.35 -0.34 1.7 0 0 Z " fill="#C7C5CC" transform="translate(163,104)"/>
<path d="M0 0 C0.33 0 0.66 0 1 0 C2.01286753 8.69980864 2.10621544 17.25492893 2 26 C1.67 26 1.34 26 1 26 C0.67 28.31 0.34 30.62 0 33 C-0.66 32.67 -1.32 32.34 -2 32 C-1.34 21.44 -0.68 10.88 0 0 Z " fill="#CBCAD2" transform="translate(87,80)"/>
<path d="M0 0 C1.08263372 3.24790116 0.93794547 3.79578461 -0.0625 6.875 C-1.08854717 10.5578978 -0.92658967 12.5749517 1 16 C0.01 16.33 -0.98 16.66 -2 17 C-2.33 15.68 -2.66 14.36 -3 13 C-3.33 16.3 -3.66 19.6 -4 23 C-4.33 23 -4.66 23 -5 23 C-5.23576736 15.37685526 -4.83717315 8.41430591 -3 1 C-2.34 1.33 -1.68 1.66 -1 2 C-0.67 1.34 -0.34 0.68 0 0 Z " fill="#DCDBE7" transform="translate(134,99)"/>
<path d="M0 0 C0.33 0.66 0.66 1.32 1 2 C1.66 2 2.32 2 3 2 C2.52492969 6.27563279 0.04697466 8.16560497 -3 11 C-4.1446875 12.1446875 -4.1446875 12.1446875 -5.3125 13.3125 C-5.869375 13.869375 -6.42625 14.42625 -7 15 C-7.66 14.67 -8.32 14.34 -9 14 C-9 13.34 -9 12.68 -9 12 C-8.34 12 -7.68 12 -7 12 C-7 11.01 -7 10.02 -7 9 C-6.21625 8.38125 -5.4325 7.7625 -4.625 7.125 C-1.81916294 4.85360809 -1.03665668 3.39269458 0 0 Z " fill="#C6C5CB" transform="translate(80,118)"/>
<path d="M0 0 C0.66 0 1.32 0 2 0 C1.35083537 6.00477279 -0.85795003 11.400781 -3 17 C-3.66 17 -4.32 17 -5 17 C-5 17.66 -5 18.32 -5 19 C-5.66 19 -6.32 19 -7 19 C-6.67 17.35 -6.34 15.7 -6 14 C-5.34 14 -4.68 14 -4 14 C-3.896875 13.360625 -3.79375 12.72125 -3.6875 12.0625 C-2.76096927 7.93522674 -1.38339371 3.99357051 0 0 Z " fill="#CBCBD0" transform="translate(102,33)"/>
<path d="M0 0 C0.33 0.66 0.66 1.32 1 2 C1.66 2 2.32 2 3 2 C3.07654536 6.51617599 3.10228696 10.59085217 2 15 C1.01 15 0.02 15 -1 15 C-0.67 10.05 -0.34 5.1 0 0 Z " fill="#EAE9EE" transform="translate(121,37)"/>
<path d="M0 0 C0.66 0.33 1.32 0.66 2 1 C2.39169887 3.66355234 2.40564529 5.39224373 0.88671875 7.66796875 C-0.36389317 9.1510888 -1.67864514 10.57954352 -3 12 C-3.99 11.34 -4.98 10.68 -6 10 C-5.2884375 9.38125 -5.2884375 9.38125 -4.5625 8.75 C-2.83733482 6.817815 -2.43415125 5.51807725 -2 3 C-1.34 3 -0.68 3 0 3 C0 2.01 0 1.02 0 0 Z " fill="#CFCDD5" transform="translate(97,93)"/>
<path d="M0 0 C0.66 0.33 1.32 0.66 2 1 C1.67 2.32 1.34 3.64 1 5 C1.66 5 2.32 5 3 5 C2.67 6.98 2.34 8.96 2 11 C0.68 10.67 -0.64 10.34 -2 10 C-1.34 6.7 -0.68 3.4 0 0 Z " fill="#ACADB8" transform="translate(131,112)"/>
<path d="M0 0 C0.66 0 1.32 0 2 0 C2.33 4.29 2.66 8.58 3 13 C2.67 11.68 2.34 10.36 2 9 C0.68 9 -0.64 9 -2 9 C-1.41196203 5.97580475 -0.77321882 2.98241547 0 0 Z " fill="#C7C6D5" transform="translate(174,75)"/>
<path d="M0 0 C0.66 0 1.32 0 2 0 C1.85691406 0.55171875 1.71382813 1.1034375 1.56640625 1.671875 C0.9544691 4.18714769 0.43873189 6.71042508 -0.0625 9.25 C-0.23910156 10.14203125 -0.41570312 11.0340625 -0.59765625 11.953125 C-0.73042969 12.62859375 -0.86320312 13.3040625 -1 14 C-1.33 13.34 -1.66 12.68 -2 12 C-2.99 11.67 -3.98 11.34 -5 11 C-4.01 10.67 -3.02 10.34 -2 10 C-2.04125 8.906875 -2.0825 7.81375 -2.125 6.6875 C-2 3 -2 3 0 0 Z " fill="#BBB9C4" transform="translate(91,104)"/>
<path d="M0 0 C0.99 0 1.98 0 3 0 C3 1.32 3 2.64 3 4 C2.01 4.495 2.01 4.495 1 5 C0.67 5.99 0.34 6.98 0 8 C-0.99 8.33 -1.98 8.66 -3 9 C-3 7.68 -3 6.36 -3 5 C-2.34 5 -1.68 5 -1 5 C-0.67 3.35 -0.34 1.7 0 0 Z " fill="#BBBAC2" transform="translate(163,104)"/>
<path d="M0 0 C0.66 0 1.32 0 2 0 C1.67 2.31 1.34 4.62 1 7 C0.34 7 -0.32 7 -1 7 C-1.33 8.65 -1.66 10.3 -2 12 C-3.17790906 8.46627283 -2.82375082 6.59454905 -2 3 C-1.34 2.01 -0.68 1.02 0 0 Z " fill="#C5C6CF" transform="translate(110,73)"/>
<path d="M0 0 C0.99 0.33 1.98 0.66 3 1 C2.55090939 2.48199902 2.09043436 3.96055236 1.625 5.4375 C1.36976562 6.26121094 1.11453125 7.08492188 0.8515625 7.93359375 C0 10 0 10 -2 11 C-2.28571429 3.57142857 -2.28571429 3.57142857 0 0 Z " fill="#DADAE2" transform="translate(113,67)"/>
<path d="M0 0 C0.66 0 1.32 0 2 0 C1.49202991 4.3177458 0.80317221 8.03302114 -1 12 C-1.33 12 -1.66 12 -2 12 C-2.28571429 3.42857143 -2.28571429 3.42857143 0 0 Z " fill="#C0C1C8" transform="translate(95,52)"/>
<path d="M0 0 C0.99 0 1.98 0 3 0 C2.67 1.65 2.34 3.3 2 5 C1.34 5 0.68 5 0 5 C-0.33 6.98 -0.66 8.96 -1 11 C-1.33 11 -1.66 11 -2 11 C-1.85957123 9.35369672 -1.71250671 7.70795821 -1.5625 6.0625 C-1.48128906 5.14597656 -1.40007812 4.22945313 -1.31640625 3.28515625 C-1 1 -1 1 0 0 Z " fill="#B1B0B5" transform="translate(134,94)"/>
<path d="M0 0 C-0.33 1.65 -0.66 3.3 -1 5 C-2.65 5.33 -4.3 5.66 -6 6 C-6 4.68 -6 3.36 -6 2 C-3 0 -3 0 0 0 Z " fill="#B6B5B5" transform="translate(114,19)"/>
<path d="M0 0 C1.79275866 3.11910856 2.34290718 5.67682428 2.625 9.25 C2.69976562 10.14203125 2.77453125 11.0340625 2.8515625 11.953125 C2.92503906 12.96632813 2.92503906 12.96632813 3 14 C1 13 1 13 0 10 C-0.06802967 8.27204648 -0.08495645 6.54164635 -0.0625 4.8125 C-0.05347656 3.91144531 -0.04445312 3.01039062 -0.03515625 2.08203125 C-0.02355469 1.39496094 -0.01195312 0.70789063 0 0 Z " fill="#ADADBE" transform="translate(179,110)"/>
<path d="M0 0 C0.99 0 1.98 0 3 0 C3.33 4.29 3.66 8.58 4 13 C2 11 2 11 1.875 7.375 C1.91625 6.26125 1.9575 5.1475 2 4 C1.34 4 0.68 4 0 4 C0 2.68 0 1.36 0 0 Z " fill="#DDE0EF" transform="translate(172,89)"/>
<path d="M0 0 C2 2 2 2 2.125 5.125 C2.08375 6.07375 2.0425 7.0225 2 8 C1.34 8 0.68 8 0 8 C-0.33 7.01 -0.66 6.02 -1 5 C-3.97 4.505 -3.97 4.505 -7 4 C-6.67 3.34 -6.34 2.68 -6 2 C-3.03 2.495 -3.03 2.495 0 3 C0 2.01 0 1.02 0 0 Z " fill="#C5C7D0" transform="translate(133,120)"/>
<path d="M0 0 C0 0.66 0 1.32 0 2 C-0.66 2 -1.32 2 -2 2 C-2 2.66 -2 3.32 -2 4 C-3.98 4.33 -5.96 4.66 -8 5 C-7 2 -7 2 -5.125 0.8125 C-3 0 -3 0 0 0 Z " fill="#B4B5B9" transform="translate(128,124)"/>
<path d="M0 0 C1.25541557 3.76624671 0.37061958 5.37188934 -1 9 C-1.66 9 -2.32 9 -3 9 C-3 6.36 -3 3.72 -3 1 C-2.01 1.495 -2.01 1.495 -1 2 C-0.67 1.34 -0.34 0.68 0 0 Z " fill="#D8D7DC" transform="translate(134,99)"/>
<path d="M0 0 C0 0.66 0 1.32 0 2 C-4.47058824 6 -4.47058824 6 -7 6 C-5.52522876 2.59668175 -4.14385429 0 0 0 Z " fill="#B4B3BE" transform="translate(61,146)"/>
<path d="M0 0 C0.66 0.99 1.32 1.98 2 3 C1.01 3.33 0.02 3.66 -1 4 C-1.33 4.66 -1.66 5.32 -2 6 C-2.99 6 -3.98 6 -5 6 C-5 5.34 -5 4.68 -5 4 C-3.37373596 2.61767557 -1.7074998 1.28062485 0 0 Z " fill="#C6C4CF" transform="translate(63,141)"/>
<path d="M0 0 C0.99 0 1.98 0 3 0 C3 0.66 3 1.32 3 2 C2.34 2 1.68 2 1 2 C0.67 3.32 0.34 4.64 0 6 C-0.66 6 -1.32 6 -2 6 C-1.125 1.125 -1.125 1.125 0 0 Z " fill="#B6B4BC" transform="translate(70,132)"/>
<path d="M0 0 C0.33 0.99 0.66 1.98 1 3 C1.99 3.33 2.98 3.66 4 4 C3.03114628 5.68496298 2.03013277 7.35178756 1 9 C0.67 9 0.34 9 0 9 C0 6.03 0 3.06 0 0 Z " fill="#EDECF2" transform="translate(89,98)"/>
<path d="M0 0 C0.33 1.32 0.66 2.64 1 4 C1.66 4.33 2.32 4.66 3 5 C2.34 5 1.68 5 1 5 C1 6.32 1 7.64 1 9 C0.34 9 -0.32 9 -1 9 C-0.67 6.03 -0.34 3.06 0 0 Z " fill="#BBBDCE" transform="translate(171,84)"/>
<path d="M0 0 C0.66 0 1.32 0 2 0 C1.40138258 2.35171131 0.73075648 4.6859378 0 7 C-0.99 7.495 -0.99 7.495 -2 8 C-1.125 1.125 -1.125 1.125 0 0 Z " fill="#BDBCC1" transform="translate(106,80)"/>
</svg>
